<svg xmlns="http://www.w3.org/2000/svg" viewBox="0 0 317.77 316.35"><defs><style>.cls-1{fill:#69634b;}.cls-2{fill:#010101;stroke:#fff;stroke-miterlimit:10;}</style></defs><title>anchovies</title><g id="Layer_2" data-name="Layer 2"><g id="Anchovies_Pizza" data-name="Anchovies Pizza"><g id="Anchovies"><path class="cls-1" d="M4.47,94.16s26.68,8.13,34.71,9.12,28.6,17.21,28.6,17.21-30.95-10.59-41.24-9.88-25.46-6.75-25.46-6.75-4.2-8.62,4-4.38C5,99.48-2.43,94.6,4.47,94.16Z"/><circle class="cls-2" cx="8.1" cy="97.47" r="0.91"/><path class="cls-1" d="M254.46,111.62s26.68,8.13,34.71,9.13,28.6,17.2,28.6,17.2-31-10.59-41.24-9.88-25.46-6.75-25.46-6.75-4.2-8.62,4-4.38C255,116.94,247.55,112.06,254.46,111.62Z"/><circle class="cls-2" cx="258.09" cy="114.93" r="0.91"/><path class="cls-1" d="M173.52,52.61s-1.1,27.87,0,35.89-9.39,32-9.39,32,2.39-32.63-.9-42.4.08-26.34.08-26.34,7.27-6.25,5.24,2.71C168.52,54.5,171.35,46,173.52,52.61Z"/><circle class="cls-2" cx="171.24" cy="56.96" r="0.91"/><path class="cls-1" d="M70.75,274.57s21.82-17.37,27.19-23.42,30.39-13.82,30.39-13.82-26.27,19.51-31.52,28.38-20,17.15-20,17.15-9.48-1.42-1.37-5.74C75.45,277.12,67.2,280.51,70.75,274.57Z"/><circle class="cls-2" cx="75.54" cy="273.46" r="0.91"/><path class="cls-1" d="M28.34,175.39S55,183.52,63,184.52s28.6,17.2,28.6,17.2-30.95-10.59-41.24-9.88-25.46-6.75-25.46-6.75-4.2-8.62,4-4.38C28.9,180.71,21.43,175.83,28.34,175.39Z"/><circle class="cls-2" cx="31.96" cy="178.7" r="0.91"/><path class="cls-1" d="M174.47,206.57s13.65,24.32,18.76,30.59S202,269.37,202,269.37s-15-29.06-23-35.66-13.73-22.47-13.73-22.47,2.92-9.14,5.88-.44C171.19,210.8,169.17,202.11,174.47,206.57Z"/><circle class="cls-2" cx="174.8" cy="211.47" r="0.91"/><path class="cls-1" d="M117.15,10.08S90,16.62,82.62,19.84s-33.38-.31-33.38-.31S81.29,12.94,89.79,7.11,115.15,0,115.15,0s8,5.29-1.18,5.78C114,5.78,122.88,6.19,117.15,10.08Z"/><circle class="cls-2" cx="112.34" cy="9.07" r="0.91"/><path class="cls-1" d="M187.6,5.67s26.67,8.13,34.7,9.13S250.9,32,250.9,32s-31-10.59-41.24-9.88-25.46-6.75-25.46-6.75-4.2-8.62,4-4.38C188.16,11,180.69,6.11,187.6,5.67Z"/><circle class="cls-2" cx="191.22" cy="8.98" r="0.91"/><path class="cls-1" d="M254.44,230.52s3.46-27.68,3.07-35.76,12.08-31.12,12.08-31.12S264.43,196,266.89,206s-2.31,26.23-2.31,26.23-7.78,5.62-5-3.14C259.59,229.06,256.06,237.25,254.44,230.52Z"/><circle class="cls-2" cx="257.08" cy="226.38" r="0.91"/><path class="cls-1" d="M184.13,307.28s24.08-14.07,30.26-19.28,32.06-9.32,32.06-9.32-28.8,15.54-35.26,23.57S189,316.35,189,316.35s-9.19-2.76-.54-5.87C188.41,310.48,179.76,312.65,184.13,307.28Z"/><circle class="cls-2" cx="189.02" cy="306.86" r="0.91"/></g></g></g></svg>