<svg xmlns="http://www.w3.org/2000/svg" viewBox="0 0 323.38 310.68"><defs><style>.cls-1{fill:#5c2b27;stroke:#cb8751;stroke-miterlimit:10;stroke-width:0.75px;}.cls-2{fill:#253419;}.cls-3{fill:#211313;}</style></defs><title>beef</title><g id="Layer_2" data-name="Layer 2"><g id="Beef_Pizza" data-name="Beef Pizza"><g id="Beef"><path class="cls-1" d="M144.32,17.78S143,19.16,145.46,20s-.72,1.76-.72,1.76a7.11,7.11,0,0,0,4.4,2.35c4.28.75,6.79-3.26,4.29-7.09C149.75,11.37,141.66,16.77,144.32,17.78Z"/><rect class="cls-2" x="150.54" y="20.25" width="5.04" height="2.05" rx="1.02" transform="translate(5.58 -24.88) rotate(9.46)"/><path class="cls-3" d="M147.26,14.6s-4.14,2-3,3.17-1.63,1.55,1,2.21,5.89-3.62,7.92-1.53S152.56,14,147.26,14.6Z"/><path class="cls-1" d="M130.35,114s-1.37,1.39,1.14,2.23-.72,1.76-.72,1.76a7.12,7.12,0,0,0,4.39,2.35c4.28.75,6.79-3.26,4.29-7.1C135.77,107.57,127.68,113,130.35,114Z"/><rect class="cls-2" x="136.56" y="116.45" width="5.04" height="2.05" rx="1.02" transform="translate(21.21 -21.27) rotate(9.46)"/><path class="cls-3" d="M133.28,110.79s-4.14,2-3,3.18-1.63,1.54,1,2.21,5.89-3.62,7.92-1.53S138.58,110.23,133.28,110.79Z"/><path class="cls-1" d="M95.61,30.43s-1.36,1.39,1.14,2.23S96,34.42,96,34.42a7.11,7.11,0,0,0,4.4,2.35c4.28.75,6.79-3.26,4.29-7.09C101,24,93,29.42,95.61,30.43Z"/><rect class="cls-2" x="101.83" y="32.91" width="5.04" height="2.05" rx="1.02" transform="translate(7 -16.69) rotate(9.46)"/><path class="cls-3" d="M98.55,27.25s-4.14,2.05-3,3.18S94,32,96.63,32.64s5.89-3.62,7.92-1.53S103.85,26.69,98.55,27.25Z"/><path class="cls-1" d="M132.7,59.3s-1.37,1.38,1.14,2.22-.72,1.76-.72,1.76a7.06,7.06,0,0,0,4.39,2.35c4.28.75,6.79-3.25,4.29-7.09C138.12,52.89,130,58.29,132.7,59.3Z"/><rect class="cls-2" x="138.91" y="61.77" width="5.04" height="2.05" rx="1.02" transform="translate(12.25 -22.4) rotate(9.46)"/><path class="cls-3" d="M135.63,56.12s-4.14,2-3,3.17-1.63,1.55,1,2.21,5.89-3.62,7.92-1.53S140.93,55.55,135.63,56.12Z"/><path class="cls-1" d="M83,93.05s-1.37,1.38,1.14,2.22S83.42,97,83.42,97a7.06,7.06,0,0,0,4.39,2.35c4.28.76,6.79-3.25,4.29-7.09C88.43,86.64,80.33,92,83,93.05Z"/><rect class="cls-2" x="89.21" y="95.52" width="5.04" height="2.05" rx="1.02" transform="translate(17.12 -13.77) rotate(9.46)"/><path class="cls-3" d="M85.93,89.87s-4.14,2-3,3.17-1.64,1.55,1,2.21,5.9-3.62,7.92-1.53S91.23,89.31,85.93,89.87Z"/><path class="cls-1" d="M90.68,138.15s-1.12,1.59,1.49,2-.42,1.85-.42,1.85a7.12,7.12,0,0,0,4.72,1.6c4.35,0,6.16-4.33,3.06-7.7C95,130.94,87.88,137.59,90.68,138.15Z"/><rect class="cls-2" x="97.35" y="139.14" width="5.04" height="2.05" rx="1.02"/><path class="cls-3" d="M93.05,134.53s-3.75,2.7-2.39,3.62-1.36,1.79,1.38,2,5.22-4.54,7.56-2.82S98.19,133.11,93.05,134.53Z"/><path class="cls-1" d="M130.38,140.73s-1.12,1.59,1.49,2-.42,1.86-.42,1.86a7.12,7.12,0,0,0,4.72,1.6c4.35,0,6.16-4.33,3.06-7.71C134.68,133.52,127.58,140.17,130.38,140.73Z"/><rect class="cls-2" x="137.05" y="141.72" width="5.04" height="2.05" rx="1.02"/><path class="cls-3" d="M132.75,137.11s-3.75,2.7-2.39,3.62-1.36,1.79,1.38,2,5.22-4.54,7.56-2.81S137.89,135.68,132.75,137.11Z"/><path class="cls-1" d="M3.65,116.54s-1.12,1.6,1.49,2-.42,1.85-.42,1.85A7.06,7.06,0,0,0,9.44,122c4.34,0,6.16-4.33,3.06-7.7C8,109.33.85,116,3.65,116.54Z"/><rect class="cls-2" x="10.32" y="117.53" width="5.04" height="2.05" rx="1.02"/><path class="cls-3" d="M6,112.93s-3.75,2.69-2.4,3.61-1.35,1.8,1.39,2,5.22-4.54,7.56-2.81S11.15,111.5,6,112.93Z"/><path class="cls-1" d="M29.66,62.45s-1.12,1.6,1.49,2-.43,1.85-.43,1.85a7.1,7.1,0,0,0,4.73,1.6c4.34,0,6.16-4.33,3.06-7.7C34,55.24,26.86,61.9,29.66,62.45Z"/><rect class="cls-2" x="36.33" y="63.44" width="5.04" height="2.05" rx="1.02"/><path class="cls-3" d="M32,58.84s-3.75,2.69-2.4,3.61-1.36,1.8,1.39,2,5.22-4.54,7.56-2.81S37.16,57.41,32,58.84Z"/><path class="cls-1" d="M71.35,122.54s-1.11,1.59,1.49,2-.42,1.85-.42,1.85a7.15,7.15,0,0,0,4.72,1.6c4.35,0,6.16-4.33,3.07-7.7C75.65,115.33,68.56,122,71.35,122.54Z"/><rect class="cls-2" x="78.02" y="123.53" width="5.04" height="2.05" rx="1.02"/><path class="cls-3" d="M73.72,118.92s-3.74,2.7-2.39,3.62-1.36,1.79,1.38,2,5.22-4.54,7.57-2.82S78.86,117.5,73.72,118.92Z"/><path class="cls-1" d="M57.58,95.16s-1.12,1.59,1.49,2S58.65,99,58.65,99a7.12,7.12,0,0,0,4.72,1.6c4.34,0,6.16-4.33,3.06-7.71C61.88,88,54.78,94.6,57.58,95.16Z"/><rect class="cls-2" x="64.25" y="96.15" width="5.04" height="2.05" rx="1.02"/><path class="cls-3" d="M60,91.54s-3.75,2.7-2.4,3.62-1.35,1.79,1.39,2,5.22-4.55,7.56-2.82S65.08,90.11,60,91.54Z"/><path class="cls-1" d="M122.51,11.53s-1.36,1.38,1.14,2.22-.72,1.76-.72,1.76a7.11,7.11,0,0,0,4.4,2.35c4.28.75,6.78-3.25,4.29-7.09C127.94,5.12,119.85,10.52,122.51,11.53Z"/><rect class="cls-2" x="128.73" y="14" width="5.04" height="2.05" rx="1.02" transform="translate(4.26 -21.37) rotate(9.46)"/><path class="cls-3" d="M125.45,8.35s-4.15,2-3,3.17-1.63,1.55,1,2.21,5.9-3.62,7.92-1.53S130.75,7.78,125.45,8.35Z"/><path class="cls-1" d="M101.82,68.28s-1.37,1.38,1.14,2.22-.72,1.76-.72,1.76a7.06,7.06,0,0,0,4.39,2.35c4.29.75,6.79-3.26,4.29-7.09C107.25,61.87,99.15,67.27,101.82,68.28Z"/><rect class="cls-2" x="108.03" y="70.75" width="5.04" height="2.05" rx="1.02" transform="translate(13.3 -17.2) rotate(9.46)"/><path class="cls-3" d="M104.75,65.1s-4.14,2-3,3.17-1.64,1.55,1,2.21,5.9-3.62,7.92-1.53S110.05,64.53,104.75,65.1Z"/><path class="cls-1" d="M171.32,85.62S170,87,172.46,87.84s-.72,1.76-.72,1.76A7.1,7.1,0,0,0,176.13,92c4.29.75,6.79-3.26,4.29-7.1C176.75,79.22,168.65,84.61,171.32,85.62Z"/><rect class="cls-2" x="177.53" y="88.09" width="5.04" height="2.05" rx="1.02" transform="translate(17.1 -28.39) rotate(9.46)"/><path class="cls-3" d="M174.25,82.44s-4.14,2-2.95,3.18-1.64,1.54,1,2.2,5.9-3.62,7.92-1.53S179.55,81.88,174.25,82.44Z"/><path class="cls-1" d="M163.29,121s-1.36,1.39,1.14,2.22-.72,1.76-.72,1.76a7.15,7.15,0,0,0,4.4,2.36c4.28.75,6.79-3.26,4.29-7.1C168.72,114.62,160.63,120,163.29,121Z"/><rect class="cls-2" x="169.51" y="123.5" width="5.04" height="2.05" rx="1.02" transform="translate(22.81 -26.59) rotate(9.46)"/><path class="cls-3" d="M166.23,117.85s-4.14,2-3,3.17-1.63,1.55,1,2.21,5.89-3.62,7.92-1.53S171.53,117.29,166.23,117.85Z"/><path class="cls-1" d="M176.76,42.43s-1.36,1.39,1.14,2.23-.72,1.76-.72,1.76a7.11,7.11,0,0,0,4.4,2.35c4.28.75,6.79-3.26,4.29-7.09C182.19,36,174.1,41.42,176.76,42.43Z"/><rect class="cls-2" x="182.98" y="44.91" width="5.04" height="2.05" rx="1.02" transform="translate(10.08 -29.87) rotate(9.46)"/><path class="cls-3" d="M179.7,39.26s-4.14,2-3,3.17-1.63,1.54,1,2.21,5.89-3.62,7.92-1.53S185,38.69,179.7,39.26Z"/><path class="cls-1" d="M203.11,71s-1.37,1.38,1.14,2.22-.72,1.76-.72,1.76a7.06,7.06,0,0,0,4.39,2.35c4.28.75,6.79-3.26,4.29-7.09C208.54,64.58,200.44,70,203.11,71Z"/><rect class="cls-2" x="209.32" y="73.46" width="5.04" height="2.05" rx="1.02" transform="translate(15.13 -33.82) rotate(9.46)"/><path class="cls-3" d="M206,67.81s-4.14,2-2.95,3.17-1.64,1.55,1,2.21,5.9-3.62,7.92-1.53S211.34,67.24,206,67.81Z"/><path class="cls-1" d="M232.94,35.3s-1.36,1.38,1.14,2.22-.72,1.76-.72,1.76a7.1,7.1,0,0,0,4.39,2.35c4.29.75,6.79-3.26,4.29-7.09C238.37,28.89,230.27,34.29,232.94,35.3Z"/><rect class="cls-2" x="239.15" y="37.77" width="5.04" height="2.05" rx="1.02" transform="translate(9.67 -39.21) rotate(9.46)"/><path class="cls-3" d="M235.87,32.12s-4.14,2-3,3.17-1.64,1.55,1,2.21,5.9-3.62,7.92-1.53S241.17,31.55,235.87,32.12Z"/><path class="cls-1" d="M196.68,5.83s-1.36,1.39,1.14,2.23-.72,1.76-.72,1.76a7.17,7.17,0,0,0,4.4,2.35c4.28.75,6.79-3.26,4.29-7.1C202.11-.57,194,4.82,196.68,5.83Z"/><rect class="cls-2" x="202.9" y="8.31" width="5.04" height="2.05" rx="1.02" transform="translate(4.33 -33.65) rotate(9.46)"/><path class="cls-3" d="M199.62,2.65s-4.14,2.05-3,3.18S195,7.37,197.7,8s5.89-3.63,7.92-1.54S204.92,2.09,199.62,2.65Z"/><path class="cls-1" d="M179.08,192s1.12-1.59-1.49-2,.42-1.85.42-1.85a7.15,7.15,0,0,0-4.72-1.6c-4.35,0-6.16,4.33-3.07,7.7C174.78,199.23,181.87,192.58,179.08,192Z"/><rect class="cls-2" x="167.37" y="188.98" width="5.04" height="2.05" rx="1.02" transform="translate(339.77 380.01) rotate(180)"/><path class="cls-3" d="M176.71,195.64s3.75-2.7,2.39-3.62,1.36-1.79-1.38-2-5.22,4.54-7.56,2.82S171.57,197.06,176.71,195.64Z"/><path class="cls-1" d="M268.53,131.47s-1.12,1.59,1.49,2-.42,1.85-.42,1.85a7.15,7.15,0,0,0,4.72,1.6c4.35,0,6.16-4.33,3.07-7.71C272.83,124.26,265.74,130.91,268.53,131.47Z"/><rect class="cls-2" x="275.2" y="132.46" width="5.04" height="2.05" rx="1.02"/><path class="cls-3" d="M270.9,127.85s-3.75,2.7-2.39,3.62-1.36,1.79,1.38,2,5.22-4.55,7.56-2.82S276,126.42,270.9,127.85Z"/><path class="cls-1" d="M188.83,137s-1.12,1.59,1.49,2-.42,1.86-.42,1.86a7.12,7.12,0,0,0,4.72,1.6c4.34,0,6.16-4.33,3.06-7.71C193.13,129.78,186,136.43,188.83,137Z"/><rect class="cls-2" x="195.5" y="137.98" width="5.04" height="2.05" rx="1.02"/><path class="cls-3" d="M191.2,133.37s-3.75,2.69-2.4,3.62-1.35,1.79,1.39,2,5.22-4.54,7.56-2.81S196.33,131.94,191.2,133.37Z"/><path class="cls-1" d="M230.76,112.09s-1.36,1.39,1.14,2.22-.72,1.76-.72,1.76a7.15,7.15,0,0,0,4.4,2.36c4.28.75,6.79-3.26,4.29-7.1C236.19,105.68,228.1,111.08,230.76,112.09Z"/><rect class="cls-2" x="236.98" y="114.56" width="5.04" height="2.05" rx="1.02" transform="translate(22.26 -37.8) rotate(9.46)"/><path class="cls-3" d="M233.7,108.91s-4.14,2-3,3.17-1.63,1.55,1,2.21,5.89-3.62,7.92-1.53S239,108.35,233.7,108.91Z"/><path class="cls-1" d="M253.28,79.35s-1.12,1.59,1.49,2-.42,1.85-.42,1.85a7.12,7.12,0,0,0,4.72,1.6c4.35,0,6.16-4.33,3.06-7.7C257.58,72.14,250.48,78.79,253.28,79.35Z"/><rect class="cls-2" x="259.95" y="80.34" width="5.04" height="2.05" rx="1.02"/><path class="cls-3" d="M255.65,75.73s-3.75,2.7-2.39,3.62-1.36,1.79,1.38,2,5.22-4.54,7.56-2.82S260.79,74.31,255.65,75.73Z"/><path class="cls-1" d="M93.22,3.67s-1.36,1.39,1.14,2.22-.72,1.76-.72,1.76A7.15,7.15,0,0,0,98,10c4.28.75,6.78-3.26,4.29-7.1C98.65-2.73,90.56,2.66,93.22,3.67Z"/><rect class="cls-2" x="99.44" y="6.14" width="5.04" height="2.05" rx="1.02" transform="translate(2.57 -16.67) rotate(9.46)"/><path class="cls-3" d="M96.16.49s-4.15,2-3,3.18-1.64,1.54,1,2.2,5.9-3.62,7.92-1.53S101.46-.07,96.16.49Z"/><path class="cls-1" d="M48.63,137s-1.12,1.59,1.49,2-.42,1.86-.42,1.86a7.15,7.15,0,0,0,4.72,1.6c4.35,0,6.16-4.33,3.07-7.71C52.93,129.78,45.84,136.43,48.63,137Z"/><rect class="cls-2" x="55.3" y="137.98" width="5.04" height="2.05" rx="1.02"/><path class="cls-3" d="M51,133.37s-3.74,2.69-2.39,3.62-1.36,1.79,1.38,2,5.22-4.54,7.57-2.81S56.14,131.94,51,133.37Z"/><path class="cls-1" d="M137.05,243.94s1.12-1.59-1.49-2,.42-1.86.42-1.86a7.12,7.12,0,0,0-4.72-1.6c-4.35,0-6.16,4.33-3.06,7.71C132.75,251.15,139.85,244.5,137.05,243.94Z"/><rect class="cls-2" x="125.34" y="240.91" width="5.04" height="2.05" rx="1.02" transform="matrix(-1, 0, 0, -1, 255.72, 483.86)"/><path class="cls-3" d="M134.68,247.56s3.75-2.7,2.39-3.62,1.36-1.79-1.38-2-5.22,4.54-7.56,2.81S129.54,249,134.68,247.56Z"/><path class="cls-1" d="M271.49,53.23s-1.11,1.59,1.49,2-.42,1.86-.42,1.86a7.15,7.15,0,0,0,4.72,1.6c4.35,0,6.16-4.34,3.07-7.71C275.8,46,268.7,52.67,271.49,53.23Z"/><rect class="cls-2" x="278.16" y="54.22" width="5.04" height="2.05" rx="1.02"/><path class="cls-3" d="M273.87,49.61s-3.75,2.69-2.4,3.62-1.36,1.79,1.39,2,5.21-4.54,7.56-2.81S279,48.18,273.87,49.61Z"/><path class="cls-1" d="M311.67,140.41s-1.12,1.59,1.49,2-.42,1.86-.42,1.86a7.11,7.11,0,0,0,4.72,1.59c4.35,0,6.16-4.33,3.07-7.7C316,133.2,308.88,139.85,311.67,140.41Z"/><rect class="cls-2" x="318.34" y="141.39" width="5.04" height="2.05" rx="1.02"/><path class="cls-3" d="M314,136.79s-3.75,2.69-2.39,3.62-1.36,1.79,1.38,2,5.22-4.54,7.56-2.81S319.18,135.36,314,136.79Z"/><path class="cls-1" d="M283.21,102.11s-1.12,1.59,1.49,2-.42,1.85-.42,1.85a7.12,7.12,0,0,0,4.72,1.6c4.35,0,6.16-4.33,3.06-7.7C287.51,94.9,280.41,101.55,283.21,102.11Z"/><rect class="cls-2" x="289.88" y="103.1" width="5.04" height="2.05" rx="1.02"/><path class="cls-3" d="M285.58,98.49s-3.75,2.7-2.39,3.62-1.36,1.79,1.38,2,5.22-4.54,7.56-2.82S290.71,97.07,285.58,98.49Z"/><path class="cls-1" d="M234.74,217.94s-1.12,1.59,1.49,2-.42,1.85-.42,1.85a7.12,7.12,0,0,0,4.72,1.6c4.35,0,6.16-4.33,3.06-7.7C239,210.73,231.94,217.38,234.74,217.94Z"/><rect class="cls-2" x="241.41" y="218.93" width="5.04" height="2.05" rx="1.02"/><path class="cls-3" d="M237.11,214.32s-3.75,2.7-2.4,3.62-1.35,1.79,1.39,2,5.22-4.54,7.56-2.82S242.24,212.9,237.11,214.32Z"/><path class="cls-1" d="M276.58,252.56s-1.12,1.59,1.49,2-.42,1.85-.42,1.85a7.15,7.15,0,0,0,4.72,1.6c4.35,0,6.16-4.33,3.07-7.71C280.88,245.35,273.78,252,276.58,252.56Z"/><rect class="cls-2" x="283.25" y="253.55" width="5.04" height="2.05" rx="1.02"/><path class="cls-3" d="M279,248.94s-3.75,2.7-2.39,3.62-1.36,1.79,1.38,2,5.22-4.55,7.56-2.82S284.09,247.51,279,248.94Z"/><path class="cls-1" d="M246.56,189.89s-1.11,1.6,1.49,2-.42,1.85-.42,1.85a7.09,7.09,0,0,0,4.72,1.6c4.35,0,6.17-4.33,3.07-7.7C250.87,182.68,243.77,189.33,246.56,189.89Z"/><rect class="cls-2" x="253.23" y="190.88" width="5.04" height="2.05" rx="1.02"/><path class="cls-3" d="M248.94,186.27s-3.75,2.7-2.4,3.62-1.36,1.79,1.39,2,5.22-4.54,7.56-2.81S254.07,184.85,248.94,186.27Z"/><path class="cls-1" d="M283.34,189.67s-1.12,1.59,1.49,2-.42,1.85-.42,1.85a7.12,7.12,0,0,0,4.72,1.6c4.34,0,6.16-4.33,3.06-7.7C287.64,182.46,280.54,189.11,283.34,189.67Z"/><rect class="cls-2" x="290.01" y="190.66" width="5.04" height="2.05" rx="1.02"/><path class="cls-3" d="M285.71,186.05s-3.75,2.7-2.4,3.62-1.35,1.79,1.39,2,5.22-4.54,7.56-2.82S290.84,184.63,285.71,186.05Z"/><path class="cls-1" d="M99.05,252.51s1.12-1.59-1.49-2,.43-1.86.43-1.86a7.16,7.16,0,0,0-4.73-1.6c-4.34,0-6.16,4.33-3.06,7.71C94.75,259.72,101.85,253.07,99.05,252.51Z"/><rect class="cls-2" x="87.34" y="249.48" width="5.04" height="2.05" rx="1.02" transform="translate(179.73 501) rotate(180)"/><path class="cls-3" d="M96.68,256.13s3.75-2.7,2.4-3.62,1.36-1.79-1.39-2-5.22,4.54-7.56,2.81S91.55,257.56,96.68,256.13Z"/><path class="cls-1" d="M130,270.33s1.12-1.59-1.49-2,.42-1.85.42-1.85a7.15,7.15,0,0,0-4.72-1.6c-4.35,0-6.16,4.33-3.07,7.7C125.74,277.54,132.83,270.89,130,270.33Z"/><rect class="cls-2" x="118.33" y="267.29" width="5.04" height="2.05" rx="1.02" transform="translate(241.7 536.63) rotate(-180)"/><path class="cls-3" d="M127.67,274s3.75-2.7,2.39-3.62,1.36-1.79-1.38-2-5.22,4.54-7.56,2.82S122.53,275.37,127.67,274Z"/><path class="cls-1" d="M135.36,293.48s1.12-1.6-1.49-2,.42-1.85.42-1.85a7.06,7.06,0,0,0-4.72-1.6c-4.34,0-6.16,4.33-3.06,7.7C131.06,300.69,138.16,294,135.36,293.48Z"/><rect class="cls-2" x="123.65" y="290.44" width="5.04" height="2.05" rx="1.02" transform="translate(252.34 582.93) rotate(-180)"/><path class="cls-3" d="M133,297.09s3.75-2.69,2.4-3.61,1.35-1.8-1.39-2-5.22,4.54-7.56,2.81S127.86,298.52,133,297.09Z"/><path class="cls-1" d="M305.5,174s-1.12,1.59,1.49,2-.42,1.86-.42,1.86a7.12,7.12,0,0,0,4.72,1.6c4.35,0,6.16-4.33,3.06-7.71C309.8,166.77,302.7,173.42,305.5,174Z"/><rect class="cls-2" x="312.17" y="174.97" width="5.04" height="2.05" rx="1.02"/><path class="cls-3" d="M307.87,170.36s-3.75,2.69-2.39,3.62-1.36,1.79,1.38,2,5.22-4.54,7.56-2.81S313,168.93,307.87,170.36Z"/><path class="cls-1" d="M203.35,251.92s-1.11,1.59,1.5,2-.43,1.85-.43,1.85a7.1,7.1,0,0,0,4.73,1.6c4.34,0,6.16-4.33,3.06-7.7C207.66,244.71,200.56,251.36,203.35,251.92Z"/><rect class="cls-2" x="210.02" y="252.91" width="5.04" height="2.05" rx="1.02"/><path class="cls-3" d="M205.73,248.3s-3.75,2.7-2.4,3.62-1.36,1.79,1.39,2,5.22-4.54,7.56-2.81S210.86,246.88,205.73,248.3Z"/><path class="cls-1" d="M92,298.29s-1.11,1.59,1.49,2-.42,1.86-.42,1.86a7.15,7.15,0,0,0,4.72,1.6c4.35,0,6.16-4.33,3.07-7.71C96.32,291.08,89.22,297.73,92,298.29Z"/><rect class="cls-2" x="98.68" y="299.28" width="5.04" height="2.05" rx="1.02"/><path class="cls-3" d="M94.39,294.67s-3.75,2.7-2.4,3.62-1.36,1.79,1.39,2,5.21-4.54,7.56-2.81S99.52,293.24,94.39,294.67Z"/><path class="cls-1" d="M212.33,302.11s-1.12,1.59,1.49,2-.42,1.86-.42,1.86a7.12,7.12,0,0,0,4.72,1.6c4.35,0,6.16-4.33,3.06-7.71C216.63,294.9,209.53,301.55,212.33,302.11Z"/><rect class="cls-2" x="219" y="303.1" width="5.04" height="2.05" rx="1.02"/><path class="cls-3" d="M214.7,298.49s-3.75,2.7-2.4,3.62-1.35,1.79,1.39,2,5.22-4.54,7.56-2.81S219.83,297.06,214.7,298.49Z"/><path class="cls-1" d="M242.79,268.68s-1.11,1.59,1.5,2-.43,1.86-.43,1.86a7.15,7.15,0,0,0,4.72,1.6c4.35,0,6.17-4.33,3.07-7.71C247.1,261.47,240,268.12,242.79,268.68Z"/><rect class="cls-2" x="249.46" y="269.67" width="5.04" height="2.05" rx="1.02"/><path class="cls-3" d="M245.17,265.06s-3.75,2.69-2.4,3.62-1.36,1.79,1.39,2,5.22-4.54,7.56-2.81S250.3,263.63,245.17,265.06Z"/><path class="cls-1" d="M122.7,214.22s1.12-1.59-1.49-2,.42-1.86.42-1.86a7.15,7.15,0,0,0-4.72-1.6c-4.35,0-6.16,4.33-3.07,7.71C118.4,221.43,125.49,214.78,122.7,214.22Z"/><rect class="cls-2" x="110.99" y="211.19" width="5.04" height="2.05" rx="1.02" transform="translate(227.02 424.42) rotate(180)"/><path class="cls-3" d="M120.33,217.84s3.75-2.69,2.39-3.62,1.36-1.79-1.38-2-5.22,4.54-7.56,2.81S115.19,219.27,120.33,217.84Z"/><path class="cls-1" d="M179.08,227.56s1.12-1.59-1.49-2,.42-1.86.42-1.86a7.15,7.15,0,0,0-4.72-1.6c-4.35,0-6.16,4.33-3.07,7.71C174.78,234.77,181.87,228.12,179.08,227.56Z"/><rect class="cls-2" x="167.37" y="224.53" width="5.04" height="2.05" rx="1.02" transform="translate(339.77 451.1) rotate(180)"/><path class="cls-3" d="M176.71,231.18s3.75-2.69,2.39-3.62,1.36-1.79-1.38-2-5.22,4.54-7.56,2.81S171.57,232.61,176.71,231.18Z"/><path class="cls-1" d="M213.1,224.79s1.11-1.6-1.5-2,.43-1.85.43-1.85a7.09,7.09,0,0,0-4.72-1.6c-4.35,0-6.17,4.33-3.07,7.7C208.79,232,215.89,225.34,213.1,224.79Z"/><rect class="cls-2" x="201.38" y="221.75" width="5.04" height="2.05" rx="1.02" transform="translate(407.81 445.55) rotate(-180)"/><path class="cls-3" d="M210.72,228.4s3.75-2.69,2.4-3.61,1.36-1.8-1.39-2-5.22,4.54-7.56,2.81S205.59,229.83,210.72,228.4Z"/><path class="cls-1" d="M150.68,189s1.12-1.59-1.49-2,.42-1.86.42-1.86a7.12,7.12,0,0,0-4.72-1.6c-4.35,0-6.16,4.33-3.06,7.71C146.38,196.2,153.48,189.55,150.68,189Z"/><rect class="cls-2" x="138.97" y="185.96" width="5.04" height="2.05" rx="1.02" transform="translate(282.98 373.96) rotate(180)"/><path class="cls-3" d="M148.31,192.61s3.75-2.7,2.4-3.62,1.35-1.79-1.39-2-5.22,4.54-7.56,2.81S143.18,194,148.31,192.61Z"/><path class="cls-1" d="M185.71,257.19s1.12-1.59-1.49-2,.42-1.86.42-1.86a7.12,7.12,0,0,0-4.72-1.6c-4.34,0-6.16,4.33-3.06,7.71C181.41,264.4,188.51,257.75,185.71,257.19Z"/><rect class="cls-2" x="174" y="254.16" width="5.04" height="2.05" rx="1.02" transform="translate(353.05 510.36) rotate(-180)"/><path class="cls-3" d="M183.34,260.81s3.75-2.7,2.4-3.62,1.35-1.79-1.39-2-5.22,4.54-7.56,2.81S178.21,262.24,183.34,260.81Z"/><path class="cls-1" d="M158.91,286.2s1.12-1.59-1.49-2,.42-1.85.42-1.85a7.15,7.15,0,0,0-4.72-1.6c-4.35,0-6.16,4.33-3.07,7.7C154.61,293.41,161.7,286.76,158.91,286.2Z"/><rect class="cls-2" x="147.19" y="283.16" width="5.04" height="2.05" rx="1.02" transform="translate(299.43 568.37) rotate(-180)"/><path class="cls-3" d="M156.54,289.82s3.75-2.7,2.39-3.62,1.36-1.79-1.38-2-5.22,4.54-7.56,2.82S151.4,291.24,156.54,289.82Z"/><path class="cls-1" d="M70.56,198.52s-1.12,1.59,1.49,2-.42,1.86-.42,1.86a7.12,7.12,0,0,0,4.72,1.6c4.35,0,6.16-4.33,3.07-7.71C74.86,191.31,67.76,198,70.56,198.52Z"/><rect class="cls-2" x="77.23" y="199.51" width="5.04" height="2.05" rx="1.02"/><path class="cls-3" d="M72.93,194.9s-3.75,2.7-2.39,3.62-1.36,1.79,1.38,2,5.22-4.54,7.56-2.81S78.07,193.47,72.93,194.9Z"/><path class="cls-1" d="M79,164.31s-1.12,1.59,1.49,2-.42,1.86-.42,1.86a7.12,7.12,0,0,0,4.72,1.6c4.35,0,6.16-4.33,3.06-7.71C83.3,157.1,76.2,163.75,79,164.31Z"/><rect class="cls-2" x="85.67" y="165.3" width="5.04" height="2.05" rx="1.02"/><path class="cls-3" d="M81.37,160.69s-3.75,2.69-2.4,3.62-1.35,1.79,1.39,2,5.22-4.54,7.56-2.81S86.5,159.26,81.37,160.69Z"/><path class="cls-1" d="M200.89,170.39s1.12-1.59-1.49-2,.42-1.86.42-1.86a7.12,7.12,0,0,0-4.72-1.6c-4.34,0-6.16,4.33-3.06,7.71C196.59,177.6,203.69,171,200.89,170.39Z"/><rect class="cls-2" x="189.18" y="167.36" width="5.04" height="2.05" rx="1.02" transform="translate(383.4 336.76) rotate(180)"/><path class="cls-3" d="M198.52,174s3.75-2.69,2.4-3.62,1.35-1.79-1.39-2-5.22,4.54-7.56,2.81S193.39,175.44,198.52,174Z"/><path class="cls-1" d="M181.68,306.23s1.12-1.59-1.49-2,.42-1.86.42-1.86a7.15,7.15,0,0,0-4.72-1.6c-4.35,0-6.16,4.33-3.07,7.71C177.38,313.44,184.47,306.79,181.68,306.23Z"/><rect class="cls-2" x="169.97" y="303.2" width="5.04" height="2.05" rx="1.02" transform="translate(344.97 608.44) rotate(180)"/><path class="cls-3" d="M179.31,309.85s3.75-2.7,2.39-3.62,1.36-1.79-1.38-2-5.22,4.54-7.56,2.81S174.17,311.28,179.31,309.85Z"/><path class="cls-1" d="M43.94,237.81s-1.12,1.6,1.49,2-.42,1.85-.42,1.85a7.06,7.06,0,0,0,4.72,1.6c4.35,0,6.16-4.33,3.06-7.7C48.24,230.6,41.14,237.26,43.94,237.81Z"/><rect class="cls-2" x="50.61" y="238.8" width="5.04" height="2.05" rx="1.02"/><path class="cls-3" d="M46.31,234.2s-3.75,2.69-2.39,3.61-1.36,1.8,1.38,2,5.22-4.54,7.56-2.81S51.45,232.77,46.31,234.2Z"/><path class="cls-1" d="M1,166.81s-1.12,1.6,1.49,2-.42,1.85-.42,1.85a7.06,7.06,0,0,0,4.72,1.6c4.35,0,6.16-4.33,3.06-7.7C5.31,159.6-1.79,166.26,1,166.81Z"/><rect class="cls-2" x="7.68" y="167.8" width="5.04" height="2.05" rx="1.02"/><path class="cls-3" d="M3.38,163.2S-.37,165.89,1,166.81s-1.36,1.8,1.38,2,5.22-4.54,7.56-2.81S8.52,161.77,3.38,163.2Z"/><path class="cls-1" d="M12.67,204.19s-1.12,1.59,1.49,2-.42,1.86-.42,1.86a7.08,7.08,0,0,0,4.72,1.59c4.34,0,6.16-4.33,3.06-7.7C17,197,9.87,203.63,12.67,204.19Z"/><rect class="cls-2" x="19.34" y="205.17" width="5.04" height="2.05" rx="1.02"/><path class="cls-3" d="M15,200.57s-3.75,2.69-2.4,3.62-1.36,1.79,1.39,2,5.22-4.54,7.56-2.81S20.17,199.14,15,200.57Z"/><path class="cls-1" d="M43.3,168.13s-1.12,1.6,1.49,2-.42,1.86-.42,1.86a7.08,7.08,0,0,0,4.72,1.59c4.35,0,6.16-4.33,3.06-7.7C47.6,160.92,40.5,167.58,43.3,168.13Z"/><rect class="cls-2" x="49.97" y="169.12" width="5.04" height="2.05" rx="1.02"/><path class="cls-3" d="M45.67,164.52s-3.75,2.69-2.39,3.61-1.36,1.8,1.38,2,5.22-4.54,7.56-2.81S50.8,163.09,45.67,164.52Z"/><path class="cls-1" d="M112.41,164.64s-1.36,1.39,1.14,2.22-.72,1.76-.72,1.76a7.14,7.14,0,0,0,4.39,2.36c4.29.75,6.79-3.26,4.29-7.1C117.84,158.23,109.75,163.63,112.41,164.64Z"/><rect class="cls-2" x="118.62" y="167.11" width="5.04" height="2.05" rx="1.02" transform="translate(29.29 -17.63) rotate(9.46)"/><path class="cls-3" d="M115.34,161.46s-4.14,2-3,3.18-1.64,1.54,1,2.2,5.9-3.62,7.92-1.53S120.65,160.9,115.34,161.46Z"/></g></g></g></svg>