<svg xmlns="http://www.w3.org/2000/svg" viewBox="0 0 320.56 293.98"><defs><style>.cls-1{fill:#5b110e;}.cls-1,.cls-2{stroke:#9b4f23;stroke-miterlimit:10;stroke-width:0.25px;}.cls-2{fill:#2c170c;}</style></defs><title>chicken</title><g id="Layer_2" data-name="Layer 2"><g id="Chicken_Pizza" data-name="Chicken Pizza"><g id="Chicken"><path class="cls-1" d="M252.27,268s-16.08-1.44-13.06,7.18,8,3.7,8,3.7S262.31,271.6,252.27,268Z"/><path class="cls-2" d="M250.38,267s-13.82-1.24-11.23,6.17,6.91,3.17,6.91,3.17S259,270.15,250.38,267Z"/><path class="cls-1" d="M124.28,65s-16.07-1.43-13.06,7.18,8,3.7,8,3.7S134.33,68.63,124.28,65Z"/><path class="cls-2" d="M122.39,64.07s-13.81-1.24-11.22,6.17,6.91,3.18,6.91,3.18S131,67.18,122.39,64.07Z"/><path class="cls-1" d="M304.56,114.28s-16.07-1.44-13.06,7.18,8,3.69,8,3.69S314.61,117.9,304.56,114.28Z"/><path class="cls-2" d="M302.67,113.34s-13.81-1.23-11.22,6.17,6.91,3.18,6.91,3.18S311.31,116.46,302.67,113.34Z"/><path class="cls-1" d="M249.33,83.12s-16.08-1.44-13.07,7.18,8,3.69,8,3.69S259.37,86.74,249.33,83.12Z"/><path class="cls-2" d="M247.44,82.18S233.62,81,236.21,88.36s6.91,3.17,6.91,3.17S256.07,85.3,247.44,82.18Z"/><path class="cls-1" d="M258,201.27S242,199.84,245,208.46s8,3.69,8,3.69S268.08,204.9,258,201.27Z"/><path class="cls-2" d="M256.15,200.34s-13.82-1.23-11.23,6.17,6.91,3.18,6.91,3.18S264.78,203.46,256.15,200.34Z"/><path class="cls-1" d="M99.09,172.43S83,171,86,179.62s8,3.69,8,3.69S109.14,176.06,99.09,172.43Z"/><path class="cls-2" d="M97.2,171.5S83.38,170.27,86,177.67s6.91,3.18,6.91,3.18S105.83,174.62,97.2,171.5Z"/><path class="cls-1" d="M179.39,15.79S163.32,14.36,166.33,23s8,3.69,8,3.69S189.44,19.42,179.39,15.79Z"/><path class="cls-2" d="M177.51,14.86S163.69,13.63,166.28,21s6.91,3.18,6.91,3.18S186.14,18,177.51,14.86Z"/><path class="cls-1" d="M317,182.66s-16.08-1.43-13.06,7.18,8,3.7,8,3.7S327,186.29,317,182.66Z"/><path class="cls-2" d="M315.09,181.73s-13.82-1.24-11.23,6.17,6.91,3.18,6.91,3.18S323.72,184.85,315.09,181.73Z"/><path class="cls-1" d="M233.52,114.63s-16.08-1.43-13.06,7.19,8,3.69,8,3.69S243.57,118.26,233.52,114.63Z"/><path class="cls-2" d="M231.63,113.7s-13.81-1.23-11.22,6.17,6.9,3.18,6.9,3.18S240.27,116.82,231.63,113.7Z"/><path class="cls-1" d="M214.94,168.38s-16.08-1.44-13.06,7.18,8,3.7,8,3.7S225,172,214.94,168.38Z"/><path class="cls-2" d="M213.05,167.45s-13.82-1.24-11.23,6.17,6.91,3.17,6.91,3.17S221.68,170.56,213.05,167.45Z"/><path class="cls-1" d="M210.58,259.05s-16.08-1.44-13.07,7.18,8,3.69,8,3.69S220.62,262.67,210.58,259.05Z"/><path class="cls-2" d="M208.69,258.11s-13.82-1.23-11.23,6.17,6.91,3.18,6.91,3.18S217.32,261.23,208.69,258.11Z"/><path class="cls-1" d="M183.79,232.17s-16.07-1.44-13.06,7.18,8,3.7,8,3.7S193.84,235.8,183.79,232.17Z"/><path class="cls-2" d="M181.9,231.23s-13.81-1.23-11.22,6.18,6.91,3.17,6.91,3.17S190.54,234.35,181.9,231.23Z"/><path class="cls-1" d="M127.55,215.59s-16.07-1.44-13.06,7.18,8,3.7,8,3.7S137.6,219.22,127.55,215.59Z"/><path class="cls-2" d="M125.66,214.65s-13.81-1.23-11.22,6.18,6.91,3.17,6.91,3.17S134.3,217.77,125.66,214.65Z"/><path class="cls-1" d="M19.41,170.51s-16.07-1.44-13.06,7.18,8,3.69,8,3.69S29.46,174.13,19.41,170.51Z"/><path class="cls-2" d="M17.53,169.57S3.71,168.34,6.3,175.74s6.91,3.18,6.91,3.18S26.16,172.69,17.53,169.57Z"/><path class="cls-1" d="M50.71,194.5s-16.08-1.44-13.06,7.18,8,3.7,8,3.7S60.76,198.13,50.71,194.5Z"/><path class="cls-2" d="M48.82,193.56S35,192.33,37.6,199.74s6.9,3.17,6.9,3.17S57.46,196.68,48.82,193.56Z"/><path class="cls-1" d="M144.61,233.13s-16.08-1.43-13.06,7.18,8,3.7,8,3.7S154.66,236.76,144.61,233.13Z"/><path class="cls-2" d="M142.72,232.2s-13.82-1.24-11.23,6.17,6.91,3.17,6.91,3.17S151.36,235.31,142.72,232.2Z"/><path class="cls-1" d="M124.61,281.58s-16.08-1.44-13.06,7.18,8,3.7,8,3.7S134.66,285.21,124.61,281.58Z"/><path class="cls-2" d="M122.72,280.65s-13.82-1.24-11.22,6.17,6.9,3.17,6.9,3.17S131.36,283.76,122.72,280.65Z"/><path class="cls-1" d="M105.24,245.57s-16.07-1.43-13.06,7.19,8,3.69,8,3.69S115.29,249.2,105.24,245.57Z"/><path class="cls-2" d="M103.35,244.64s-13.81-1.23-11.22,6.17S99,254,99,254,112,247.76,103.35,244.64Z"/><path class="cls-1" d="M49.52,54.11s-16.07-1.43-13.06,7.18,8,3.7,8,3.7S59.57,57.74,49.52,54.11Z"/><path class="cls-2" d="M47.63,53.18s-13.81-1.24-11.22,6.17,6.91,3.18,6.91,3.18S56.27,56.29,47.63,53.18Z"/><path class="cls-1" d="M64.84,131s-16.07-1.43-13.06,7.18,8,3.7,8,3.7S74.89,134.62,64.84,131Z"/><path class="cls-2" d="M63,130.06s-13.81-1.24-11.22,6.17,6.91,3.18,6.91,3.18S71.59,133.17,63,130.06Z"/><path class="cls-1" d="M87,102s-16.08-1.44-13.07,7.18,8,3.7,8,3.7S97,105.65,87,102Z"/><path class="cls-2" d="M85.11,101.09s-13.82-1.24-11.23,6.17,6.91,3.17,6.91,3.17S93.74,104.2,85.11,101.09Z"/><path class="cls-1" d="M112.45,132.17s-16.08-1.43-13.07,7.19,8,3.69,8,3.69S122.49,135.8,112.45,132.17Z"/><path class="cls-2" d="M110.56,131.24S96.74,130,99.33,137.41s6.91,3.18,6.91,3.18S119.19,134.36,110.56,131.24Z"/><path class="cls-1" d="M110.83,1.14S94.75-.3,97.77,8.32s8,3.69,8,3.69S120.87,4.76,110.83,1.14Z"/><path class="cls-2" d="M108.94.2S95.12-1,97.71,6.37s6.91,3.18,6.91,3.18S117.57,3.32,108.94.2Z"/><path class="cls-1" d="M149.86,36.19s-16.08-1.44-13.06,7.18,8,3.7,8,3.7S159.91,39.82,149.86,36.19Z"/><path class="cls-2" d="M148,35.26S134.15,34,136.74,41.43s6.91,3.17,6.91,3.17S156.6,38.37,148,35.26Z"/><path class="cls-1" d="M83.78,33.83S67.7,32.39,70.72,41s8,3.69,8,3.69S93.83,37.45,83.78,33.83Z"/><path class="cls-2" d="M81.89,32.89s-13.82-1.23-11.23,6.17,6.91,3.18,6.91,3.18S90.52,36,81.89,32.89Z"/><path class="cls-1" d="M13.56,116.07S-2.51,114.63.5,123.25s8,3.7,8,3.7S23.61,119.7,13.56,116.07Z"/><path class="cls-2" d="M11.67,115.13S-2.14,113.9.45,121.31s6.91,3.17,6.91,3.17S20.31,118.25,11.67,115.13Z"/><path class="cls-1" d="M229,58.36s-16.08-1.44-13.06,7.18,8,3.7,8,3.7S239.05,62,229,58.36Z"/><path class="cls-2" d="M227.11,57.42s-13.82-1.23-11.23,6.18,6.91,3.17,6.91,3.17S235.75,60.54,227.11,57.42Z"/><path class="cls-1" d="M211.43,26.7s-16.08-1.43-13.07,7.18,8,3.7,8,3.7S221.47,30.33,211.43,26.7Z"/><path class="cls-2" d="M209.54,25.77s-13.82-1.24-11.23,6.17,6.91,3.18,6.91,3.18S218.17,28.88,209.54,25.77Z"/><path class="cls-1" d="M177.28,53.59s-16.08-1.44-13.06,7.18,8,3.7,8,3.7S187.33,57.22,177.28,53.59Z"/><path class="cls-2" d="M175.39,52.66s-13.81-1.24-11.22,6.17,6.9,3.17,6.9,3.17S184,55.77,175.39,52.66Z"/><path class="cls-1" d="M203.35,80.94s-16.07-1.43-13.06,7.19,8,3.69,8,3.69S213.4,84.57,203.35,80.94Z"/><path class="cls-2" d="M201.46,80s-13.81-1.23-11.22,6.17,6.9,3.18,6.9,3.18S210.1,83.13,201.46,80Z"/><path class="cls-1" d="M151.64,100.48s-16.07-1.44-13.06,7.18,8,3.7,8,3.7S161.69,104.11,151.64,100.48Z"/><path class="cls-2" d="M149.75,99.55s-13.81-1.24-11.22,6.17,6.91,3.17,6.91,3.17S158.39,102.66,149.75,99.55Z"/><path class="cls-1" d="M178,114.4S162,113,165,121.58s8,3.7,8,3.7S188.08,118,178,114.4Z"/><path class="cls-2" d="M176.15,113.47s-13.82-1.24-11.23,6.17,6.91,3.18,6.91,3.18S184.78,116.59,176.15,113.47Z"/><path class="cls-1" d="M147.76,183.38s-16.08-1.44-13.06,7.18,8,3.7,8,3.7S157.81,187,147.76,183.38Z"/><path class="cls-2" d="M145.87,182.45s-13.82-1.24-11.23,6.17,6.91,3.17,6.91,3.17S154.5,185.56,145.87,182.45Z"/><path class="cls-1" d="M189.31,188.93s-16.08-1.44-13.06,7.18,8,3.69,8,3.69S199.36,192.55,189.31,188.93Z"/><path class="cls-2" d="M187.42,188s-13.82-1.23-11.23,6.17,6.91,3.18,6.91,3.18S196.05,191.11,187.42,188Z"/><path class="cls-1" d="M50.3,237.76s-16.07-1.44-13.06,7.18,8,3.7,8,3.7S60.35,241.39,50.3,237.76Z"/><path class="cls-2" d="M48.41,236.82S34.6,235.59,37.19,243s6.91,3.17,6.91,3.17S57.05,239.94,48.41,236.82Z"/></g></g></g></svg>