<svg xmlns="http://www.w3.org/2000/svg" viewBox="0 0 77.53 58.58"><defs><style>.cls-1{fill:#11100e;}.cls-2{fill:#8e8d8d;}.cls-3{fill:#2d2d2b;}.cls-4{fill:#100c0a;}.cls-5{fill:#2c1d10;}.cls-6{fill:#69634b;}.cls-7{fill:#d5e7ea;}.cls-8{fill:#010101;stroke:#fff;stroke-miterlimit:10;}</style></defs><title>i-anchovies</title><g id="Layer_2" data-name="Layer 2"><g id="Anchovies_Pizza" data-name="Anchovies Pizza"><ellipse class="cls-1" cx="42.13" cy="36.42" rx="21.25" ry="35.94" transform="translate(-2.55 69.66) rotate(-77.49)"/><path class="cls-2" d="M32.14,2.38S24,2.14,21.38,4.08-4.55,25,12.5,40.19s44,16.16,49.86,12.4S75.88,42.59,75.17,30,56.71,4.26,32.14,2.38Z"/><path class="cls-3" d="M34.93,12.71s-5.47-.14-7.26,1-17.53,12.6-6,21.77S51.38,45.26,55.35,43,64.49,37,64,29.38,51.54,13.84,34.93,12.71Z"/><path class="cls-4" d="M11.52,0S35.66,10.24,43.07,12,68.12,30.87,68.12,30.87,40.22,17.92,30.53,17.56,7.39,8.75,7.39,8.75,4.31.27,11.52,5C11.52,5,5-.26,11.52,0Z"/><path class="cls-5" d="M9.66,6.67s24.14,10.23,31.55,12,25,18.91,25,18.91-27.9-13-37.58-13.31S5.53,15.41,5.53,15.41,2.45,6.93,9.66,11.7C9.66,11.7,3.16,6.4,9.66,6.67Z"/><path class="cls-6" d="M6.73,15.44S31.82,23.08,39.36,24,66.25,40.19,66.25,40.19s-29.1-9.95-38.77-9.29S3.55,24.56,3.55,24.56s-4-8.11,3.71-4.13C7.26,20.43.24,15.85,6.73,15.44Z"/><path class="cls-7" d="M1.91,32.64s25.77,4.84,32.89,7.5,31.33-1.88,31.33-1.88S35.72,33.6,27.46,28.54,3.31,23.08,3.31,23.08s-7.26,5.35,1.39,5.37C4.7,28.45-3.65,29.26,1.91,32.64Z"/><circle class="cls-8" cx="14.88" cy="3.23" r="0.85"/><circle class="cls-8" cx="12.5" cy="10.2" r="0.85"/><circle class="cls-8" cx="10.15" cy="18.55" r="0.85"/><circle class="cls-8" cx="8.44" cy="26.13" r="0.85"/></g></g></svg>