<svg xmlns="http://www.w3.org/2000/svg" viewBox="0 0 91.44 68.9"><defs><style>.cls-1{fill:#11100e;}.cls-2{fill:#5c2b27;stroke:#cc8851;stroke-miterlimit:10;stroke-width:4px;}.cls-3{fill:#211313;}.cls-4{fill:#253419;}</style></defs><title>i-beef</title><g id="Layer_2" data-name="Layer 2"><g id="Beef_Pizza" data-name="Beef Pizza"><ellipse class="cls-1" cx="45.94" cy="49.83" rx="29.98" ry="13.41"/><path class="cls-2" d="M19.86,9.51S54.46-6.78,75.1,8.62c0,0,10.49,2.68,12.22,4.24s5.52,5.58-4.86,12.05-13,6.25-16.18,3.8-6.44-2.68-9-4.24-4.19,2.68-7.52-2.68c0,0,4.12-1.79-5-.45s-10-1.78-10-1.78-4.27-3.57-12,0,0-3.41,0-3.41-5.16-.16-3.39-1.5-4.94-2.46-4.94-2.46Z"/><path class="cls-3" d="M14.43,11.67s5.17,0,4.93,2.45,28.07-3.63,28.07-3.63S54.46,8,64,15.62s17.26,11.67,25.24,2.52c0,0,3.23-6.11-12.7-9.64A29,29,0,0,1,73.1,6.78c-2-1.16-14.29-9.58-39.72-2.57Z"/><path class="cls-2" d="M18.26,17.46s34.6-16.29,55.24-.89c0,0,10.49,2.68,12.22,4.24s5.52,5.58-4.86,12.06-13,6.24-16.18,3.79-6.45-2.68-9-4.24-4.18,2.68-7.51-2.68c0,0,4.12-1.78-5-.45s-10-1.78-10-1.78-4.27-3.57-12,0,0-3.41,0-3.41-5.16-.16-3.4-1.5-4.93-2.46-4.93-2.46Z"/><path class="cls-3" d="M12.82,21s5.18,0,4.94,2.45,28.07-3.63,28.07-3.63,7-2.52,16.58,5.13,17.26,11.67,25.24,2.52c0,0,3.23-6.11-12.7-9.64a29,29,0,0,1-3.45-1.72c-2-1.16-14.29-9.58-39.72-2.57Z"/><path class="cls-2" d="M11.75,26S46.35,9.68,67,25.08c0,0,10.48,2.68,12.21,4.24s5.53,5.58-4.85,12-13.06,6.25-16.18,3.8-6.45-2.68-9-4.24S45,43.6,41.64,38.25c0,0,4.12-1.79-5-.45s-10-1.78-10-1.78-4.28-3.57-12,0,0-3.41,0-3.41-5.16-.16-3.4-1.5S6.4,28.65,6.4,28.65Z"/><path class="cls-3" d="M6.32,29.53s5.18,0,4.93,2.46,28.07-3.63,28.07-3.63,7-2.52,16.59,5.13S73.16,45.16,81.14,36c0,0,3.24-6.1-12.69-9.63A27.47,27.47,0,0,1,65,24.64c-2-1.15-14.29-9.57-39.72-2.56Z"/><path class="cls-2" d="M17,36.16s34.6-16.3,55.24-.9c0,0,10.49,2.68,12.22,4.24S90,45.08,79.65,51.56s-13.06,6.25-16.19,3.79-6.44-2.68-9-4.24-4.19,2.68-7.51-2.68c0,0,4.11-1.78-5-.44S32,46.2,32,46.2s-4.27-3.57-11.95,0,0-3.41,0-3.41-5.16-.16-3.39-1.5-4.94-2.46-4.94-2.46Z"/><path class="cls-3" d="M11.8,39.24s5.18,0,4.93,2.45S44.8,38.07,44.8,38.07s7-2.52,16.59,5.13,17.25,11.66,25.23,2.51c0,0,3.23-6.11-12.69-9.64a28.11,28.11,0,0,1-3.45-1.72c-2-1.15-14.29-9.57-39.72-2.57Z"/><path class="cls-2" d="M17.15,46.11s34.6-16.29,55.25-.89c0,0,10.48,2.68,12.21,4.24s5.53,5.58-4.85,12-13.06,6.25-16.18,3.8-6.45-2.68-9-4.24S50.36,63.74,47,58.39c0,0,4.12-1.79-5-.45s-10-1.78-10-1.78-4.27-3.57-12,0,0-3.41,0-3.41-5.16-.16-3.4-1.5-4.93-2.46-4.93-2.46Z"/><path class="cls-3" d="M11.8,49.17s5.18,0,4.93,2.12S44.8,48.15,44.8,48.15s7-2.18,16.59,4.44,17.25,10.1,25.23,2.18c0,0,3.23-5.29-12.69-8.34a29.34,29.34,0,0,1-3.45-1.49c-2-1-14.29-8.29-39.72-2.22Z"/><rect class="cls-4" x="57.37" y="56.94" width="5.78" height="2.35"/><rect class="cls-4" x="63.83" y="62.51" width="5.78" height="2.35"/><rect class="cls-4" x="36.61" y="35.9" width="5.78" height="2.35"/><rect class="cls-4" x="28.77" y="35.9" width="5.78" height="2.35" transform="translate(-15.41 49.77) rotate(-64.6)"/><rect class="cls-4" x="66.72" y="21.9" width="3.75" height="1.17"/><rect class="cls-4" x="50.51" y="5.35" width="5.78" height="2.35" transform="translate(5.19 30.39) rotate(-33.3)"/><rect class="cls-4" x="54.79" y="6.87" width="5.47" height="2.74"/></g></g></svg>