<svg xmlns="http://www.w3.org/2000/svg" viewBox="0 0 78.45 68.44"><defs><style>.cls-1{fill:#11100e;}.cls-2,.cls-5{fill:#702012;stroke:#471a10;stroke-miterlimit:10;}.cls-3{fill:#471a10;}.cls-4{fill:#fff;}.cls-5{stroke-width:2px;}</style></defs><title>i-chicken</title><g id="Layer_2" data-name="Layer 2"><g id="Chicken_Pizza" data-name="Chicken Pizza"><ellipse class="cls-1" cx="37.78" cy="40.19" rx="37.78" ry="20.68"/><path class="cls-2" d="M55.75,59.07s-10-2-10.75-12.22L42.08,29.41s1-2.95,2.89-2.69,3.61-6.07,4.49-1.31S53.37,19,53.37,19s-.2-5.56,3.36-4.21,5.18.56,3.89,4.3c0,0,3.84,11.41,2.76,13.71s2.36.78,4.75-.27,11.77-6.92,9.45,2.55a17.9,17.9,0,0,1-4.83,5.5S61.13,63.44,55.75,59.07Z"/><path class="cls-3" d="M67.7,49.34s-9.12,16.39-16.21,8l-4.1-3.69s-2.88-3.12,7.3-2.18A6.49,6.49,0,0,0,60.93,48S72.54,41,67.7,49.34Z"/><path class="cls-4" d="M51.58,49.92S49.81,33.75,48,33,48.63,59.34,51.58,49.92Z"/><path class="cls-2" d="M2,17.12s-.84,9.71,5.54,9.73c0,0,.23,4.5,3.79,3.89s1.76,2.32,6.23,1.57,13,1.67,20.6-6.51c0,0-.26-3.87-2.24-5.12s-4.26-5.11-9.18-5-13.59-4.23-13.59-4.23-8.6-2.94-7.53.61S.8,10.13,2,17.12Z"/><path class="cls-3" d="M21.6,24.59S4.58,31.21,3.75,26l-.83-5.22S20,24.08,21.6,24.59Z"/><path class="cls-4" d="M8.76,21.52s22.63,5.6,18.12,6.79S6.9,23.73,8.76,21.52Z"/><path class="cls-2" d="M42.7,32.1S45.11,42,36.17,47L21.61,57s-3.1.35-3.66-1.48-7-.71-3.09-3.52-7.42-.84-7.42-.84-5,2.52-5.24-1.27S.52,45,4.45,44.58c0,0,8.72-8.3,11.25-8.29s-.28-2.47-2.25-4.19S2.2,24.36,11.77,22.45a18,18,0,0,1,7,2.06S44.39,25.38,42.7,32.1Z"/><path class="cls-2" d="M30.89,2.82s-7,6.75-2.25,11c0,0-2.79,3.54.29,5.43s-.21,2.9,3.65,5.29,8.64,9.78,19.79,8.67c0,0,2.35-3.08,1.68-5.33s.16-6.65-3.62-9.79S43,5.92,43,5.92,38.47-2,36.93,1.42,34.63-3.2,30.89,2.82Z"/><path class="cls-5" d="M32.83,67.42S36,67,36,65.55s2.53-.21,8.58-7S54.75,42.9,50.71,40.72s-9.41,0-9.41,0l-4.07.49s-3.79,1-3.65,4.51l-4.35,2.11s-3.09,5,0,5-1.37,3.78-1.37,3.78-1.66,4.41,0,5.25S28,65.92,32.83,67.42Z"/><path class="cls-3" d="M12.89,30.38s8.16,5.28-2,8.83-3.48,6.2-3.48,6.2l10-2.09s9-4.51,9-7S7.27,23.35,12.89,30.38Z"/><path class="cls-3" d="M40.73,21.38S23.58,15.15,26.39,10.67L29.2,6.2S39.89,20,40.73,21.38Z"/><path class="cls-3" d="M42.27,62.17s-9,7.41-11.24,5.25-6.17-11.11-2.23-12,10.68-4.1,10.68-4.1,7,1.17,6.05,5.29S42.27,62.17,42.27,62.17Z"/><path class="cls-4" d="M48.24,44.46,36.37,61.89S50.06,54,48.24,44.46Z"/><path class="cls-4" d="M33.1,10.61s13.33,19.13,9.15,17.05S30.25,11.05,33.1,10.61Z"/><path class="cls-4" d="M36.17,39.76S22.28,48.2,22.36,50.12,46,38.44,36.17,39.76Z"/></g></g></svg>