<svg xmlns="http://www.w3.org/2000/svg" viewBox="0 0 68 88.8"><defs><style>.cls-1{fill:#11100e;}.cls-2{fill:#c8862a;}.cls-3{fill:#eab520;}.cls-4{fill:#f6cb24;}.cls-5{fill:#fae597;}.cls-6{fill:#76481d;}</style></defs><title>i-cheese</title><g id="Layer_2" data-name="Layer 2"><g id="Cheese_Only" data-name="Cheese Only"><ellipse class="cls-1" cx="34.5" cy="44.89" rx="33.43" ry="43.95" transform="matrix(1, -0.07, 0.07, 1, -3.13, 2.59)"/><path class="cls-2" d="M12.8,0S5.38-.63.78,24.63,13.31,41.32,16.64,42.89s30.18-1.63,35.81-2.74,12-4.82,8.95-21.67c0,0-2.3-16.27-17.14-16.56S12.8,0,12.8,0Z"/><path class="cls-3" d="M15.19,10.55s-7.42-.63-12,24.63S15.7,51.87,19,53.44s30.18-1.63,35.8-2.74,12-4.82,9-21.67c0,0-2.31-16.27-17.14-16.56S15.19,10.55,15.19,10.55Z"/><path class="cls-4" d="M15.19,25.83s-7.42-.64-12,24.63S15.7,67.15,19,68.72,49.21,67.09,54.83,66s12-4.82,9-21.67c0,0-2.31-16.28-17.14-16.56S15.19,25.83,15.19,25.83Z"/><path class="cls-5" d="M15.19,44.42s-7.42-.63-12,24.63S15.7,85.75,19,87.32s30.18-1.63,35.8-2.74,12-4.83,9-21.67c0,0-2.31-16.28-17.14-16.57S15.19,44.42,15.19,44.42Z"/><ellipse class="cls-2" cx="16.38" cy="55.42" rx="2.98" ry="3.33"/><ellipse class="cls-2" cx="25.23" cy="70.93" rx="5.87" ry="4.85"/><ellipse class="cls-2" cx="36.42" cy="57.16" rx="0.77" ry="1.74"/><ellipse class="cls-2" cx="45.3" cy="72.53" rx="4.78" ry="5.34"/><ellipse class="cls-2" cx="45.81" cy="56.59" rx="0.52" ry="0.58"/><ellipse class="cls-2" cx="32.86" cy="81.47" rx="1.77" ry="0.86"/><ellipse class="cls-2" cx="11.44" cy="75.2" rx="2.39" ry="2.67"/><ellipse class="cls-2" cx="58.64" cy="67.27" rx="3.55" ry="6.91"/><ellipse class="cls-2" cx="27.76" cy="52.4" rx="0.8" ry="0.89"/><ellipse class="cls-2" cx="20.95" cy="83.04" rx="0.64" ry="0.71"/><ellipse class="cls-2" cx="52.46" cy="83.45" rx="2.38" ry="1.13"/><ellipse class="cls-2" cx="18.34" cy="41.11" rx="1.96" ry="2.19"/><ellipse class="cls-2" cx="27.63" cy="33.99" rx="2.4" ry="1.78"/><ellipse class="cls-2" cx="41.76" cy="41.07" rx="4.57" ry="3.36"/><ellipse class="cls-2" cx="53.77" cy="43.42" rx="1.32" ry="1.47"/><ellipse class="cls-2" cx="15.66" cy="30.3" rx="0.72" ry="0.81"/><ellipse class="cls-2" cx="45.19" cy="34.12" rx="0.11" ry="0.12"/><ellipse class="cls-2" cx="60.53" cy="46.99" rx="0.58" ry="0.65"/><ellipse class="cls-2" cx="19.33" cy="16.6" rx="0.98" ry="1.1"/><ellipse class="cls-2" cx="31.89" cy="23.74" rx="1.87" ry="2.08"/><ellipse class="cls-2" cx="43.58" cy="20.17" rx="5.12" ry="3.57"/><ellipse class="cls-2" cx="27.29" cy="15.13" rx="0.34" ry="0.37"/><path class="cls-2" d="M13.84,21.66h0Z"/><ellipse class="cls-2" cx="54.71" cy="24.78" rx="0.93" ry="1.04"/><ellipse class="cls-6" cx="17.07" cy="4.08" rx="3.24" ry="1.14"/><ellipse class="cls-6" cx="25.74" cy="4.65" rx="0.51" ry="0.57"/><ellipse class="cls-6" cx="36.42" cy="8.08" rx="0.77" ry="0.86"/><ellipse class="cls-6" cx="7.56" cy="8.89" rx="1.49" ry="1.66"/><ellipse class="cls-6" cx="47.61" cy="6.65" rx="1.28" ry="1.43"/><ellipse class="cls-6" cx="55.66" cy="12.65" rx="1.88" ry="2.1"/></g></g></svg>