<svg xmlns="http://www.w3.org/2000/svg" viewBox="0 0 74.71 48.95"><defs><style>.cls-1{fill:#11100e;}.cls-2{fill:#d2a46b;}.cls-3{fill:#c48140;}.cls-4{fill:#e1cbaa;}.cls-5{fill:#b9885a;}</style></defs><title>i-mushroom</title><g id="Layer_2" data-name="Layer 2"><g id="Mushrooms"><ellipse class="cls-1" cx="37.35" cy="27.95" rx="37.35" ry="16.71"/><path class="cls-2" d="M11.92,11.12s-4.87,3.48-3.2,7.79c0,0-2.36,3.62-4.59,4.31,0,0,2,6.26,3.2,6.26,0,0,1.53-4.31,4.59-5l.7-.83s-.7,2.08,5.14,2.08c0,0,5.56-.55,5-7.78C22.77,17.94,19.15,7.51,11.92,11.12Z"/><path class="cls-2" d="M17.48,39.63s3.38-2.62,0-8.48c0,0-7.51-4.45-13.35,2.78,0,0-6.53,5.42.84,10.84,0,0,5,1.81,6.26,0,0,0,3.06,1.95,3.19,3.62,0,0,.56,1.25,2.65,0s5.14-2.78,5.14-2.78,1-1.39,0-1.67C22.21,43.94,20.13,44.5,17.48,39.63Z"/><path class="cls-2" d="M24.44,34.35s-3.34,4.06-3.2,5,6.81,4.71,6.81,4.71.28-2.64,3.62-6.4c0,0,.69,2.09,1.8.84,0,0,5.71.41,6-6.4,0,0-2.92-8.2-11.12-8.48S21.38,34.35,24.44,34.35Z"/><path class="cls-3" d="M49.33,35.74a16.12,16.12,0,0,1,0,3.63c-.28.54,6.81,4.15,9.31,2.21,0,0,1.39.69,0-5,0,0,5.43-.48,7.23-6.78,0,0,.42-9.21-10.29-10.46,0,0-14.6-1.1-12.37,11.41C43.21,30.74,46.41,36.57,49.33,35.74Z"/><path class="cls-4" d="M22.15,29s-1.06,4,6,5.15h1.46s1.3,2.71,2.77,2.5c0,0,6.06.32,6.72-5.4,0,0-2.24-6.76-9.27-7.46C29.8,23.78,24.1,21.83,22.15,29Z"/><path class="cls-5" d="M24.85,31.36S26,29,27.36,29.79c0,0,1.32.31-.28,1.57s-5.38,6.78-5.38,6.78l5.24,3.64L31.88,31.7a1.53,1.53,0,0,1,1,2.51s-1.45,1.54.35,1.5c0,0,3-2.62,0-4.21a5.61,5.61,0,0,0-2.86-.77c-1.66,0-.9-.28-1.25-.63,0,0-.62-1.18-2.92-1.11S24,32.61,24.85,31.36Z"/><path class="cls-4" d="M4.71,44.63S8.38,48,13.25,42.19L14,40.85s3.55.41,4.08-1.07a6.76,6.76,0,0,0-2.28-9.39S7.47,28.44,3.11,34.5C3.11,34.5-1.89,38.58,4.71,44.63Z"/><path class="cls-4" d="M8.86,12.65s-3.3,3.17,2,8.12l1.25.8s-.53,3.27.85,3.88c0,0,5,3.6,9-1.44,0,0,2.17-7.61-3.41-12.11C18.54,11.9,14.85,7,8.86,12.65Z"/><path class="cls-5" d="M9.14,43.22s-1.81-2.06-.46-3.15c0,0,2.83-.75,3.37,1.37s4.18,5.77,4.18,5.77l6.14-3.09L19.9,42.91l-.09-.06-2-2.84a2,2,0,0,0-.69-.6l-2-1.66s-3.48-3.4.12-1.49c0,0,.88,2.08,1.59.24,0,0-1.27-4.08-4.06-1.68a6.42,6.42,0,0,0-1.94,2.59c-.69,1.69-.64.8-1.12,1,0,0-1.41.16-2.3,2.51S10,44.64,9.14,43.22Z"/><path class="cls-5" d="M9.66,16.92s1.94-1.75,2.91-.47c0,0,1.1.79-.86,1.33s-7,5.17-7,5.17l2.5,4.4,1.22-1.43a24.72,24.72,0,0,1,6.78-5.56L16,20a1.52,1.52,0,0,1-.07,2.68s-1.93.87-.25,1.53c0,0,3.77-1.26,1.62-3.89A5.6,5.6,0,0,0,15,18.46c-1.54-.64-.73-.6-.91-1.06,0,0-.13-1.33-2.27-2.15S8.34,17.73,9.66,16.92Z"/><path class="cls-2" d="M49.33,35.74s-6.66-.28-6.11-9.67S62.11,18,64.48,24.53c0,0,5.84,9.19-5.84,12,0,0,2.23-.84,1.74-2.51s-1.25-2.15-1.46-2.22-2.92.06-3.68-1.11-1.74.63-1.74.63a13.84,13.84,0,0,1-2.64-.63,1.46,1.46,0,0,0-2,1.18s-1,1.05-1.18.49-1,1.25.41,1.46S49.33,35.74,49.33,35.74Z"/><path class="cls-3" d="M58.43,12.16l-2.08,3.62s1.74,3.2,3,3.55c0,0,2.5,2,3.06,1.9a7.67,7.67,0,0,0,1.94-1.31Z"/><path class="cls-3" d="M39.8,15.92s-.59,2.3,2.59,2.16a2,2,0,0,1,1.17,0l1-1.08s.83-.17.9-1.5S39.8,15.92,39.8,15.92Z"/><path class="cls-2" d="M37.23,1.53s-9.87,9-1.53,14.88a12.23,12.23,0,0,0,4.45,1.11l5.42-1.25s5.7-2.23,6.82-6.4c0,0,1.25-8.06-9.46-9.87C42.93,0,38.55.14,37.23,1.53Z"/><path class="cls-2" d="M55.58,8.06s0,4.18,1.81,5.85,6.26,8.2,11.82,7.23c0,0,6.26-1.39,5.42-8.07S63.23,2,60.59,3.34C60.59,3.34,56.28,4.59,55.58,8.06Z"/></g></g></svg>