<svg xmlns="http://www.w3.org/2000/svg" viewBox="0 0 83 99.39"><defs><style>.cls-1{fill:#11100e;}.cls-2{fill:#101c10;}.cls-3{fill:#1b2f18;}.cls-4{fill:#424f22;}.cls-5{fill:#563c15;}.cls-6{fill:#8a6528;}.cls-7{fill:#b2892e;}</style></defs><title>i-olives</title><g id="Layer_2" data-name="Layer 2"><g id="Olives_Pizza" data-name="Olives Pizza"><ellipse class="cls-1" cx="40.55" cy="52.66" rx="23.22" ry="38.2" transform="translate(-24.89 41.03) rotate(-42.32)"/><path class="cls-2" d="M67.9,99.39S36.41,79.3,43.34,65.68s20.54,0,20.54,0S69.2,65.34,67.9,99.39Z"/><path class="cls-3" d="M83,84S46.51,76,48.31,60.83,67.6,53.74,67.6,53.74,72.47,51.58,83,84Z"/><path class="cls-2" d="M0,22s37.06-4.71,40.45,10.19S24.66,45.28,24.66,45.28,20.79,49,0,22Z"/><path class="cls-3" d="M22.25,0s24.93,27.81,14.6,39.07-19.79-5.52-19.79-5.52S11.85,32.45,22.25,0Z"/><path class="cls-4" d="M45.4,6.6s5.54,36.94-9.28,40.67-13.5-15.5-13.5-15.5S18.88,28,45.4,6.6Z"/><ellipse class="cls-5" cx="49.13" cy="27.17" rx="7.66" ry="10.74" transform="translate(-3.14 47.66) rotate(-50.35)"/><ellipse class="cls-5" cx="55.79" cy="54.59" rx="7.66" ry="10.74" transform="translate(-21.84 62.71) rotate(-50.35)"/><ellipse class="cls-5" cx="62.28" cy="44.24" rx="7.66" ry="10.74" transform="translate(-11.52 63.96) rotate(-50.35)"/><ellipse class="cls-6" cx="52.67" cy="53.26" rx="7.66" ry="10.74" transform="translate(-21.94 59.83) rotate(-50.35)"/><ellipse class="cls-6" cx="32.11" cy="36.21" rx="7.66" ry="10.74" transform="translate(-16.26 37.83) rotate(-50.35)"/><ellipse class="cls-5" cx="23.55" cy="45.95" rx="7.66" ry="10.74" transform="translate(-26.86 34.76) rotate(-50.35)"/><ellipse class="cls-6" cx="32.11" cy="60.68" rx="7.66" ry="10.74" transform="translate(-35.1 46.68) rotate(-50.35)"/><ellipse class="cls-6" cx="49.13" cy="33.35" rx="7.66" ry="10.74" transform="translate(-7.89 49.9) rotate(-50.35)"/><ellipse class="cls-6" cx="58.42" cy="41.04" rx="7.66" ry="10.74" transform="matrix(0.64, -0.77, 0.77, 0.64, -10.46, 59.83)"/><ellipse class="cls-6" cx="48.25" cy="69.72" rx="7.66" ry="10.74" transform="translate(-36.22 62.38) rotate(-50.35)"/><ellipse class="cls-5" cx="34.87" cy="74.74" rx="10.74" ry="7.66" transform="translate(-45.65 92.59) rotate(-77.49)"/><ellipse class="cls-7" cx="46.18" cy="36.91" rx="7.66" ry="11.58" transform="translate(-11.71 48.91) rotate(-50.35)"/><ellipse class="cls-7" cx="40.91" cy="63.99" rx="10.21" ry="7.66" transform="matrix(0.35, -0.94, 0.94, 0.35, -33.39, 79.72)"/><ellipse class="cls-7" cx="38.64" cy="48.44" rx="7.66" ry="10.74" transform="translate(-23.31 47.28) rotate(-50.35)"/><ellipse class="cls-7" cx="62.28" cy="29.42" rx="7.66" ry="10.74" transform="matrix(0.64, -0.77, 0.77, 0.64, -0.11, 58.6)"/></g></g></svg>