<svg xmlns="http://www.w3.org/2000/svg" viewBox="0 0 95.66 66.47"><defs><style>.cls-1{fill:#11100e;}.cls-2{fill:#cd3d27;}.cls-3{fill:#f3e5d8;}.cls-4,.cls-5,.cls-7{fill:none;}.cls-4{stroke:#b36528;}.cls-4,.cls-7{stroke-miterlimit:10;}.cls-6{fill:#b13024;}.cls-7{stroke:#56160a;}</style></defs><title>i-onion</title><g id="Layer_2" data-name="Layer 2"><g id="Onions_Pizza" data-name="Onions Pizza"><ellipse class="cls-1" cx="50.38" cy="52.28" rx="31" ry="13.87"/><path class="cls-2" d="M16.24.37a1.16,1.16,0,0,0-1.12.88c-.23.9-1.12,4.3-2.29,5.64S11,9.13,10.65,9.41,4.12,15.27,4.12,15.6c0,0-3.54,5-3.51,7.62A14,14,0,0,0,0,27.16,30.35,30.35,0,0,0,2.78,39.84c3.07,7,10.33,11.83,13,12.23,0,0,11.25,3.28,15.93,3.14l15-18,5-24.1S47.84,5.43,37.55,3.14c0,0-17,6.49-17.82-1Z"/><path class="cls-3" d="M16,.69s.45,5.59-2.46,6.93c0,0-16.08,11.61-13.18,21.66S7.3,48.49,18.91,52.07s16.53,3.57,16.53,3.57h2.9A1.68,1.68,0,0,0,39,54.41c.12-.89,1.34,0,1.34,0s1.68-.11,1.57-1.67,1.45-.23,1.45-.23,2-.33,1.67-1.67,12.74-21.78,7.6-36.3c0,0-8.76-15.3-25.71-11.39,0,0-3.33.56-4.89-1,0,0,.78-.67-2.57-1.46C19.47.69,16.79-.87,16,.69Z"/><path class="cls-4" d="M13.89,9.41S1,28.17,10.2,39.45c0,0,7.26,8.26,21.67,12.39"/><path class="cls-4" d="M14.72,13.18S6.53,29.84,13.34,37.65c0,0,9.11,10.37,20,12.37"/><path class="cls-4" d="M17.65,16.08s-6.9,14-1.16,20.62c0,0,7.67,8.73,16.81,10.42"/><path class="cls-4" d="M22,16.08S15.52,32.75,33.3,41.34"/><path class="cls-5" d="M26.2,4.3S48.75,7.13,51.12,21.47c0,0,1.37,10.91-5.1,24.43"/><path class="cls-4" d="M28.46,7.43s17.91,4.92,19.23,15.2c0,0,1.72,13.69-4,23.14"/><path class="cls-4" d="M28.69,11.55s15.08,4.14,16.2,12.8c0,0,1.44,11.53-3.35,19.49"/><path class="cls-4" d="M25.83,14.77S42.58,21,37.22,40"/><path class="cls-2" d="M73.19,12.42a25.78,25.78,0,0,0-17.09.76c-7,3-7.31,3.46-7.45,3.79,0,.11-3.49,3.84-3.55,3.94A29.69,29.69,0,0,0,38,33.53c-1.85,6.94.6,14.78,7.08,20.43,5.09,4.45,8.21,8,18,11.51s19.54-3.13,20.43-3.35S92.84,56,95.41,41.34c0,0,2.57-12.17-8.71-21.88C86.7,19.46,79.11,14.43,73.19,12.42Z"/><path class="cls-6" d="M68.16,14.77s5.81,5,11.06,0c0,0-5.25-4.36-3.69-6.59,0,0-4,0-4,.56s-.79,2.45-2,.67c0,0,.73-.9-1.39,0s0-2.46,0-2.46S64.25,10.3,65.7,5.61c0,0,1.78-2.23,3.85-2.23l5.09-1.57s3.13-1.23,4,3.46c0,0-.34.56,1.79.9s5.91,5.13,5.91,5.13A21.21,21.21,0,0,1,86.92,17c-.22,2.45-1.37,6.47,0,7.47S75.87,30.52,68.16,14.77Z"/><path class="cls-7" d="M85.47,29.73s4.13,29-16.08,33.84"/><path class="cls-7" d="M80.61,27.82s4.13,29-16.08,33.84"/><path class="cls-7" d="M89.68,29.73s4.13,29-16.09,33.84"/><path class="cls-7" d="M77.61,27.63S71.77,56.14,61.34,58.25"/><path class="cls-7" d="M67.76,19.35s-27.18,11-21.17,30.91"/><path class="cls-7" d="M70.69,23.43s-27.18,11-21.17,30.91"/><path class="cls-7" d="M63.32,16.14s-27.17,11-21.17,30.91"/><path class="cls-7" d="M72.08,25.15S50.67,44.85,54.24,54.87"/></g></g></svg>