<svg xmlns="http://www.w3.org/2000/svg" viewBox="0 0 76.11 90.83"><defs><style>.cls-1{fill:#11100e;}.cls-2{fill:#8e8d8d;}.cls-3{fill:#2d2d2b;}.cls-4{fill:#253419;}.cls-5{fill:#d99ca2;stroke:#ad5244;stroke-miterlimit:10;stroke-width:2px;}.cls-6{fill:#91b343;}.cls-7{fill:#3f5a2a;}.cls-8{fill:#223218;}</style></defs><title>i-other</title><g id="Layer_2" data-name="Layer 2"><g id="Others_Pizza" data-name="Others Pizza"><ellipse class="cls-1" cx="33.49" cy="48.8" rx="27.35" ry="46.26" transform="translate(-20.44 24.42) rotate(-31.21)"/><path class="cls-2" d="M56.25,9.22S49.27,1.48,45.1.74,2.61-4.8,3.62,24.59,27.7,79.87,36.43,82s21.33,3.69,32.4-8.16S76.36,33.75,56.25,9.22Z"/><path class="cls-3" d="M49.13,21s-4.73-5.21-7.42-5.84S14.41,10.08,16.12,29s17.37,36.3,23,38,13.74,3.14,20.37-4.06S62.85,37.47,49.13,21Z"/><rect class="cls-4" x="56.82" y="54.12" width="9.4" height="3.81"/><rect class="cls-4" x="42.73" y="46.89" width="9.4" height="3.81"/><rect class="cls-4" x="47.43" y="37.8" width="9.4" height="3.81"/><rect class="cls-4" x="24.09" y="54.24" width="9.4" height="3.81"/><rect class="cls-4" x="44.61" y="61.46" width="9.4" height="3.81"/><rect class="cls-4" x="11.34" y="22.88" width="9.4" height="3.81"/><rect class="cls-4" x="24.09" y="41.3" width="9.4" height="3.81"/><circle class="cls-5" cx="33.59" cy="44.49" r="16.91"/><circle class="cls-5" cx="33.59" cy="39.72" r="16.91"/><circle class="cls-5" cx="33.59" cy="35.25" r="16.91"/><circle class="cls-5" cx="33.59" cy="30.49" r="16.91"/><circle class="cls-5" cx="33.49" cy="24.39" r="16.91"/><path class="cls-6" d="M35.27,68s6.37-13.83,0-22.77,8.11-7,8.11-7l16.95,1.84s16.54,3.29-4,21.23L46.61,74.84S35.08,72,35.27,68Z"/><path class="cls-7" d="M38.35,67.67s2.59-14.83,1-19.24C39.35,48.43,43.72,56.54,38.35,67.67Z"/><path class="cls-7" d="M41.27,70.06s4.41-14.4,3.38-19C44.65,51.08,48,59.68,41.27,70.06Z"/><path class="cls-7" d="M45.9,72.12s3.77-14.58,7-17.94C52.94,54.18,45.61,59.76,45.9,72.12Z"/><path class="cls-8" d="M68.67,29.07s-8.47-7.27-13-5.93S45.94,26,45.94,26A8.64,8.64,0,0,0,42,25.16c-2.4,0-4,1.29-4.64.87a1.79,1.79,0,0,0-1.56,0l-1.34,3-4.25,2.57a10.43,10.43,0,0,0-3.14,3.13c-.22.68,1.12-.08,0,2s-1.79.83-2,2.9a9.7,9.7,0,0,0,0,3l-.1,2h3.23l2.46-1.11,2,.22,1.59.89h2.24l.67.9,3.35,2H42s2.18,0,1.57.91S45,51.07,45,51.07h1.85l4.34,1.15,2.2,1h1l2.49.91s2.9.12,4.19,1.23a6.06,6.06,0,0,1,1.63,1.92l4.48.73,3-.73h1.56l.61-1.17,1.2-1.73.83-1.16V51.1a2.89,2.89,0,0,0,.35-2L74.45,48l1.66-6.28-.24-1.22-1.52-2.9-2-2.8V32.31l-1.58-2.23Z"/></g></g></svg>