<svg xmlns="http://www.w3.org/2000/svg" viewBox="0 0 93.28 77.33"><defs><style>.cls-1{fill:#11100e;}.cls-2{fill:#9e1c20;}.cls-3{fill:#d32027;}.cls-4{fill:#e31e26;}.cls-5{fill:#79933b;}.cls-6{fill:#fff;}.cls-7{fill:#ed2024;}.cls-8{fill:#b11f24;}</style></defs><title>i-peppers</title><g id="Layer_2" data-name="Layer 2"><g id="Peppers_Pizza" data-name="Peppers Pizza"><g id="Peppers"><ellipse class="cls-1" cx="61.88" cy="64.33" rx="29.05" ry="13"/><path class="cls-2" d="M70.35,61.21s5.26,0,10.74-7.36a12.43,12.43,0,0,0,2.73-6.32S87,37,83.82,31.11c0,0-2.83-6.94-8.89-7.79,0,0-19.82-1.2-23.67,2.14s-19.43,9.86-19.43,9.86L26.15,45.43S66.85,62.22,70.35,61.21Z"/><path class="cls-3" d="M11.62,46.69S2.15,60.16,16.68,69.21c0,0,4,2.53,5.68,3.79,0,0,2.31,2.74,16.42,0S51.2,54.9,51.2,54.9s.42-8.21-11-12.21-14.73-6.41-21.68-1.21C18.57,41.48,13.6,42.7,11.62,46.69Z"/><path class="cls-4" d="M17.1,5.64s-11,7-15.79,22.32c0,0-2.95,7.36,0,14.52,0,0-.84,4.42,1.47,5.05,0,0,9.05-.21,14.32-3.16S41.3,26.48,31.2,11.12c0,0-4-4.85-6.32-4.21A7.58,7.58,0,0,0,17.1,5.64Z"/><path class="cls-5" d="M26.15,8.17s-.09,7.38,3.77,8.21a8.89,8.89,0,0,1,5.43,3.16L32.7,13.85,40.34,9s-.51-3.77-2.62-3.89S31.41,17.64,26.15,8.17Z"/><path class="cls-6" d="M80.93,29.39c-.84-2.22-3.55-6.35-11.83-5.05a.66.66,0,0,0-.37.19,40.94,40.94,0,0,1-3.16,3,.64.64,0,0,0,.26,1.11c2.34.55,6.93,1.77,7.91,3.16a.62.62,0,0,0,.81.17c1.2-.66,3.9-2,5.68-1.77A.64.64,0,0,0,80.93,29.39Z"/><path class="cls-7" d="M68.88,2.28S63.74-3.83,51.26,4,39.62,17,39.62,17s26.31,14.31,32.84,5.68S70.77,2.28,68.88,2.28Z"/><path class="cls-8" d="M47.2,6.91s-11,1.68-16,9.26c0,0-6.53,5.47-7.37,10.94S18.36,40,25.1,40.79,44.46,42.48,52,38.27s15.15-11.79,12.21-15S57.93,8.38,47.2,6.91Z"/><path class="cls-5" d="M39.61,47.53s-7.78,4.21-2.31,9.89c0,0,6.53,4.63,5.9,6.32s5-.43,6.52-3.79S49.89,48.34,39.61,47.53Z"/><path class="cls-5" d="M47.81,0S43.14,4,45.5,6s4.65-2.55,8.43,5L50.61,9.91S61.53,23,64.25,22.75c0,0-5.7-7.79-5.7-11.37a20.53,20.53,0,0,0-5.06-6.74S51.09,4,50.61,2.33C50.61,2.33,50.76-.2,47.81,0Z"/><path class="cls-5" d="M91.82,42.18s2.11,3.25,1.26,5.35a10.47,10.47,0,0,0-13,3.58s-3.58,3.16-3.36-2.74c0,0,1.26-5.22-1.16-6.19,0,0,3-2.44,3.26-5s3.46.21,5.62,0c0,0-2,3.69,0,4.26A45.33,45.33,0,0,0,91.82,42.18Z"/><path class="cls-5" d="M40.34,53.85l8.75-7.37L50.68,52s-6.43,3.58-5.17,6.32S40.34,53.85,40.34,53.85Z"/><path class="cls-6" d="M21.5,14.74S7.39,32.79,7.61,36.29s-6.32-.51,1-11S20.87,11.16,21.5,14.74Z"/><path class="cls-6" d="M11,52.05a.68.68,0,0,1,.76-.39c1.69.38,7.12,1.21,10.81-2.66a14,14,0,0,1,9.56-4,.67.67,0,0,1,.55,1.09c-2,2.43-7,8.19-10.31,8.19C18.21,54.27,5.72,64.09,11,52.05Z"/><path class="cls-6" d="M39.21,16.68h0a1.07,1.07,0,0,1-.14,2.05,24.46,24.46,0,0,1-6.82.4c-5.06-.29-6.74,9.19-7.3,15.16a1.08,1.08,0,0,0,2,.64c2.73-4.67,7.27-11.73,9.93-12,4-.42,10.32-6.06,10.95-6.82s1.68-5.81,5.47-1.18S51,10.71,51,10.71s-2.74-5.43-12.16,4.22A1.08,1.08,0,0,0,39.21,16.68Z"/><path class="cls-6" d="M71,42.27S67.19,43.89,67.4,45s4.84,1.86,5.48,0S71,42.27,71,42.27Z"/><path class="cls-6" d="M68.12,6.24c-.18,1.3-.93,5.61-3.06,7.82a.56.56,0,0,0,.57.93,5.43,5.43,0,0,0,3.27-3,.57.57,0,0,1,.51-.33c1,0,3.54-.18,2.34-1.9-1.4-2-.71-4.5-3.18-4.05A.59.59,0,0,0,68.12,6.24Z"/><path class="cls-5" d="M80,5.12s-9,1.37-9,1.79,2.32,5.82,2.32,5.82S77.09,5.43,80,6.91Z"/></g></g></g></svg>