<svg xmlns="http://www.w3.org/2000/svg" viewBox="0 0 110.65 59.49"><defs><style>.cls-1{fill:#11100e;}.cls-2{fill:#881719;}.cls-3{fill:#cd4728;}.cls-4{fill:#f47b3e;}</style></defs><title>i-sausage</title><g id="Layer_2" data-name="Layer 2"><g id="Sausages_Pizza" data-name="Sausages Pizza"><ellipse class="cls-1" cx="51.13" cy="41.91" rx="15.88" ry="38.24" transform="translate(-0.87 82.74) rotate(-77.49)"/><path class="cls-2" d="M20.23,19.37S14,16.07,14,12.11,3.72,5.5,1.08,12.11-1.56,34.22,27.49,46.77s60.08.66,65-4S93.18,25,86.58,25,78,22.67,65.12,27.29s-39.28-7.92-39.28-7.92S20.56,16.4,20.23,19.37Z"/><path class="cls-3" d="M20.56,11.78s-6.14-3.55-6-7.5-10-7-12.86-.5-3.49,22,25.05,35.66,60,3,65.14-1.45,1.35-17.79-5.25-18-8.49-2.64-21.53,1.48S26.17,12,26.17,12,21,8.82,20.56,11.78Z"/><path class="cls-4" d="M36.93,15.33s-6.14-3.54-6-7.5-10-7-12.86-.5-3.5,22,25.05,35.66,60,3,65.13-1.45,1.35-17.78-5.24-18S94.53,20.86,81.49,25s-38.95-9.43-38.95-9.43S37.37,12.37,36.93,15.33Z"/></g></g></svg>