<svg xmlns="http://www.w3.org/2000/svg" viewBox="0 0 86.11 62"><defs><style>.cls-1{fill:#11100e;}.cls-2{fill:#da1f26;}.cls-3{fill:#fff;}.cls-4{fill:#d22027;}.cls-5{fill:#e43525;}.cls-6{fill:#a31d21;}.cls-7{fill:#f6871f;}.cls-8{fill:#172213;}.cls-9{fill:#dd4326;}.cls-10{fill:#f29a2f;}</style></defs><title>i-tomato</title><g id="Layer_2" data-name="Layer 2"><g id="Tomatoes_Pizza" data-name="Tomatoes Pizza"><ellipse class="cls-1" cx="42.44" cy="47.38" rx="32.67" ry="14.62"/><path class="cls-2" d="M27.85,0A25.51,25.51,0,0,0,14.12,5.86a21.39,21.39,0,0,0,1.51,33.63,18.13,18.13,0,0,0,2.86,1.7C28.1,45.68,41.65,40,42.88,38.35s9.6-15.63,4.68-24.62S36.72.47,27.85,0Z"/><path class="cls-3" d="M26.79,11.72S22.93,14,23.5,19.82A12.64,12.64,0,0,0,28,28.53s9,1.7,10.27-.63-6.19,1.92-9.49-2.34-4.39-7.87-1.28-12.19S26.79,11.72,26.79,11.72Z"/><path class="cls-4" d="M.63,35.74S33.3,26.63,37.2,28.05c1.81.66,8.4,5.8,4.5,13.61,0,0-3.38,8.34-8.83,10.17a8,8,0,0,0-.76.3c-1.92.93-11.18,5.17-16.57,3.38,0,0-12.1-2.53-14.66-12.8a18.74,18.74,0,0,0-.56-1.8A7.4,7.4,0,0,1,.63,35.74Z"/><path class="cls-5" d="M58.27,10.06s-13.85,0-13.26,9.41c.29,4.58,1.52,3.91,1.07,9.66S42.29,31,42.91,42.88c0,0,4.35,16.77,27,12.39,0,0,20.94-5.39,15.26-27.37C85.13,27.9,78.27,10.06,58.27,10.06Z"/><path class="cls-6" d="M11.76,37.64s-6.51,4.73-2.37,7.92,9.7,3.91,16,2.85,9.25-6.51,8.77-7.34c0,0-2.86-6.51-5.3-6.75A17.76,17.76,0,0,0,30,38.58s1.48,2.76-.41,2.68-.95.33-.95.33.24,2.28-2.21.94c0,0-.23,0-.55.94a.9.9,0,0,1-1.34-.08c-.74-.71-.95.32-.95.32s-.79,1.89-1.26-.24-1.19.16-1.19.16-.92.19-.78-.75-.63,0-.63,0-1.9,1.86-1.27-.35-1,.35-1,.35-1.55,1.57-.62-1.29c0,0,.14-.93-1.28,0,0,0-2.52.94-.79-1s-2.84,1-2.84,1-2-.09,1.27-2.46C13.14,39.13,15.42,35.74,11.76,37.64Z"/><path class="cls-7" d="M9.16,43s1.49-.47,1.49-1.34S8.05,42.87,9.16,43Z"/><path class="cls-7" d="M10.93,45s1.5-.47,1.5-1.34S9.82,44.83,10.93,45Z"/><path class="cls-7" d="M13.54,46.17s1.5-.48,1.5-1.34S12.44,46,13.54,46.17Z"/><path class="cls-7" d="M16.63,47.12s1.2-1,.87-1.81S15.55,47.4,16.63,47.12Z"/><path class="cls-7" d="M26.79,46.9s.12-1.57-.69-1.89S26.23,47.87,26.79,46.9Z"/><path class="cls-7" d="M30.19,45.31s-.31-1.54-1.17-1.63S29.91,46.39,30.19,45.31Z"/><path class="cls-7" d="M31.8,43.7s-.31-1.54-1.17-1.63S31.52,44.79,31.8,43.7Z"/><path class="cls-7" d="M23.31,47.51s.52-1.48-.17-2S22.52,48.3,23.31,47.51Z"/><path class="cls-7" d="M20.06,47.54s.91-1.28.39-2S19.08,48.09,20.06,47.54Z"/><path class="cls-6" d="M53.12,38.18S45.85,43,50.68,45.85,61.89,49.19,69,47.93s10.35-6.58,9.77-7.35c0,0-6.1-4.81-4.86-2.21,0,0,1.79,2.58-.38,2.58s-1.06.35-1.06.35.34,2.16-2.49,1c0,0-.27,0-.6.92a1.18,1.18,0,0,1-1.54,0c-.86-.65-1.07.34-1.07.34s-.84,1.84-1.45-.18-1.35.2-1.35.2-1,.21-.92-.69-.72,0-.72,0-2.1,1.84-1.45-.29-1.16.38-1.16.38S58,44.53,59,41.76c0,0,.13-.89-1.46.05,0,0-2.85,1-.93-.88s-3.21,1-3.21,1-2.26,0,1.36-2.4C54.75,39.56,57.25,36.23,53.12,38.18Z"/><path class="cls-7" d="M50.33,43.43S52,42.92,52,42.09,49.07,43.32,50.33,43.43Z"/><path class="cls-7" d="M52.42,45.23s1.69-.51,1.67-1.34S51.15,45.12,52.42,45.23Z"/><path class="cls-7" d="M55.44,46.26s1.7-.51,1.67-1.34S54.18,46.15,55.44,46.26Z"/><path class="cls-7" d="M59,47s1.34-1,.94-1.76S57.77,47.35,59,47Z"/><path class="cls-7" d="M70.58,46.43s.08-1.5-.85-1.77S70,47.38,70.58,46.43Z"/><path class="cls-7" d="M74.41,44.79S74,43.33,73,43.27,74.13,45.83,74.41,44.79Z"/><path class="cls-7" d="M76.19,43.19s-.4-1.46-1.38-1.52S75.91,44.23,76.19,43.19Z"/><path class="cls-7" d="M66.63,47.15s.55-1.43-.26-1.9S65.76,47.94,66.63,47.15Z"/><path class="cls-7" d="M62.93,47.32s1-1.26.37-1.9S61.83,47.87,62.93,47.32Z"/><path class="cls-6" d="M55.33,24.29s-4.77-7.28.82-8,11.6,1.4,17.63,5.4,6.87,10.16,6,10.64c0,0-7.5,2-5.33.08,0,0,2.67-1.65.68-2.51s-.84-.75-.84-.75,1.18-1.84-1.89-1.89c0,0-.24-.12-.18-1.09a1.17,1.17,0,0,0-1.41-.59c-1.06.25-.85-.74-.85-.74s0-2-1.4-.41-1.16-.72-1.16-.72-.87-.61-1.11.26-.65-.31-.65-.31-1.19-2.53-1.45-.32-.91-.81-.91-.81-1-2.11-1.17.81c0,0-.23.88-1.31-.63,0,0-2.22-2-1.21.45s-2.54-2.23-2.54-2.23S55,20,57.36,23.67C57.36,23.67,58.33,27.72,55.33,24.29Z"/><path class="cls-7" d="M54.86,18.36s1.35,1.15,1,1.9S53.66,18,54.86,18.36Z"/><path class="cls-7" d="M57.49,17.54s1.35,1.15,1,1.9S56.29,17.14,57.49,17.54Z"/><path class="cls-7" d="M60.67,17.81S62,19,61.67,19.7,59.47,17.4,60.67,17.81Z"/><path class="cls-7" d="M64.24,18.5s.83,1.47.16,2S63.24,17.73,64.24,18.5Z"/><path class="cls-7" d="M74.62,23.69S74.1,25.1,73.14,25,74.45,22.58,74.62,23.69Z"/><path class="cls-7" d="M77.48,26.72s-1,1.18-1.88.84S77.64,25.66,77.48,26.72Z"/><path class="cls-7" d="M78.48,28.9s-1,1.18-1.88.84S78.64,27.83,78.48,28.9Z"/><path class="cls-7" d="M71.29,21.45s-.07,1.54-1,1.64S70.8,20.38,71.29,21.45Z"/><path class="cls-7" d="M68,19.82s.41,1.56-.42,1.9S67.17,18.88,68,19.82Z"/><path class="cls-3" d="M36.37,4.38s-2-3-4.21-1.18C32.16,3.2,38.74,8.05,36.37,4.38Z"/><path class="cls-3" d="M28,2.63s-.19-2.58-4.47,0S28.62,3.61,28,2.63Z"/><path class="cls-8" d="M32.82,24.14s-.89-.11-1.12-1.42c0,0-1.24-2.72-5.56-1,0,0-1.54.35-4.21,4.49,0,0-4.27,4.71-5.15,5.32A34.78,34.78,0,0,1,23.3,21.44s.53-1.32,3.6-1.85c0,0,4-1.3,4-3.38,0,0,.47-2.66.12-2.84,0,0-2.07-4.91-3.91-6s-3.25-2.19-4.67-1.07c0,0-1.27,1.45-1.27,1.92s.74,2.11.56,2.31a3.39,3.39,0,0,1-.89-2.87s1-2.13,2.63-2.13a7.75,7.75,0,0,1,6.42,2.58,22.41,22.41,0,0,1,3.61,5.68s.18.5.33.53.41.33.41.33a10,10,0,0,0,4.35-3.58c1.87-2.7,2.78-3.32,3.17-5.92a1.94,1.94,0,0,0-1.16-2L37.94,1.39s-.89-.53-2.66.53A2.41,2.41,0,0,1,37.65.86,12.29,12.29,0,0,1,41.34,3.4c1.19,1.42,2.37,3.91,1.48,5.65s-4.88,7.55-5.2,8.38c0,0-.57.56-.06.56a11.18,11.18,0,0,1,3,.83,1.38,1.38,0,0,0,2.08-.8l0-.36s1,.65-.73,1.84c0,0-2.23,2.13-3.12,1.77s-1.07.42-1.07.42-.23,1.12-.68,1.21-.68.71-.68.71.27.71-1.21.68A13.45,13.45,0,0,1,32.82,24.14Z"/><path class="cls-8" d="M35.37,18.58s-.95,2.07-2.43,1.3l-.77-3.69s-.15-2.11.95-1.81,1.42-.15,2,2.82Z"/><path class="cls-8" d="M32.33,16.93s2.39,1,1.68-1.9a1,1,0,0,0-1.85,0S31.77,16.52,32.33,16.93Z"/><path class="cls-9" d="M.84,35.66,0,37.71l35.67-8.37s2.14-.83.65-1.41S.84,35.66.84,35.66Z"/><path class="cls-10" d="M45.34,32.53s5.75-2.77,7.84,0,3.18,3.2,2.81,3.88,1.33,4.23,4.07,4.23S70.36,43,71.3,37.83s5-7.11,0-9.48-12.25-4.62-12.67-2.81-3.48,5.32-6,4.65-6.51-2.45-6.51-3.25S46.28,32.57,45.34,32.53Z"/></g></g></svg>