<svg xmlns="http://www.w3.org/2000/svg" viewBox="0 0 291.7 319.91"><defs><style>.cls-1{fill:#d1a36b;}.cls-2{fill:#dfc9a8;}.cls-3{fill:#b9875a;}</style></defs><title>mushrooms</title><g id="Layer_2" data-name="Layer 2"><g id="Mushrooms"><g id="Mushrooms-2" data-name="Mushrooms"><path class="cls-1" d="M19.81,99.8s-4.44,3.17-2.92,7.11c0,0-2.15,3.3-4.18,3.93,0,0,1.77,5.71,2.92,5.71,0,0,1.39-3.93,4.18-4.57l.64-.76s-.64,1.91,4.7,1.91c0,0,5.07-.51,4.57-7.11C29.72,106,26.42,96.5,19.81,99.8Z"/><path class="cls-1" d="M24.89,125.82s3.09-2.39,0-7.74a9.43,9.43,0,0,0-12.18,2.54s-6,4.95.76,9.9c0,0,4.57,1.65,5.71,0,0,0,2.79,1.78,2.92,3.3,0,0,.51,1.14,2.41,0s4.7-2.54,4.7-2.54.89-1.27,0-1.52C29.21,129.76,27.3,130.26,24.89,125.82Z"/><path class="cls-1" d="M31.24,121s-3,3.71-2.92,4.58,6.22,4.3,6.22,4.3.25-2.41,3.3-5.84c0,0,.64,1.91,1.65.77,0,0,5.21.38,5.46-5.84,0,0-2.67-7.49-10.16-7.75S28.45,121,31.24,121Z"/><path class="cls-2" d="M29.15,116.11s-1,3.62,5.45,4.7h1.34s1.18,2.47,2.52,2.28c0,0,5.54.29,6.14-4.93,0,0-2-6.17-8.46-6.81C36.14,111.35,30.93,109.57,29.15,116.11Z"/><path class="cls-3" d="M31.62,118.27s1-2.16,2.29-1.43c0,0,1.2.29-.26,1.43s-4.91,6.19-4.91,6.19l4.78,3.33,4.51-9.2a1.39,1.39,0,0,1,.89,2.28s-1.32,1.41.32,1.37c0,0,2.74-2.39,0-3.85a5.26,5.26,0,0,0-2.61-.7c-1.52,0-.82-.25-1.14-.56,0,0-.57-1.08-2.66-1S30.8,119.41,31.62,118.27Z"/><path class="cls-2" d="M13.23,130.38s3.35,3,7.8-2.22l.68-1.23s3.24.38,3.73-1a6.18,6.18,0,0,0-2.08-8.57s-7.61-1.78-11.59,3.74C11.77,121.13,7.2,124.86,13.23,130.38Z"/><path class="cls-2" d="M17,101.19s-3,2.9,1.82,7.42l1.14.72s-.49,3,.78,3.54A5.88,5.88,0,0,0,29,111.56s2-7-3.11-11C25.86,100.51,22.49,96,17,101.19Z"/><path class="cls-3" d="M17.28,129.1s-1.66-1.89-.43-2.88c0,0,2.59-.68,3.08,1.25s3.82,5.27,3.82,5.27l5.6-2.82-2.25-1.11-.08-.05-1.88-2.59a1.76,1.76,0,0,0-.63-.55l-1.78-1.51s-3.17-3.11.11-1.37c0,0,.81,1.9,1.46.22,0,0-1.16-3.72-3.71-1.53a5.86,5.86,0,0,0-1.77,2.36c-.64,1.55-.59.74-1,.93,0,0-1.28.15-2.09,2.3S18,130.39,17.28,129.1Z"/><path class="cls-3" d="M17.75,105.09s1.77-1.6,2.66-.43c0,0,1,.72-.79,1.21s-6.34,4.73-6.34,4.73l2.28,4,1.11-1.3a22.61,22.61,0,0,1,6.19-5.08l.68-.38a1.4,1.4,0,0,1-.06,2.46s-1.76.78-.23,1.38c0,0,3.45-1.14,1.48-3.54a5.14,5.14,0,0,0-2.13-1.66c-1.41-.58-.67-.55-.84-1,0,0-.11-1.22-2.07-2S16.55,105.83,17.75,105.09Z"/><path class="cls-1" d="M97.44,216.34s-.12,5.46,3.94,6.59c0,0,1.36,3.71.65,5.71,0,0,5.64,2,6.32,1.08,0,0-2.31-3.47-1.15-6.09l-.23-1s1.15,1.65,4.34-2.63c0,0,2.63-4.37-3-7.91C108.35,212.13,98.74,209.07,97.44,216.34Z"/><path class="cls-1" d="M115.92,307.48s-.07-3.9-6.21-4.64a9.45,9.45,0,0,0-5.26,11.29s.4,7.74,8.39,5.31c0,0,4.06-2.67,3.42-4.57,0,0,3.1-1.18,4.39-.37,0,0,1.22.28,1.45-1.93s.77-5.28.77-5.28-.48-1.47-1.22-.91C121.65,306.38,120.92,308.21,115.92,307.48Z"/><path class="cls-1" d="M115.85,299.51s1.16,4.66,1.93,5.08,7.17-2.41,7.17-2.41-1.78-1.65-2.71-6.14c0,0,1.91.63,1.6-.86,0,0,3.42-3.95-1.41-7.87,0,0-7.59-2.35-12.28,3.5S114.18,301.74,115.85,299.51Z"/><path class="cls-2" d="M110.69,298.25s2.32,2.94,7-1.55l.8-1.07s2.69.53,3.35-.66c0,0,3.54-4.25-.28-7.86,0,0-6.17-2.06-10.52,2.7C111.06,289.81,106.51,292.91,110.69,298.25Z"/><path class="cls-3" d="M113.89,297.57s-1.11-2.11.23-2.69c0,0,.95-.79,1,1.06s2,7.64,2,7.64l5.52-1.84L118,292.62a1.39,1.39,0,0,1,2.36.66s.33,1.9,1.29.56c0,0-.27-3.62-3.08-2.3a5.22,5.22,0,0,0-2.13,1.67c-.9,1.22-.69.51-1.13.57,0,0-1.21-.19-2.41,1.53S114.32,298.91,113.89,297.57Z"/><path class="cls-2" d="M112.6,319.55s4.43-.87,2.88-7.57l-.57-1.29s2.24-2.37,1.45-3.57a6.18,6.18,0,0,0-8.11-3.46s-6,5-3.94,11.52C104.31,315.18,104.56,321.07,112.6,319.55Z"/><path class="cls-2" d="M96.88,219.41s.52,4.14,7,3l1.26-.47s2.11,2.17,3.31,1.49a5.89,5.89,0,0,0,3.86-7.37s-4.38-5.74-10.72-4.12C101.62,211.92,96,211.91,96.88,219.41Z"/><path class="cls-3" d="M114,315.54s-2.51.2-2.56-1.38c0,0,1-2.48,2.84-1.72s6.51.1,6.51.1l1.09-6.18-2.23,1.14-.09,0-3.2,0a1.8,1.8,0,0,0-.82.17l-2.28.52s-4.39.68-1-.9c0,0,2,.49,1-1,0,0-3.67-1.3-3.45,2.06a5.89,5.89,0,0,0,.84,2.83c.86,1.43.24.91.13,1.38,0,0-.65,1.12.59,3.05S115.48,315.71,114,315.54Z"/><path class="cls-3" d="M100.44,221.16s-.22-2.37,1.24-2.39c0,0,1.19-.37.51,1.36s0,7.91,0,7.91l4.58.57-.38-1.67a22.42,22.42,0,0,1-.36-8l.1-.77s1.89-.67,1.93,1.52c0,0-.42,1.88,1,1,0,0,1.14-3.44-2-3.31a5.18,5.18,0,0,0-2.6.73c-1.31.77-.84.2-1.27.09,0,0-1-.64-2.82.48S100.32,222.56,100.44,221.16Z"/><path class="cls-1" d="M196.31,35.53s-4.45,3.17-2.92,7.11c0,0-2.16,3.3-4.19,3.93,0,0,1.78,5.72,2.92,5.72,0,0,1.39-3.94,4.19-4.57l.63-.77s-.63,1.91,4.7,1.91c0,0,5.08-.51,4.57-7.11C206.21,41.75,202.91,32.23,196.31,35.53Z"/><path class="cls-1" d="M201.39,61.55s3.08-2.39,0-7.74c0,0-6.86-4.06-12.19,2.54,0,0-6,4.95.76,9.9,0,0,4.57,1.65,5.71,0,0,0,2.8,1.78,2.92,3.3,0,0,.51,1.14,2.41,0S205.7,67,205.7,67s.89-1.27,0-1.52C205.7,65.49,203.8,66,201.39,61.55Z"/><path class="cls-1" d="M259.77,103.1s-3,3.71-2.92,4.59,6.22,4.3,6.22,4.3.26-2.42,3.3-5.84c0,0,.64,1.9,1.66.76,0,0,5.2.38,5.45-5.84,0,0-2.66-7.49-10.15-7.75S257,103.1,259.77,103.1Z"/><path class="cls-2" d="M257.69,98.21s-1,3.62,5.44,4.7h1.34s1.18,2.47,2.53,2.28c0,0,5.53.3,6.13-4.93,0,0-2-6.17-8.46-6.81C264.67,93.45,259.47,91.67,257.69,98.21Z"/><path class="cls-3" d="M260.15,100.37s1-2.16,2.29-1.43c0,0,1.21.29-.25,1.43s-4.91,6.2-4.91,6.2l4.78,3.32,4.51-9.2a1.38,1.38,0,0,1,.88,2.28s-1.32,1.41.33,1.37c0,0,2.73-2.38,0-3.84a5.21,5.21,0,0,0-2.61-.71c-1.52,0-.83-.25-1.14-.56,0,0-.57-1.08-2.67-1S259.33,101.51,260.15,100.37Z"/><path class="cls-2" d="M189.73,66.12s3.35,3,7.79-2.23l.69-1.23s3.23.38,3.72-1a6.17,6.17,0,0,0-2.08-8.57s-7.61-1.78-11.58,3.75C188.27,56.87,183.7,60.59,189.73,66.12Z"/><path class="cls-2" d="M193.51,36.92s-3,2.9,1.82,7.42l1.14.73s-.48,3,.78,3.53a5.89,5.89,0,0,0,8.22-1.31s2-6.95-3.12-11C202.35,36.24,199,31.72,193.51,36.92Z"/><path class="cls-3" d="M193.77,64.83S192.11,63,193.35,62c0,0,2.59-.68,3.08,1.25s3.81,5.27,3.81,5.27l5.61-2.82-2.26-1.11-.08-.05-1.87-2.59a1.85,1.85,0,0,0-.63-.55l-1.78-1.51s-3.18-3.11.11-1.36c0,0,.8,1.89,1.45.21,0,0-1.16-3.72-3.71-1.53a5.85,5.85,0,0,0-1.77,2.37c-.63,1.54-.59.73-1,.93,0,0-1.29.14-2.1,2.29S194.53,66.13,193.77,64.83Z"/><path class="cls-3" d="M194.24,40.82s1.77-1.59,2.66-.43c0,0,1,.72-.78,1.22s-6.35,4.72-6.35,4.72l2.28,4,1.11-1.3a22.66,22.66,0,0,1,6.2-5.08l.68-.37A1.39,1.39,0,0,1,200,46s-1.77.79-.23,1.39c0,0,3.44-1.15,1.48-3.55a5.22,5.22,0,0,0-2.14-1.66c-1.41-.58-.66-.54-.83-1,0,0-.11-1.21-2.07-2S193,41.56,194.24,40.82Z"/><path class="cls-1" d="M159.77,35.58s-4.45,3.17-2.92,7.11c0,0-2.16,3.3-4.19,3.93,0,0,1.77,5.71,2.92,5.71,0,0,1.39-3.93,4.19-4.57l.63-.76s-.63,1.91,4.7,1.91c0,0,5.08-.51,4.57-7.11C169.67,41.8,166.37,32.28,159.77,35.58Z"/><path class="cls-1" d="M164.84,61.6s3.09-2.39,0-7.74a9.42,9.42,0,0,0-12.18,2.54s-6,5,.76,9.9c0,0,4.57,1.65,5.71,0,0,0,2.79,1.77,2.92,3.3,0,0,.51,1.14,2.41,0s4.7-2.54,4.7-2.54.89-1.27,0-1.52C169.16,65.54,167.26,66,164.84,61.6Z"/><path class="cls-1" d="M185.74,31.09s-3,3.71-2.92,4.58S189,40,189,40s.26-2.41,3.3-5.84c0,0,.64,1.91,1.65.77,0,0,5.21.38,5.46-5.84,0,0-2.66-7.49-10.15-7.75S183,31.09,185.74,31.09Z"/><path class="cls-2" d="M183.65,26.2s-1,3.62,5.45,4.7h1.34s1.18,2.47,2.53,2.28c0,0,5.53.29,6.13-4.93,0,0-2-6.17-8.46-6.81C190.64,21.44,185.44,19.66,183.65,26.2Z"/><path class="cls-3" d="M186.12,28.36s1-2.16,2.29-1.43c0,0,1.2.28-.26,1.43s-4.9,6.19-4.9,6.19L188,37.88l4.5-9.21a1.39,1.39,0,0,1,.89,2.29s-1.32,1.41.33,1.37c0,0,2.73-2.39,0-3.85a5.26,5.26,0,0,0-2.61-.7c-1.53,0-.83-.25-1.14-.57,0,0-.58-1.07-2.67-1S185.3,29.5,186.12,28.36Z"/><path class="cls-2" d="M153.19,66.16s3.35,3,7.79-2.22l.69-1.23s3.23.38,3.72-1a6.17,6.17,0,0,0-2.08-8.57s-7.61-1.78-11.58,3.74C151.73,56.91,147.16,60.64,153.19,66.16Z"/><path class="cls-2" d="M157,37s-3,2.9,1.82,7.41l1.14.73s-.48,3,.78,3.54a5.89,5.89,0,0,0,8.22-1.31s2-7-3.12-11.05C165.81,36.29,162.44,31.76,157,37Z"/><path class="cls-3" d="M157.23,64.88S155.57,63,156.81,62c0,0,2.58-.68,3.08,1.25s3.81,5.27,3.81,5.27l5.6-2.82-2.25-1.11-.08,0L165.1,62a1.88,1.88,0,0,0-.64-.55l-1.77-1.51s-3.18-3.11.1-1.37c0,0,.81,1.9,1.46.22,0,0-1.16-3.72-3.71-1.53a5.86,5.86,0,0,0-1.77,2.36c-.63,1.55-.59.74-1,.93,0,0-1.28.15-2.09,2.3S158,66.17,157.23,64.88Z"/><path class="cls-3" d="M157.7,40.87s1.77-1.6,2.66-.44c0,0,1,.73-.78,1.22s-6.35,4.73-6.35,4.73l2.28,4,1.11-1.31a22.66,22.66,0,0,1,6.2-5.07l.67-.38a1.4,1.4,0,0,1-.06,2.46s-1.76.78-.23,1.38c0,0,3.45-1.14,1.49-3.54a5.22,5.22,0,0,0-2.14-1.66c-1.41-.58-.66-.55-.84-1,0,0-.11-1.22-2.06-2S156.5,41.61,157.7,40.87Z"/><path class="cls-1" d="M266.57,190.82s-4.44,3.17-2.92,7.11c0,0-2.16,3.3-4.19,3.93,0,0,1.78,5.72,2.92,5.72,0,0,1.4-3.94,4.19-4.57l.63-.77s-.63,1.91,4.7,1.91c0,0,5.08-.51,4.57-7.11C276.47,197,273.17,187.52,266.57,190.82Z"/><path class="cls-1" d="M271.65,216.84s3.08-2.39,0-7.74c0,0-6.86-4.06-12.19,2.54,0,0-6,5,.76,9.9,0,0,4.57,1.65,5.71,0,0,0,2.8,1.78,2.92,3.3,0,0,.51,1.14,2.42,0S276,222.3,276,222.3s.89-1.27,0-1.52C276,220.78,274.06,221.29,271.65,216.84Z"/><path class="cls-1" d="M278,212s-3,3.71-2.92,4.58,6.22,4.3,6.22,4.3.26-2.41,3.31-5.84c0,0,.63,1.91,1.65.77,0,0,5.2.38,5.45-5.84,0,0-2.66-7.49-10.15-7.75S275.2,212,278,212Z"/><path class="cls-2" d="M275.91,207.13s-1,3.62,5.45,4.7h1.33s1.19,2.47,2.53,2.28c0,0,5.53.29,6.13-4.93,0,0-2-6.17-8.46-6.81C282.89,202.37,277.69,200.59,275.91,207.13Z"/><path class="cls-3" d="M278.37,209.29s1-2.16,2.29-1.43c0,0,1.21.29-.25,1.43s-4.91,6.2-4.91,6.2l4.78,3.32,4.51-9.2a1.38,1.38,0,0,1,.88,2.28s-1.32,1.41.33,1.37c0,0,2.73-2.38,0-3.84a5.21,5.21,0,0,0-2.61-.71c-1.52,0-.83-.25-1.14-.56,0,0-.57-1.08-2.67-1S277.55,210.43,278.37,209.29Z"/><path class="cls-2" d="M260,221.4s3.35,3,7.79-2.22l.69-1.23s3.24.38,3.72-1a6.17,6.17,0,0,0-2.08-8.57s-7.61-1.78-11.58,3.75C258.53,212.16,254,215.88,260,221.4Z"/><path class="cls-2" d="M263.77,192.21s-3,2.9,1.82,7.42l1.14.73s-.48,3,.78,3.53a5.89,5.89,0,0,0,8.22-1.31s2-7-3.12-11.05C272.61,191.53,269.25,187,263.77,192.21Z"/><path class="cls-3" d="M264,220.12s-1.66-1.88-.42-2.88c0,0,2.59-.68,3.08,1.25s3.81,5.27,3.81,5.27l5.61-2.82-2.26-1.11-.08-.05-1.87-2.59a1.85,1.85,0,0,0-.63-.55l-1.78-1.51s-3.18-3.11.11-1.37c0,0,.8,1.9,1.45.22,0,0-1.15-3.72-3.71-1.53a5.85,5.85,0,0,0-1.77,2.37c-.63,1.54-.58.73-1,.93,0,0-1.28.14-2.1,2.29S264.79,221.41,264,220.12Z"/><path class="cls-3" d="M264.5,196.11s1.77-1.6,2.66-.43c0,0,1,.72-.78,1.22s-6.35,4.72-6.35,4.72l2.29,4,1.11-1.3a22.47,22.47,0,0,1,6.19-5.08l.68-.37a1.39,1.39,0,0,1-.06,2.45s-1.76.78-.23,1.39c0,0,3.44-1.15,1.48-3.55a5.22,5.22,0,0,0-2.14-1.66c-1.4-.58-.66-.54-.83-1,0,0-.11-1.22-2.07-2S263.3,196.85,264.5,196.11Z"/><path class="cls-1" d="M74.9,45.86S70.45,49,72,53c0,0-2.16,3.3-4.19,3.93,0,0,1.78,5.71,2.92,5.71,0,0,1.39-3.93,4.19-4.57l.63-.76s-.63,1.91,4.7,1.91c0,0,5.08-.51,4.57-7.11C84.8,52.08,81.5,42.56,74.9,45.86Z"/><path class="cls-1" d="M103.8,96s3.08-2.39,0-7.74a9.43,9.43,0,0,0-12.19,2.54s-6,4.95.76,9.9c0,0,4.57,1.65,5.71,0,0,0,2.8,1.77,2.92,3.3,0,0,.51,1.14,2.41,0s4.7-2.54,4.7-2.54.89-1.27,0-1.52C108.11,99.9,106.21,100.4,103.8,96Z"/><path class="cls-2" d="M92.14,100.52s3.35,3,7.79-2.22l.69-1.23s3.23.38,3.72-1a6.17,6.17,0,0,0-2.08-8.57s-7.61-1.79-11.58,3.74C90.68,91.27,86.11,95,92.14,100.52Z"/><path class="cls-2" d="M72.1,47.25s-3,2.9,1.82,7.42l1.14.72s-.48,3,.78,3.54a5.89,5.89,0,0,0,8.22-1.31s2-6.95-3.12-11C80.94,46.57,77.57,42.05,72.1,47.25Z"/><path class="cls-3" d="M96.18,99.24s-1.66-1.89-.42-2.88c0,0,2.58-.68,3.08,1.25s3.81,5.27,3.81,5.27l5.61-2.82L106,99l-.08,0-1.87-2.59a1.85,1.85,0,0,0-.63-.55l-1.78-1.51s-3.18-3.11.11-1.37c0,0,.8,1.9,1.45.22,0,0-1.16-3.72-3.71-1.53a5.86,5.86,0,0,0-1.77,2.36c-.63,1.55-.59.74-1,.93,0,0-1.29.15-2.1,2.3S96.94,100.53,96.18,99.24Z"/><path class="cls-3" d="M72.83,51.15s1.77-1.6,2.66-.43c0,0,1,.72-.78,1.21s-6.35,4.73-6.35,4.73l2.28,4,1.11-1.3A22.66,22.66,0,0,1,78,54.29l.68-.37a1.39,1.39,0,0,1-.07,2.45s-1.76.78-.23,1.38c0,0,3.45-1.14,1.49-3.54a5.22,5.22,0,0,0-2.14-1.66c-1.41-.58-.66-.55-.83-1,0,0-.12-1.22-2.07-2S71.63,51.89,72.83,51.15Z"/><path class="cls-1" d="M52.91,20.22s-4.45,3.17-2.92,7.1c0,0-2.16,3.3-4.19,3.94,0,0,1.77,5.71,2.92,5.71,0,0,1.39-3.93,4.19-4.57l.63-.76s-.63,1.9,4.7,1.9c0,0,5.08-.5,4.57-7.1C62.81,26.44,59.51,16.91,52.91,20.22Z"/><path class="cls-1" d="M58,46.24s3.09-2.39,0-7.74A9.43,9.43,0,0,0,45.8,41s-6,5,.76,9.91c0,0,4.57,1.65,5.71,0,0,0,2.79,1.77,2.92,3.3,0,0,.51,1.14,2.41,0s4.7-2.54,4.7-2.54.89-1.27,0-1.53C62.3,50.17,60.4,50.68,58,46.24Z"/><path class="cls-1" d="M64.33,41.42s-3,3.71-2.92,4.58,6.22,4.3,6.22,4.3.26-2.41,3.3-5.84c0,0,.64,1.91,1.65.76,0,0,5.21.38,5.46-5.84,0,0-2.66-7.49-10.15-7.74S61.54,41.42,64.33,41.42Z"/><path class="cls-2" d="M62.24,36.53s-1,3.62,5.45,4.69H69s1.18,2.48,2.53,2.29c0,0,5.53.29,6.13-4.93,0,0-2-6.18-8.46-6.81C69.23,31.77,64,30,62.24,36.53Z"/><path class="cls-3" d="M64.71,38.69s1-2.16,2.29-1.43c0,0,1.2.28-.26,1.43s-4.91,6.19-4.91,6.19l4.79,3.33L71.12,39A1.39,1.39,0,0,1,72,41.29s-1.32,1.4.33,1.37c0,0,2.73-2.39,0-3.85a5.26,5.26,0,0,0-2.61-.7c-1.53,0-.83-.25-1.15-.57,0,0-.57-1.08-2.66-1S63.89,39.83,64.71,38.69Z"/><path class="cls-2" d="M46.33,50.8s3.35,3,7.79-2.22l.69-1.23s3.23.38,3.72-1a6.17,6.17,0,0,0-2.08-8.57S48.84,36,44.87,41.55C44.87,41.55,40.3,45.28,46.33,50.8Z"/><path class="cls-2" d="M50.11,21.61s-3,2.89,1.82,7.41l1.14.73s-.48,3,.78,3.54A5.89,5.89,0,0,0,62.07,32s2-6.95-3.12-11C59,20.93,55.58,16.4,50.11,21.61Z"/><path class="cls-3" d="M50.37,49.52s-1.66-1.89-.42-2.88c0,0,2.58-.69,3.08,1.25s3.81,5.27,3.81,5.27l5.6-2.82-2.25-1.11-.08,0-1.87-2.59a1.94,1.94,0,0,0-.63-.55l-1.78-1.51s-3.18-3.11.1-1.37c0,0,.81,1.9,1.46.22,0,0-1.16-3.72-3.71-1.53a5.86,5.86,0,0,0-1.77,2.36c-.63,1.55-.59.74-1,.93,0,0-1.28.15-2.09,2.3S51.13,50.81,50.37,49.52Z"/><path class="cls-3" d="M50.84,25.51s1.77-1.6,2.66-.44c0,0,1,.73-.78,1.22S46.37,31,46.37,31l2.28,4,1.11-1.31A22.62,22.62,0,0,1,56,28.65l.68-.38a1.39,1.39,0,0,1-.07,2.45s-1.76.79-.23,1.39c0,0,3.45-1.14,1.49-3.55a5.24,5.24,0,0,0-2.14-1.65c-1.41-.58-.66-.55-.83-1,0,0-.12-1.22-2.07-2S49.64,26.25,50.84,25.51Z"/><path class="cls-1" d="M111.93,26.75s-4.44,3.18-2.92,7.11c0,0-2.15,3.3-4.19,3.94,0,0,1.78,5.71,2.92,5.71,0,0,1.4-3.94,4.19-4.57l.64-.76s-.64,1.9,4.7,1.9c0,0,5.07-.51,4.57-7.11C121.84,33,118.54,23.45,111.93,26.75Z"/><path class="cls-1" d="M117,52.78s3.09-2.39,0-7.75a9.45,9.45,0,0,0-12.19,2.54s-6,5,.77,9.9c0,0,4.57,1.65,5.71,0,0,0,2.79,1.78,2.92,3.3,0,0,.51,1.15,2.41,0s4.7-2.53,4.7-2.53.89-1.27,0-1.53C121.33,56.71,119.42,57.22,117,52.78Z"/><path class="cls-2" d="M105.35,57.34s3.35,3,7.8-2.22l.68-1.23s3.24.38,3.73-1a6.18,6.18,0,0,0-2.08-8.57s-7.61-1.79-11.59,3.74C103.89,48.09,99.32,51.82,105.35,57.34Z"/><path class="cls-2" d="M109.14,28.15s-3,2.89,1.82,7.41l1.14.73s-.49,3,.78,3.54a5.89,5.89,0,0,0,8.21-1.31s2-7-3.11-11.06C118,27.46,114.61,22.94,109.14,28.15Z"/><path class="cls-3" d="M109.4,56.06s-1.66-1.89-.43-2.89c0,0,2.59-.68,3.08,1.26s3.82,5.26,3.82,5.26l5.6-2.82-2.25-1.1a.24.24,0,0,1-.08-.06l-1.88-2.59a1.83,1.83,0,0,0-.63-.54l-1.78-1.52S111.68,48,115,49.7c0,0,.81,1.9,1.46.22,0,0-1.16-3.72-3.71-1.54a5.94,5.94,0,0,0-1.77,2.37c-.64,1.54-.59.73-1,.93,0,0-1.28.15-2.09,2.3S110.16,57.35,109.4,56.06Z"/><path class="cls-3" d="M109.87,32.05s1.77-1.6,2.66-.44c0,0,1,.73-.79,1.22s-6.34,4.72-6.34,4.72l2.28,4,1.11-1.31A22.26,22.26,0,0,1,115,35.19l.68-.38a1.39,1.39,0,0,1-.06,2.45s-1.76.79-.23,1.39c0,0,3.45-1.15,1.48-3.55a5.17,5.17,0,0,0-2.13-1.65c-1.41-.58-.67-.55-.84-1,0,0-.11-1.21-2.07-2S108.67,32.79,109.87,32.05Z"/><path class="cls-1" d="M89.94,1.11S85.5,4.28,87,8.22c0,0-2.15,3.3-4.19,3.94,0,0,1.78,5.71,2.92,5.71,0,0,1.4-3.94,4.19-4.57l.64-.76s-.64,1.9,4.7,1.9c0,0,5.07-.51,4.57-7.11C99.85,7.33,96.54-2.19,89.94,1.11Z"/><path class="cls-1" d="M95,27.13s3.09-2.39,0-7.74a9.45,9.45,0,0,0-12.19,2.54s-6,4.95.77,9.9c0,0,4.57,1.65,5.71,0,0,0,2.79,1.78,2.92,3.3,0,0,.51,1.14,2.41,0s4.7-2.54,4.7-2.54.89-1.27,0-1.52C99.34,31.07,97.43,31.58,95,27.13Z"/><path class="cls-1" d="M101.37,22.31S98.32,26,98.45,26.9s6.22,4.3,6.22,4.3.25-2.42,3.3-5.84c0,0,.63,1.9,1.65.76,0,0,5.21.38,5.46-5.84,0,0-2.67-7.49-10.16-7.74S98.58,22.31,101.37,22.31Z"/><path class="cls-2" d="M99.28,17.42s-1,3.62,5.45,4.7h1.34s1.18,2.48,2.52,2.29c0,0,5.54.29,6.14-4.94,0,0-2-6.17-8.46-6.81C106.27,12.66,101.06,10.88,99.28,17.42Z"/><path class="cls-3" d="M101.75,19.58s1-2.15,2.28-1.43c0,0,1.21.29-.25,1.43s-4.91,6.2-4.91,6.2l4.78,3.32,4.51-9.2a1.39,1.39,0,0,1,.89,2.28s-1.32,1.41.32,1.37c0,0,2.74-2.38,0-3.84a5.14,5.14,0,0,0-2.61-.7c-1.52,0-.82-.25-1.14-.57,0,0-.57-1.08-2.66-1S100.93,20.73,101.75,19.58Z"/><path class="cls-2" d="M83.36,31.7s3.35,3,7.8-2.23l.68-1.23s3.24.38,3.73-1a6.19,6.19,0,0,0-2.08-8.58s-7.61-1.78-11.59,3.75C81.9,22.45,77.33,26.17,83.36,31.7Z"/><path class="cls-2" d="M87.15,2.51S84.14,5.4,89,9.92l1.14.73s-.49,3,.78,3.54a5.89,5.89,0,0,0,8.21-1.32s2-6.94-3.11-11C96,1.82,92.62-2.7,87.15,2.51Z"/><path class="cls-3" d="M87.41,30.42s-1.66-1.89-.43-2.89c0,0,2.59-.68,3.08,1.25s3.82,5.27,3.82,5.27l5.6-2.82-2.25-1.1-.08-.06-1.88-2.59a1.86,1.86,0,0,0-.63-.55l-1.78-1.51s-3.17-3.11.11-1.36c0,0,.81,1.9,1.46.22,0,0-1.16-3.73-3.71-1.54A5.85,5.85,0,0,0,89,25.11c-.64,1.54-.59.73-1,.93,0,0-1.28.15-2.09,2.29S88.17,31.71,87.41,30.42Z"/><path class="cls-3" d="M87.88,6.4S89.65,4.81,90.54,6c0,0,1,.73-.79,1.22s-6.34,4.72-6.34,4.72l2.28,4,1.11-1.3A22.26,22.26,0,0,1,93,9.55l.68-.38a1.39,1.39,0,0,1-.06,2.45s-1.76.79-.23,1.39c0,0,3.45-1.15,1.48-3.55a5.17,5.17,0,0,0-2.13-1.65c-1.41-.59-.67-.55-.84-1,0,0-.11-1.21-2.07-2S86.68,7.14,87.88,6.4Z"/><path class="cls-1" d="M13.49,218.05s-4.44,3.18-2.92,7.11c0,0-2.16,3.3-4.19,3.94,0,0,1.78,5.71,2.92,5.71,0,0,1.4-3.93,4.19-4.57l.63-.76s-.63,1.9,4.7,1.9c0,0,5.08-.5,4.57-7.1C23.39,224.28,20.09,214.75,13.49,218.05Z"/><path class="cls-1" d="M18.57,244.08s3.08-2.39,0-7.74c0,0-6.86-4.07-12.19,2.53,0,0-6,4.95.76,9.91,0,0,4.57,1.65,5.71,0,0,0,2.8,1.77,2.92,3.3,0,0,.51,1.14,2.42,0s4.69-2.54,4.69-2.54.89-1.27,0-1.53C22.88,248,21,248.52,18.57,244.08Z"/><path class="cls-2" d="M6.91,248.64s3.35,3,7.79-2.22l.69-1.23s3.24.38,3.72-1A6.17,6.17,0,0,0,17,235.65s-7.61-1.79-11.58,3.74C5.45,239.39.88,243.12,6.91,248.64Z"/><path class="cls-2" d="M10.69,219.45s-3,2.89,1.82,7.41l1.14.73s-.48,3,.78,3.54a5.9,5.9,0,0,0,8.22-1.31s2-6.95-3.12-11C19.53,218.77,16.17,214.24,10.69,219.45Z"/><path class="cls-3" d="M11,247.36s-1.66-1.89-.42-2.88c0,0,2.59-.69,3.08,1.25S17.42,251,17.42,251L23,248.18l-2.26-1.11-.08,0-1.87-2.59a1.85,1.85,0,0,0-.63-.55l-1.78-1.52s-3.18-3.11.11-1.36c0,0,.8,1.9,1.45.22,0,0-1.16-3.72-3.71-1.53a5.86,5.86,0,0,0-1.77,2.36c-.63,1.55-.58.74-1,.93,0,0-1.28.15-2.1,2.3S11.71,248.65,11,247.36Z"/><path class="cls-3" d="M11.42,223.35s1.77-1.6,2.66-.44c0,0,1,.73-.78,1.22S7,228.86,7,228.86l2.29,4,1.11-1.31a22.43,22.43,0,0,1,6.19-5.07l.68-.38a1.39,1.39,0,0,1-.06,2.45s-1.76.79-.23,1.39c0,0,3.44-1.14,1.48-3.55a5.16,5.16,0,0,0-2.14-1.65c-1.4-.58-.66-.55-.83-1,0,0-.11-1.22-2.07-2S10.22,224.09,11.42,223.35Z"/><path class="cls-1" d="M46.88,174.41s-4.44,3.17-2.92,7.11c0,0-2.16,3.3-4.19,3.93,0,0,1.78,5.71,2.92,5.71,0,0,1.4-3.93,4.19-4.57l.63-.76s-.63,1.91,4.7,1.91c0,0,5.08-.51,4.57-7.11C56.78,180.63,53.48,171.11,46.88,174.41Z"/><path class="cls-1" d="M52,200.43S55,198,52,192.69c0,0-6.86-4.06-12.19,2.54,0,0-6,5,.76,9.9,0,0,4.57,1.65,5.72,0,0,0,2.79,1.78,2.92,3.3,0,0,.5,1.14,2.41,0s4.69-2.54,4.69-2.54.89-1.27,0-1.52C56.27,204.37,54.37,204.87,52,200.43Z"/><path class="cls-1" d="M2.92,213.61s-3,3.72-2.92,4.59,6.22,4.3,6.22,4.3.26-2.41,3.3-5.84c0,0,.64,1.9,1.66.76,0,0,5.2.38,5.45-5.84,0,0-2.66-7.49-10.15-7.74S.13,213.61,2.92,213.61Z"/><path class="cls-2" d="M.84,208.72s-1,3.62,5.44,4.7H7.62s1.18,2.48,2.53,2.29c0,0,5.53.29,6.13-4.93,0,0-2-6.18-8.46-6.81C7.82,204,2.62,202.18.84,208.72Z"/><path class="cls-3" d="M3.3,210.88s1-2.15,2.29-1.42c0,0,1.21.28-.25,1.42s-4.91,6.2-4.91,6.2l4.78,3.32,4.51-9.2s2,.38.88,2.29c0,0-1.32,1.4.33,1.37,0,0,2.73-2.39,0-3.85a5.14,5.14,0,0,0-2.61-.7c-1.52,0-.83-.25-1.14-.57,0,0-.57-1.08-2.67-1S2.48,212,3.3,210.88Z"/><path class="cls-2" d="M40.3,205s3.35,3,7.79-2.22l.69-1.23s3.24.38,3.73-1A6.18,6.18,0,0,0,50.42,192s-7.6-1.78-11.58,3.74C38.84,195.74,34.27,199.47,40.3,205Z"/><path class="cls-2" d="M44.09,175.8s-3,2.9,1.81,7.42l1.14.72s-.48,3,.78,3.54A5.89,5.89,0,0,0,56,186.17s2-6.95-3.12-11C52.92,175.12,49.56,170.6,44.09,175.8Z"/><path class="cls-3" d="M19.82,202s-1.66-1.89-.43-2.88c0,0,2.59-.69,3.09,1.25s3.81,5.27,3.81,5.27l5.6-2.82-2.25-1.11-.08-.05L27.68,199a1.76,1.76,0,0,0-.63-.55L25.27,197s-3.17-3.11.11-1.37c0,0,.81,1.9,1.46.22,0,0-1.16-3.72-3.71-1.53a5.86,5.86,0,0,0-1.77,2.36c-.64,1.55-.59.74-1,.93,0,0-1.28.15-2.09,2.3S20.58,203.26,19.82,202Z"/><path class="cls-3" d="M44.82,179.7s1.76-1.6,2.65-.43c0,0,1,.72-.78,1.21s-6.35,4.73-6.35,4.73l2.29,4,1.11-1.3a22.47,22.47,0,0,1,6.19-5.08l.68-.37a1.39,1.39,0,0,1-.06,2.45s-1.76.78-.23,1.38c0,0,3.44-1.14,1.48-3.54a5.13,5.13,0,0,0-2.14-1.66c-1.4-.58-.66-.55-.83-1,0,0-.11-1.22-2.07-2S43.61,180.44,44.82,179.7Z"/><path class="cls-1" d="M186.6,276.26s-4.44,3.17-2.92,7.11c0,0-2.16,3.3-4.19,3.93,0,0,1.78,5.72,2.92,5.72,0,0,1.4-3.94,4.19-4.57l.64-.76s-.64,1.9,4.69,1.9c0,0,5.08-.51,4.57-7.11C196.5,282.48,193.2,273,186.6,276.26Z"/><path class="cls-1" d="M191.68,302.28s3.09-2.39,0-7.74a9.45,9.45,0,0,0-12.19,2.54s-6,4.95.77,9.9c0,0,4.57,1.65,5.71,0,0,0,2.79,1.78,2.92,3.3,0,0,.51,1.14,2.41,0s4.7-2.54,4.7-2.54.88-1.27,0-1.52C196,306.22,194.09,306.73,191.68,302.28Z"/><path class="cls-2" d="M180,306.85s3.35,3,7.79-2.23l.69-1.23s3.24.38,3.73-1a6.18,6.18,0,0,0-2.08-8.57s-7.61-1.78-11.59,3.75C178.56,297.6,174,301.32,180,306.85Z"/><path class="cls-2" d="M183.81,277.65s-3,2.9,1.81,7.42l1.14.73s-.48,3,.78,3.54a5.9,5.9,0,0,0,8.22-1.32s2-6.94-3.12-11C192.64,277,189.28,272.45,183.81,277.65Z"/><path class="cls-3" d="M184.06,305.57s-1.65-1.89-.42-2.89c0,0,2.59-.68,3.08,1.25s3.82,5.27,3.82,5.27l5.6-2.82-2.25-1.1-.08-.06-1.88-2.59a1.86,1.86,0,0,0-.63-.55l-1.78-1.51s-3.17-3.11.11-1.36c0,0,.81,1.9,1.46.22,0,0-1.16-3.73-3.72-1.54a6,6,0,0,0-1.77,2.37c-.63,1.54-.58.73-1,.93,0,0-1.28.15-2.1,2.29S184.82,306.86,184.06,305.57Z"/><path class="cls-3" d="M184.54,281.55s1.77-1.59,2.66-.43c0,0,1,.73-.79,1.22s-6.34,4.72-6.34,4.72l2.28,4,1.11-1.3a22.47,22.47,0,0,1,6.19-5.08l.68-.37a1.39,1.39,0,0,1-.06,2.45s-1.76.79-.23,1.39c0,0,3.44-1.15,1.48-3.55a5.16,5.16,0,0,0-2.14-1.65c-1.4-.59-.66-.55-.83-1,0,0-.11-1.21-2.07-2S183.34,282.29,184.54,281.55Z"/><path class="cls-1" d="M164.61,250.62s-4.44,3.17-2.92,7.11c0,0-2.16,3.3-4.19,3.93,0,0,1.78,5.72,2.92,5.72,0,0,1.4-3.94,4.19-4.57l.64-.77s-.64,1.91,4.69,1.91c0,0,5.08-.51,4.57-7.11C174.51,256.84,171.21,247.32,164.61,250.62Z"/><path class="cls-1" d="M169.69,276.64s3.09-2.39,0-7.74c0,0-6.86-4.06-12.19,2.54,0,0-6,4.95.76,9.9,0,0,4.57,1.65,5.72,0,0,0,2.79,1.78,2.92,3.3,0,0,.5,1.14,2.41,0s4.7-2.54,4.7-2.54.88-1.27,0-1.52C174,280.58,172.1,281.09,169.69,276.64Z"/><path class="cls-1" d="M176,271.82s-3,3.71-2.92,4.58,6.22,4.3,6.22,4.3.25-2.41,3.3-5.83c0,0,.63,1.9,1.65.76,0,0,5.2.38,5.46-5.84,0,0-2.67-7.49-10.16-7.75S173.24,271.82,176,271.82Z"/><path class="cls-2" d="M174,266.93s-1,3.62,5.45,4.7h1.33s1.19,2.47,2.53,2.28c0,0,5.53.29,6.14-4.93,0,0-2.05-6.17-8.47-6.81C180.93,262.17,175.73,260.39,174,266.93Z"/><path class="cls-3" d="M176.42,269.09s1-2.16,2.28-1.43c0,0,1.21.29-.25,1.43s-4.91,6.2-4.91,6.2l4.78,3.32,4.51-9.2a1.39,1.39,0,0,1,.89,2.28s-1.32,1.41.32,1.37c0,0,2.74-2.38,0-3.84a5.21,5.21,0,0,0-2.61-.71c-1.52,0-.82-.25-1.14-.56,0,0-.57-1.08-2.67-1S175.59,270.23,176.42,269.09Z"/><path class="cls-2" d="M158,281.2s3.35,3,7.79-2.22l.69-1.23s3.24.38,3.73-1a6.18,6.18,0,0,0-2.08-8.57s-7.61-1.78-11.59,3.75C156.57,272,152,275.68,158,281.2Z"/><path class="cls-2" d="M161.82,252s-3,2.9,1.81,7.42l1.14.73s-.48,3,.78,3.53a5.89,5.89,0,0,0,8.22-1.31s2-6.95-3.12-11C170.65,251.33,167.29,246.81,161.82,252Z"/><path class="cls-3" d="M162.07,279.92s-1.65-1.88-.42-2.88c0,0,2.59-.68,3.08,1.25s3.82,5.27,3.82,5.27l5.6-2.82-2.25-1.11-.08-.05L169.94,277a1.76,1.76,0,0,0-.63-.55l-1.78-1.51s-3.17-3.11.11-1.37c0,0,.8,1.9,1.46.22,0,0-1.16-3.72-3.72-1.53a6,6,0,0,0-1.77,2.37c-.63,1.54-.58.73-1,.93,0,0-1.28.14-2.1,2.29S162.83,281.21,162.07,279.92Z"/><path class="cls-3" d="M162.55,255.91s1.77-1.6,2.66-.43c0,0,1,.72-.79,1.22s-6.34,4.72-6.34,4.72l2.28,4,1.11-1.3a22.47,22.47,0,0,1,6.19-5.08l.68-.37a1.39,1.39,0,0,1-.06,2.45s-1.76.79-.23,1.39c0,0,3.44-1.15,1.48-3.55a5.22,5.22,0,0,0-2.14-1.66c-1.4-.58-.66-.54-.83-1,0,0-.11-1.22-2.07-2S161.35,256.65,162.55,255.91Z"/><path class="cls-1" d="M231.08,196.26s-4.45,3.17-2.92,7.11c0,0-2.16,3.3-4.19,3.93,0,0,1.78,5.72,2.92,5.72,0,0,1.39-3.94,4.19-4.57l.63-.77s-.63,1.91,4.7,1.91c0,0,5.08-.51,4.57-7.11C241,202.48,237.68,193,231.08,196.26Z"/><path class="cls-1" d="M236.15,222.28s3.09-2.39,0-7.74A9.43,9.43,0,0,0,224,217.08s-6,4.95.76,9.9c0,0,4.57,1.65,5.71,0,0,0,2.8,1.78,2.92,3.3,0,0,.51,1.14,2.41,0s4.7-2.54,4.7-2.54.89-1.27,0-1.52C240.47,226.22,238.57,226.73,236.15,222.28Z"/><path class="cls-2" d="M224.5,226.85s3.35,3,7.79-2.23l.69-1.23s3.23.38,3.72-1a6.17,6.17,0,0,0-2.08-8.57S227,212.07,223,217.6C223,217.6,218.47,221.32,224.5,226.85Z"/><path class="cls-2" d="M228.28,197.65s-3,2.9,1.82,7.42l1.14.73s-.48,3,.78,3.54a5.9,5.9,0,0,0,8.22-1.32s2-6.94-3.12-11.05C237.12,197,233.75,192.45,228.28,197.65Z"/><path class="cls-3" d="M228.54,225.57s-1.66-1.89-.42-2.89c0,0,2.58-.68,3.08,1.25S235,229.2,235,229.2l5.6-2.82-2.25-1.11-.08-.05-1.87-2.59a2,2,0,0,0-.63-.55L234,220.57s-3.18-3.11.1-1.36c0,0,.81,1.9,1.46.21,0,0-1.16-3.72-3.71-1.53a5.85,5.85,0,0,0-1.77,2.37c-.63,1.54-.59.73-1,.93,0,0-1.28.15-2.09,2.29S229.3,226.86,228.54,225.57Z"/><path class="cls-3" d="M229,201.55s1.77-1.59,2.66-.43c0,0,1,.72-.78,1.22s-6.35,4.72-6.35,4.72l2.28,4,1.11-1.3a22.66,22.66,0,0,1,6.2-5.08l.68-.37a1.39,1.39,0,0,1-.07,2.45s-1.76.79-.22,1.39c0,0,3.44-1.15,1.48-3.55a5.22,5.22,0,0,0-2.14-1.66c-1.41-.58-.66-.54-.83-1,0,0-.12-1.21-2.07-2S227.81,202.29,229,201.55Z"/><path class="cls-1" d="M180.81,167.81s-4.44,3.18-2.92,7.11c0,0-2.16,3.3-4.19,3.94,0,0,1.78,5.71,2.92,5.71,0,0,1.4-3.94,4.19-4.57l.63-.76s-.63,1.9,4.7,1.9c0,0,5.08-.51,4.57-7.11C190.71,174,187.41,164.51,180.81,167.81Z"/><path class="cls-1" d="M185.89,193.84s3.08-2.4,0-7.75c0,0-6.86-4.06-12.19,2.54,0,0-6,5,.76,9.9,0,0,4.57,1.65,5.71,0,0,0,2.8,1.78,2.92,3.3,0,0,.51,1.15,2.42,0s4.69-2.54,4.69-2.54.89-1.27,0-1.52C190.2,197.77,188.3,198.28,185.89,193.84Z"/><path class="cls-1" d="M192.23,189s-3,3.72-2.91,4.59,6.22,4.3,6.22,4.3.25-2.41,3.3-5.84c0,0,.63,1.9,1.65.76,0,0,5.2.38,5.45-5.84,0,0-2.66-7.49-10.15-7.74S189.44,189,192.23,189Z"/><path class="cls-2" d="M190.15,184.12s-1,3.62,5.45,4.7h1.33s1.19,2.48,2.53,2.29c0,0,5.53.29,6.14-4.94,0,0-2-6.17-8.47-6.81C197.13,179.36,191.93,177.58,190.15,184.12Z"/><path class="cls-3" d="M192.62,186.28s1-2.15,2.28-1.42c0,0,1.21.28-.25,1.42s-4.91,6.2-4.91,6.2l4.78,3.32,4.51-9.2a1.38,1.38,0,0,1,.88,2.28s-1.32,1.41.33,1.37c0,0,2.73-2.38,0-3.84a5.14,5.14,0,0,0-2.61-.7c-1.52,0-.83-.25-1.14-.57,0,0-.57-1.08-2.67-1S191.79,187.43,192.62,186.28Z"/><path class="cls-2" d="M174.23,198.4s3.35,3,7.79-2.23l.69-1.22s3.24.38,3.73-1a6.19,6.19,0,0,0-2.09-8.58s-7.6-1.78-11.58,3.75C172.77,189.15,168.2,192.87,174.23,198.4Z"/><path class="cls-2" d="M178,169.21s-3,2.89,1.81,7.41l1.14.73s-.48,3,.78,3.54a5.9,5.9,0,0,0,8.22-1.31s2-7-3.12-11.06C186.85,168.52,183.49,164,178,169.21Z"/><path class="cls-3" d="M178.27,197.12s-1.66-1.89-.42-2.89c0,0,2.59-.68,3.08,1.26s3.81,5.26,3.81,5.26l5.61-2.82-2.26-1.1-.07-.06-1.88-2.59a2,2,0,0,0-.63-.55l-1.78-1.51s-3.17-3.11.11-1.36c0,0,.8,1.9,1.46.22,0,0-1.16-3.73-3.72-1.54a5.85,5.85,0,0,0-1.77,2.37c-.63,1.54-.58.73-1,.93,0,0-1.28.15-2.1,2.29S179,198.41,178.27,197.12Z"/><path class="cls-3" d="M178.75,173.11s1.76-1.6,2.65-.44c0,0,1,.73-.78,1.22s-6.35,4.72-6.35,4.72l2.29,4,1.11-1.3a22.26,22.26,0,0,1,6.19-5.07l.68-.38a1.39,1.39,0,0,1-.06,2.45s-1.76.79-.23,1.39c0,0,3.44-1.15,1.48-3.55a5.16,5.16,0,0,0-2.14-1.65c-1.4-.59-.66-.55-.83-1,0,0-.11-1.21-2.07-2S177.54,173.84,178.75,173.11Z"/><path class="cls-1" d="M238.8,82.39s-4.45,3.18-2.92,7.11c0,0-2.16,3.3-4.19,3.94,0,0,1.78,5.71,2.92,5.71,0,0,1.39-3.94,4.19-4.57l.63-.76s-.63,1.9,4.7,1.9c0,0,5.08-.51,4.57-7.11C248.7,88.61,245.4,79.09,238.8,82.39Z"/><path class="cls-1" d="M243.88,108.42s3.08-2.39,0-7.75c0,0-6.86-4.06-12.19,2.54,0,0-6,5,.76,9.9,0,0,4.57,1.65,5.71,0,0,0,2.8,1.78,2.92,3.3,0,0,.51,1.15,2.41,0s4.7-2.53,4.7-2.53.89-1.27,0-1.53C248.19,112.35,246.29,112.86,243.88,108.42Z"/><path class="cls-2" d="M232.22,113s3.35,3,7.79-2.22l.69-1.23s3.23.38,3.72-1a6.17,6.17,0,0,0-2.08-8.57s-7.61-1.79-11.58,3.74C230.76,103.73,226.19,107.46,232.22,113Z"/><path class="cls-2" d="M236,83.79s-3,2.89,1.82,7.41l1.14.73s-.48,3,.78,3.54A5.9,5.9,0,0,0,248,94.16s2-7-3.12-11.06C244.84,83.1,241.48,78.58,236,83.79Z"/><path class="cls-3" d="M236.26,111.7s-1.66-1.89-.42-2.89c0,0,2.58-.68,3.08,1.26s3.81,5.26,3.81,5.26l5.61-2.82-2.26-1.1-.08-.06-1.87-2.59a1.93,1.93,0,0,0-.63-.54l-1.78-1.52s-3.18-3.11.11-1.36c0,0,.8,1.9,1.45.22,0,0-1.16-3.73-3.71-1.54a5.94,5.94,0,0,0-1.77,2.37c-.63,1.54-.59.73-1,.93,0,0-1.29.15-2.1,2.3S237,113,236.26,111.7Z"/><path class="cls-3" d="M236.73,87.69s1.77-1.6,2.66-.44c0,0,1,.73-.78,1.22s-6.35,4.72-6.35,4.72l2.28,4,1.11-1.31a22.44,22.44,0,0,1,6.2-5.07l.68-.38a1.39,1.39,0,0,1-.06,2.45s-1.77.79-.23,1.39c0,0,3.44-1.15,1.48-3.55a5.16,5.16,0,0,0-2.14-1.65c-1.41-.58-.66-.55-.83-1,0,0-.12-1.21-2.07-2S235.53,88.42,236.73,87.69Z"/><path class="cls-1" d="M207.08,112.62s-4.44,3.18-2.92,7.11c0,0-2.15,3.3-4.18,3.94,0,0,1.77,5.71,2.92,5.71,0,0,1.39-3.93,4.18-4.57l.64-.76s-.64,1.9,4.7,1.9c0,0,5.07-.5,4.57-7.11C217,118.84,213.69,109.32,207.08,112.62Z"/><path class="cls-1" d="M212.16,138.65s3.09-2.39,0-7.75A9.43,9.43,0,0,0,200,133.44s-6,4.95.76,9.9c0,0,4.57,1.65,5.71,0,0,0,2.79,1.78,2.92,3.31,0,0,.51,1.14,2.41,0s4.7-2.54,4.7-2.54.89-1.27,0-1.53C216.48,142.58,214.57,143.09,212.16,138.65Z"/><path class="cls-1" d="M218.51,133.82s-3,3.72-2.92,4.59,6.22,4.3,6.22,4.3.25-2.41,3.3-5.84c0,0,.64,1.9,1.65.76,0,0,5.21.38,5.46-5.84,0,0-2.67-7.49-10.16-7.74S215.72,133.82,218.51,133.82Z"/><path class="cls-2" d="M216.42,128.93s-1,3.62,5.45,4.7h1.34s1.18,2.48,2.52,2.29c0,0,5.54.29,6.14-4.93,0,0-2-6.18-8.46-6.81C223.41,124.18,218.2,122.39,216.42,128.93Z"/><path class="cls-3" d="M218.89,131.09s1-2.15,2.29-1.42c0,0,1.2.28-.26,1.42s-4.91,6.2-4.91,6.2l4.78,3.33,4.51-9.21a1.39,1.39,0,0,1,.89,2.29s-1.32,1.4.32,1.37c0,0,2.74-2.39,0-3.85a5.14,5.14,0,0,0-2.61-.7c-1.52,0-.82-.25-1.14-.57,0,0-.57-1.08-2.66-1S218.07,132.24,218.89,131.09Z"/><path class="cls-2" d="M200.5,143.21s3.35,3,7.8-2.22l.68-1.23s3.24.38,3.73-1a6.18,6.18,0,0,0-2.08-8.57S203,128.43,199,134C199,134,194.47,137.69,200.5,143.21Z"/><path class="cls-2" d="M204.29,114s-3,2.89,1.82,7.41l1.14.73s-.49,3,.78,3.54a5.89,5.89,0,0,0,8.21-1.31s2-7-3.11-11C213.13,113.34,209.76,108.81,204.29,114Z"/><path class="cls-3" d="M204.55,141.93s-1.66-1.89-.43-2.88c0,0,2.59-.69,3.08,1.25s3.82,5.26,3.82,5.26l5.6-2.81-2.25-1.11-.08,0-1.88-2.6a1.83,1.83,0,0,0-.63-.54L210,136.93s-3.17-3.11.11-1.36c0,0,.81,1.9,1.46.22,0,0-1.16-3.72-3.71-1.53a5.86,5.86,0,0,0-1.77,2.36c-.64,1.54-.59.74-1,.93,0,0-1.28.15-2.09,2.3S205.31,143.22,204.55,141.93Z"/><path class="cls-3" d="M205,117.92s1.77-1.6,2.66-.44c0,0,1,.73-.79,1.22s-6.34,4.72-6.34,4.72l2.28,4,1.11-1.31a22.26,22.26,0,0,1,6.19-5.07l.68-.38a1.39,1.39,0,0,1-.06,2.45s-1.76.79-.23,1.39c0,0,3.45-1.15,1.48-3.55a5.17,5.17,0,0,0-2.13-1.65c-1.41-.58-.67-.55-.84-1,0,0-.11-1.22-2.07-2S203.82,118.66,205,117.92Z"/><path class="cls-1" d="M72.71,122.85S68.27,126,69.79,130c0,0-2.16,3.3-4.19,3.94,0,0,1.78,5.71,2.92,5.71,0,0,1.4-3.94,4.19-4.57l.64-.76s-.64,1.9,4.69,1.9c0,0,5.08-.51,4.57-7.11C82.61,129.07,79.31,119.55,72.71,122.85Z"/><path class="cls-1" d="M77.79,148.87s3.08-2.39,0-7.74c0,0-6.86-4.06-12.19,2.54,0,0-6,5,.76,9.9,0,0,4.57,1.65,5.72,0,0,0,2.79,1.78,2.92,3.3,0,0,.5,1.14,2.41,0s4.69-2.54,4.69-2.54.89-1.27,0-1.52C82.1,152.81,80.2,153.32,77.79,148.87Z"/><path class="cls-2" d="M66.13,153.44s3.35,3,7.79-2.23l.69-1.23s3.24.38,3.73-1a6.19,6.19,0,0,0-2.09-8.58s-7.6-1.78-11.58,3.75C64.67,144.19,60.1,147.91,66.13,153.44Z"/><path class="cls-2" d="M69.92,124.25s-3,2.89,1.81,7.41l1.14.73s-.48,3,.78,3.54a5.9,5.9,0,0,0,8.22-1.32s2-6.94-3.12-11.05C78.75,123.56,75.39,119,69.92,124.25Z"/><path class="cls-3" d="M70.17,152.16s-1.65-1.89-.42-2.89c0,0,2.59-.68,3.08,1.25s3.82,5.27,3.82,5.27l5.6-2.82L80,151.87l-.08-.06L78,149.22a2,2,0,0,0-.63-.55l-1.78-1.51s-3.17-3.11.11-1.36c0,0,.8,1.9,1.46.22,0,0-1.16-3.73-3.72-1.54a5.85,5.85,0,0,0-1.77,2.37c-.63,1.54-.58.73-1,.93,0,0-1.28.15-2.1,2.29S70.93,153.45,70.17,152.16Z"/><path class="cls-3" d="M70.65,128.14s1.76-1.59,2.65-.43c0,0,1,.73-.78,1.22s-6.35,4.72-6.35,4.72l2.29,4,1.11-1.3a22.47,22.47,0,0,1,6.19-5.08l.68-.37a1.39,1.39,0,0,1-.06,2.45s-1.76.79-.23,1.39c0,0,3.44-1.15,1.48-3.55a5.16,5.16,0,0,0-2.14-1.65c-1.4-.59-.66-.55-.83-1,0,0-.11-1.21-2.07-2S69.45,128.88,70.65,128.14Z"/><path class="cls-1" d="M50.72,97.21s-4.44,3.17-2.92,7.11c0,0-2.16,3.3-4.19,3.93,0,0,1.78,5.72,2.92,5.72,0,0,1.4-3.94,4.19-4.57l.64-.77s-.64,1.91,4.69,1.91c0,0,5.08-.51,4.57-7.11C60.62,103.43,57.32,93.91,50.72,97.21Z"/><path class="cls-1" d="M55.8,123.23s3.08-2.39,0-7.74c0,0-6.86-4.06-12.19,2.54,0,0-6,5,.76,9.9,0,0,4.57,1.65,5.72,0,0,0,2.79,1.78,2.92,3.3,0,0,.5,1.14,2.41,0s4.69-2.54,4.69-2.54.89-1.27,0-1.52C60.11,127.17,58.21,127.68,55.8,123.23Z"/><path class="cls-1" d="M86,142.49s-3,3.71-2.92,4.58,6.22,4.3,6.22,4.3.25-2.41,3.3-5.84c0,0,.63,1.91,1.65.77,0,0,5.2.38,5.46-5.84,0,0-2.67-7.49-10.16-7.75S83.17,142.49,86,142.49Z"/><path class="cls-2" d="M83.88,137.6s-1,3.62,5.45,4.7h1.33s1.19,2.47,2.53,2.28c0,0,5.53.29,6.14-4.93,0,0-2-6.17-8.47-6.81C90.86,132.84,85.66,131.06,83.88,137.6Z"/><path class="cls-3" d="M86.35,139.76s1-2.16,2.28-1.43c0,0,1.21.29-.25,1.43S83.47,146,83.47,146l4.78,3.33,4.51-9.2a1.39,1.39,0,0,1,.89,2.28s-1.32,1.41.32,1.37c0,0,2.74-2.39,0-3.85a5.26,5.26,0,0,0-2.61-.7c-1.52,0-.82-.25-1.14-.56,0,0-.57-1.08-2.67-1S85.52,140.9,86.35,139.76Z"/><path class="cls-2" d="M44.14,127.79s3.35,3,7.79-2.22l.69-1.23s3.24.38,3.73-1a6.18,6.18,0,0,0-2.09-8.57s-7.6-1.78-11.58,3.75C42.68,118.55,38.11,122.27,44.14,127.79Z"/><path class="cls-2" d="M47.93,98.6s-3,2.9,1.81,7.42l1.14.73s-.48,3,.78,3.53A5.89,5.89,0,0,0,59.88,109s2-7-3.12-11C56.76,97.92,53.4,93.4,47.93,98.6Z"/><path class="cls-3" d="M48.18,126.51s-1.66-1.88-.42-2.88c0,0,2.59-.68,3.08,1.25s3.82,5.27,3.82,5.27l5.6-2.82L58,126.22l-.08,0-1.88-2.59a1.85,1.85,0,0,0-.63-.55l-1.78-1.51s-3.17-3.11.11-1.37c0,0,.8,1.9,1.46.22,0,0-1.16-3.72-3.72-1.53a5.85,5.85,0,0,0-1.77,2.37c-.63,1.54-.58.73-1,.93,0,0-1.28.14-2.1,2.29S48.94,127.8,48.18,126.51Z"/><path class="cls-3" d="M48.66,102.5s1.76-1.6,2.65-.43c0,0,1,.72-.78,1.22S44.18,108,44.18,108l2.29,4,1.11-1.3a22.47,22.47,0,0,1,6.19-5.08l.68-.37a1.39,1.39,0,0,1-.06,2.45s-1.76.79-.23,1.39c0,0,3.44-1.15,1.48-3.55a5.22,5.22,0,0,0-2.14-1.66c-1.4-.58-.66-.54-.83-1,0,0-.11-1.22-2.07-2S47.45,103.24,48.66,102.5Z"/><path class="cls-1" d="M74,278s-4.45,3.17-2.92,7.11c0,0-2.16,3.3-4.19,3.93,0,0,1.78,5.72,2.92,5.72,0,0,1.39-3.94,4.19-4.57l.63-.77s-.63,1.91,4.7,1.91c0,0,5.08-.51,4.57-7.11C83.94,284.19,80.64,274.67,74,278Z"/><path class="cls-1" d="M79.12,304s3.08-2.39,0-7.74c0,0-6.86-4.06-12.19,2.54,0,0-6,4.95.76,9.9,0,0,4.57,1.65,5.71,0,0,0,2.8,1.78,2.92,3.3,0,0,.51,1.14,2.41,0s4.7-2.54,4.7-2.54.89-1.27,0-1.52C83.43,307.93,81.53,308.44,79.12,304Z"/><path class="cls-2" d="M67.46,308.56s3.35,3,7.79-2.23l.69-1.23s3.23.38,3.72-1a6.17,6.17,0,0,0-2.08-8.57S70,293.78,66,299.31C66,299.31,61.43,303,67.46,308.56Z"/><path class="cls-2" d="M71.24,279.36s-3,2.9,1.82,7.42l1.14.73s-.48,3,.78,3.54a5.9,5.9,0,0,0,8.22-1.32s2-6.94-3.12-11.05C80.08,278.68,76.72,274.16,71.24,279.36Z"/><path class="cls-3" d="M71.5,307.28s-1.66-1.89-.42-2.89c0,0,2.59-.68,3.08,1.25S78,310.91,78,310.91l5.61-2.82L81.32,307l-.08-.05-1.87-2.59a1.85,1.85,0,0,0-.63-.55L77,302.28s-3.18-3.11.11-1.36c0,0,.8,1.89,1.45.21,0,0-1.16-3.72-3.71-1.53A5.85,5.85,0,0,0,73,302c-.63,1.54-.59.73-1,.93,0,0-1.29.15-2.1,2.29S72.26,308.57,71.5,307.28Z"/><path class="cls-3" d="M72,283.26s1.77-1.59,2.66-.43c0,0,1,.72-.78,1.22s-6.35,4.72-6.35,4.72l2.28,4,1.11-1.3a22.66,22.66,0,0,1,6.2-5.08l.68-.37a1.39,1.39,0,0,1-.06,2.45s-1.77.79-.23,1.39c0,0,3.44-1.15,1.48-3.55a5.22,5.22,0,0,0-2.14-1.66c-1.41-.58-.66-.54-.83-1,0,0-.12-1.21-2.07-2S70.77,284,72,283.26Z"/><path class="cls-1" d="M91.15,245.33s-4.44,3.17-2.92,7.11c0,0-2.15,3.3-4.19,3.93,0,0,1.78,5.72,2.92,5.72,0,0,1.4-3.94,4.19-4.57l.64-.77s-.64,1.91,4.7,1.91c0,0,5.07-.51,4.57-7.11C101.06,251.55,97.75,242,91.15,245.33Z"/><path class="cls-1" d="M96.23,271.35s3.09-2.39,0-7.74A9.45,9.45,0,0,0,84,266.15s-6,5,.77,9.9c0,0,4.57,1.65,5.71,0,0,0,2.79,1.78,2.92,3.3,0,0,.51,1.14,2.41,0s4.7-2.54,4.7-2.54.89-1.27,0-1.52C100.55,275.29,98.64,275.8,96.23,271.35Z"/><path class="cls-1" d="M102.58,266.53s-3,3.71-2.92,4.59,6.22,4.3,6.22,4.3.25-2.42,3.3-5.84c0,0,.63,1.9,1.65.76,0,0,5.2.38,5.46-5.84,0,0-2.67-7.49-10.16-7.75S99.79,266.53,102.58,266.53Z"/><path class="cls-2" d="M100.49,261.64s-1,3.62,5.45,4.7h1.34s1.18,2.47,2.52,2.28c0,0,5.54.3,6.14-4.93,0,0-2-6.17-8.46-6.81C107.48,256.88,102.27,255.1,100.49,261.64Z"/><path class="cls-3" d="M103,263.8s1-2.16,2.28-1.43c0,0,1.21.29-.25,1.43s-4.91,6.2-4.91,6.2l4.78,3.32,4.51-9.2a1.39,1.39,0,0,1,.89,2.28s-1.32,1.41.32,1.37c0,0,2.74-2.38,0-3.84a5.21,5.21,0,0,0-2.61-.71c-1.52,0-.82-.24-1.14-.56,0,0-.57-1.08-2.66-1S102.14,264.94,103,263.8Z"/><path class="cls-2" d="M84.57,275.92s3.35,3,7.8-2.23l.68-1.23s3.24.38,3.73-1a6.18,6.18,0,0,0-2.08-8.57s-7.61-1.78-11.59,3.75C83.11,266.67,78.54,270.39,84.57,275.92Z"/><path class="cls-2" d="M88.36,246.72s-3,2.9,1.82,7.42l1.14.73s-.49,3,.78,3.54a5.89,5.89,0,0,0,8.21-1.32s2-6.94-3.11-11C97.2,246,93.83,241.52,88.36,246.72Z"/><path class="cls-3" d="M88.62,274.64s-1.66-1.89-.43-2.89c0,0,2.59-.68,3.08,1.25s3.82,5.27,3.82,5.27l5.6-2.82-2.25-1.11-.08,0-1.88-2.59a1.76,1.76,0,0,0-.63-.55l-1.78-1.51s-3.17-3.11.11-1.36c0,0,.81,1.89,1.46.21,0,0-1.16-3.72-3.71-1.53a5.85,5.85,0,0,0-1.77,2.37c-.64,1.54-.59.73-1,.93,0,0-1.28.15-2.09,2.29S89.38,275.93,88.62,274.64Z"/><path class="cls-3" d="M89.09,250.62s1.77-1.59,2.66-.43c0,0,1,.72-.79,1.22s-6.34,4.72-6.34,4.72l2.28,4,1.11-1.3a22.47,22.47,0,0,1,6.19-5.08l.68-.37a1.39,1.39,0,0,1-.06,2.45s-1.76.79-.23,1.39c0,0,3.44-1.15,1.48-3.55A5.23,5.23,0,0,0,93.94,252c-1.41-.58-.67-.54-.84-1,0,0-.11-1.21-2.07-2S87.89,251.36,89.09,250.62Z"/><path class="cls-1" d="M264.34,128.9s.87,5.39,5.07,5.78c0,0,2,3.4,1.66,5.5,0,0,5.91.95,6.42-.07,0,0-2.91-3-2.23-5.79l-.4-.91s1.42,1.42,3.79-3.36c0,0,1.8-4.77-4.33-7.25C274.32,122.8,264.32,121.52,264.34,128.9Z"/><path class="cls-1" d="M162.41,91.13s-.77-3.83-6.93-3.44a9.44,9.44,0,0,0-3.15,12s1.78,7.55,9.21,3.72c0,0,3.51-3.36,2.54-5.11,0,0,2.83-1.71,4.25-1.15,0,0,1.25,0,1.07-2.16s-.18-5.34-.18-5.34-.74-1.36-1.36-.67C167.86,89,167.46,91,162.41,91.13Z"/><path class="cls-2" d="M161.31,103.6s4.21-1.65,1.48-8l-.8-1.16s1.78-2.73.79-3.77a6.17,6.17,0,0,0-8.6-1.94s-5,6-1.8,12C152.38,100.8,153.69,106.55,161.31,103.6Z"/><path class="cls-2" d="M264.35,132s1.25,4,7.45,1.67L273,133s2.45,1.76,3.51.87a5.9,5.9,0,0,0,2.48-7.94s-5.34-4.87-11.28-2.12C267.67,123.81,262.12,124.81,264.35,132Z"/><path class="cls-3" d="M162,99.41s-2.42.65-2.77-.9c0,0,.54-2.62,2.49-2.2s6.42-1.08,6.42-1.08l0-6.27-2,1.52-.08,0-3.16.53a2,2,0,0,0-.77.32l-2.14.92s-4.2,1.46-1.18-.7c0,0,2.06.12.85-1.21,0,0-3.85-.62-3,2.64a5.89,5.89,0,0,0,1.33,2.64c1.11,1.25.4.85.38,1.33,0,0-.44,1.22,1.13,2.9S163.46,99.3,162,99.41Z"/><path class="cls-3" d="M268.16,133.1s-.64-2.29.8-2.57c0,0,1.09-.58.74,1.24s1.41,7.79,1.41,7.79l4.61-.26-.68-1.58a22.52,22.52,0,0,1-1.79-7.8l0-.77s1.73-1,2.16,1.14c0,0-.07,1.93,1.15.82,0,0,.5-3.59-2.52-2.9a5.22,5.22,0,0,0-2.44,1.18c-1.14,1-.78.35-1.23.32,0,0-1.14-.45-2.68,1S268.29,134.51,268.16,133.1Z"/><path class="cls-1" d="M107.26,110.66s.87,5.39,5.07,5.78c0,0,2,3.4,1.66,5.5,0,0,5.91,1,6.42-.07,0,0-2.91-3-2.23-5.79l-.4-.91s1.42,1.42,3.79-3.36c0,0,1.8-4.77-4.33-7.25C117.24,104.56,107.24,103.28,107.26,110.66Z"/><path class="cls-1" d="M257.16,144.22s-.77-3.83-6.93-3.44a9.44,9.44,0,0,0-3.15,12s1.78,7.55,9.21,3.72c0,0,3.51-3.36,2.54-5.12,0,0,2.83-1.71,4.25-1.14,0,0,1.25.05,1.08-2.16s-.19-5.34-.19-5.34-.74-1.36-1.36-.68C262.61,142.1,262.21,144,257.16,144.22Z"/><path class="cls-1" d="M255.66,136.39s2,4.38,2.81,4.65,6.62-3.66,6.62-3.66-2-1.3-3.76-5.55c0,0,2,.28,1.41-1.14,0,0,2.66-4.49-2.8-7.48,0,0-7.89-.95-11.45,5.65S254.42,138.89,255.66,136.39Z"/><path class="cls-2" d="M250.35,136.08s2.82,2.48,6.64-2.79l.59-1.19s2.75,0,3.17-1.25c0,0,2.72-4.83-1.69-7.69,0,0-6.43-.91-9.86,4.55C249.2,127.71,245.29,131.58,250.35,136.08Z"/><path class="cls-3" d="M253.39,134.83s-1.48-1.86-.26-2.68c0,0,.79-1,1.16.86s3.37,7.16,3.37,7.16l5.1-2.81-6.24-8.13a1.4,1.4,0,0,1,2.45.22s.67,1.81,1.37.32c0,0-.92-3.51-3.45-1.71a5.15,5.15,0,0,0-1.79,2c-.67,1.36-.59.62-1,.77,0,0-1.22,0-2.1,1.93S254.05,136.08,253.39,134.83Z"/><path class="cls-2" d="M256.06,156.69s4.21-1.65,1.48-8l-.8-1.16s1.78-2.73.79-3.77a6.18,6.18,0,0,0-8.6-1.95s-5,6-1.8,12C247.13,153.88,248.44,159.63,256.06,156.69Z"/><path class="cls-2" d="M107.27,113.78s1.25,4,7.45,1.68l1.16-.7s2.45,1.76,3.51.87a5.89,5.89,0,0,0,2.48-7.94s-5.34-4.86-11.28-2.12C110.59,105.57,105,106.57,107.27,113.78Z"/><path class="cls-3" d="M256.71,152.5s-2.42.64-2.77-.9c0,0,.54-2.63,2.5-2.21s6.41-1.07,6.41-1.07l0-6.27-2,1.52-.08.05-3.16.53a1.74,1.74,0,0,0-.77.32l-2.14.92s-4.2,1.46-1.18-.7c0,0,2.06.12.85-1.21,0,0-3.85-.62-3,2.64a5.89,5.89,0,0,0,1.33,2.64c1.11,1.25.4.85.38,1.33,0,0-.43,1.21,1.13,2.9S258.21,152.39,256.71,152.5Z"/><path class="cls-3" d="M111.08,114.87s-.64-2.3.8-2.58c0,0,1.09-.57.74,1.25s1.41,7.78,1.41,7.78l4.61-.26-.68-1.58a22.52,22.52,0,0,1-1.79-7.8l0-.77s1.73-1,2.16,1.14c0,0-.07,1.93,1.15.82,0,0,.5-3.59-2.52-2.9a5.16,5.16,0,0,0-2.43,1.18c-1.15,1-.79.35-1.24.32,0,0-1.14-.44-2.68,1S111.21,116.27,111.08,114.87Z"/></g></g></g></svg>