<svg xmlns="http://www.w3.org/2000/svg" viewBox="0 0 300.48 296.04"><defs><style>.cls-1{fill:#271d0f;stroke:#a26928;stroke-miterlimit:10;stroke-width:0.25px;}</style></defs><title>olives</title><g id="Layer_2" data-name="Layer 2"><g id="Olives_Pizza" data-name="Olives Pizza"><g id="Olives"><path class="cls-1" d="M110.5,94.5a5.49,5.49,0,0,1,6.26-1.36c3.63,1.67,1.16,4.8.33,5.13s.17,2.09-4.45-.17c0,0-1.65-3.67-3-1.75s1.82,7.69,7.59,5.55,4.45-5.61,4.45-5.61-1.81-8.57-8.08-6.1S109.51,95.55,110.5,94.5Z"/><path class="cls-1" d="M92.8,46.86c9.19-1.64,5.51,5.39,4.64,5.72-.55.22-1.06,1-2.19.83-1.72-.18-3.74-1.37-3.38-3,.58-2.78,2.22-7.26,1.34-6C91.89,46.3,85,55,96.57,55.61c6.15.31,4.72-5.13,4.72-5.13s-1.81-8.58-8.08-6.1"/><path class="cls-1" d="M197.85,139.43a5.5,5.5,0,0,1,6.27-1.36c3.63,1.66,1.15,4.8.33,5.13s.16,2.08-4.45-.17c0,0-1.65-3.67-3-1.75s1.81,7.69,7.58,5.55,4.46-5.61,4.46-5.61-1.82-8.58-8.08-6.1S196.86,140.48,197.85,139.43Z"/><path class="cls-1" d="M164.27,47.43c9.19-1.64,5.51,5.39,4.65,5.72-.56.22-1.07,1-2.2.83-1.71-.18-3.74-1.37-3.38-3,.59-2.77,2.23-7.26,1.34-6-1.31,1.92-8.18,10.66,3.36,11.24,6.15.3,4.73-5.14,4.73-5.14S171,42.48,164.68,45"/><path class="cls-1" d="M65.92,210.78a5.5,5.5,0,0,1,6.27-1.37c3.63,1.67,1.16,4.8.33,5.13s.17,2.09-4.45-.16c0,0-1.65-3.68-3-1.76s1.81,7.69,7.59,5.55,4.45-5.61,4.45-5.61-1.82-8.57-8.08-6.1S64.93,211.82,65.92,210.78Z"/><path class="cls-1" d="M116.91,206.39a5.5,5.5,0,0,1,6.27-1.37c3.62,1.67,1.15,4.8.33,5.13s.16,2.09-4.46-.16c0,0-1.65-3.68-3-1.76s1.81,7.69,7.58,5.55,4.45-5.61,4.45-5.61-1.81-8.57-8.08-6.1S115.92,207.44,116.91,206.39Z"/><path class="cls-1" d="M276.32,218.72a5.48,5.48,0,0,1,6.26-1.36c3.63,1.67,1.16,4.8.33,5.13s.17,2.09-4.45-.17c0,0-1.65-3.67-3-1.75s1.81,7.69,7.59,5.55,4.45-5.61,4.45-5.61-1.81-8.58-8.08-6.1S275.32,219.77,276.32,218.72Z"/><path class="cls-1" d="M230.65,113.52a5.5,5.5,0,0,1,6.27-1.36c3.63,1.67,1.16,4.8.33,5.13s.17,2.09-4.45-.17c0,0-1.65-3.67-3-1.75s1.81,7.69,7.59,5.55,4.45-5.61,4.45-5.61-1.82-8.58-8.08-6.1S229.66,114.57,230.65,113.52Z"/><path class="cls-1" d="M219.48,36.54a5.51,5.51,0,0,1,6.27-1.37c3.63,1.67,1.15,4.81.33,5.14s.16,2.08-4.45-.17c0,0-1.65-3.67-3-1.75s1.81,7.69,7.58,5.54,4.46-5.6,4.46-5.6-1.82-8.58-8.08-6.11S218.49,37.59,219.48,36.54Z"/><path class="cls-1" d="M105.92,175a5.5,5.5,0,0,1,6.27-1.36c3.62,1.67,1.15,4.8.33,5.13s.16,2.09-4.46-.17c0,0-1.65-3.67-3-1.75s1.82,7.69,7.59,5.55,4.45-5.61,4.45-5.61-1.81-8.58-8.08-6.1S104.93,176.08,105.92,175Z"/><path class="cls-1" d="M175.73,8.65A5.5,5.5,0,0,1,182,7.29c3.63,1.66,1.16,4.8.33,5.13s.17,2.08-4.45-.17c0,0-1.65-3.67-3-1.75s1.81,7.69,7.59,5.54,4.45-5.6,4.45-5.6-1.82-8.58-8.08-6.1S174.74,9.7,175.73,8.65Z"/><path class="cls-1" d="M173.2,89.59a5.5,5.5,0,0,1,6.27-1.37c3.62,1.67,1.15,4.8.33,5.13s.16,2.09-4.46-.16c0,0-1.65-3.68-3-1.76S174.19,99.12,180,97s4.45-5.61,4.45-5.61-1.81-8.57-8.08-6.1S172.21,90.64,173.2,89.59Z"/><path class="cls-1" d="M47.94,106.68a5.51,5.51,0,0,1,6.27-1.37c3.63,1.67,1.15,4.81.33,5.14s.16,2.08-4.46-.17c0,0-1.64-3.67-3-1.75s1.81,7.69,7.58,5.54,4.45-5.6,4.45-5.6-1.81-8.58-8.08-6.11S47,107.73,47.94,106.68Z"/><path class="cls-1" d="M3.47,139.43a5.5,5.5,0,0,1,6.27-1.36c3.63,1.66,1.16,4.8.33,5.13s.17,2.08-4.45-.17c0,0-1.65-3.67-3-1.75s1.81,7.69,7.59,5.55,4.45-5.61,4.45-5.61-1.82-8.58-8.08-6.1S2.48,140.48,3.47,139.43Z"/><path class="cls-1" d="M62.6,143.45a5.51,5.51,0,0,1,6.27-1.37c3.63,1.67,1.15,4.81.33,5.14s.16,2.08-4.45-.17c0,0-1.65-3.67-3-1.75s1.81,7.69,7.58,5.54,4.46-5.6,4.46-5.6-1.82-8.58-8.08-6.11S61.61,144.5,62.6,143.45Z"/><path class="cls-1" d="M34.64,82.26a5.5,5.5,0,0,1-.07-6.42c2.36-3.21,4.93-.16,5.09.72s2.08.26-1.06,4.33c0,0-3.94.87-2.32,2.55s7.9-.22,7-6.31-4.6-5.49-4.6-5.49-8.76,0-7.61,6.68S35.46,83.44,34.64,82.26Z"/><path class="cls-1" d="M255.88,72.35A5.51,5.51,0,0,1,262.15,71c3.62,1.67,1.15,4.8.33,5.13s.16,2.09-4.46-.16c0,0-1.65-3.67-3-1.76s1.82,7.7,7.59,5.55,4.45-5.6,4.45-5.6S265.28,65.56,259,68,254.89,73.4,255.88,72.35Z"/><path class="cls-1" d="M274.8,141a5.5,5.5,0,0,1,6.27-1.37c3.63,1.67,1.15,4.8.33,5.13s.16,2.09-4.45-.16c0,0-1.65-3.68-3-1.76s1.81,7.69,7.58,5.55,4.46-5.61,4.46-5.61-1.82-8.57-8.08-6.1S273.81,142.05,274.8,141Z"/><path class="cls-1" d="M43.2,171.57c9.19-1.64,5.51,5.39,4.64,5.72-.55.22-1.06,1-2.2.83-1.71-.18-3.73-1.37-3.37-3.05.58-2.78,2.22-7.26,1.34-6C42.29,171,35.42,179.75,47,180.32c6.14.31,4.72-5.13,4.72-5.13s-1.81-8.57-8.08-6.1"/><path class="cls-1" d="M16.3,214.58c9.19-1.64,5.51,5.39,4.65,5.72-.56.22-1.07.95-2.2.83-1.72-.18-3.74-1.37-3.38-3,.58-2.78,2.22-7.26,1.34-6-1.32,1.92-8.19,10.66,3.36,11.23,6.15.31,4.72-5.13,4.72-5.13s-1.81-8.57-8.08-6.1"/><path class="cls-1" d="M90.23,236.85c9.19-1.64,5.51,5.39,4.65,5.72-.55.22-1.06,1-2.2.83C91,243.22,89,242,89.3,240.35c.59-2.78,2.23-7.26,1.35-6C89.33,236.29,82.46,245,94,245.6c6.15.31,4.73-5.13,4.73-5.13s-1.82-8.58-8.08-6.1"/><path class="cls-1" d="M163.34,214.13c9.19-1.64,5.51,5.39,4.65,5.73-.56.21-1.07.95-2.2.83-1.71-.19-3.74-1.38-3.38-3.06.59-2.77,2.23-7.26,1.34-6-1.31,1.92-8.19,10.66,3.36,11.24,6.15.31,4.73-5.14,4.73-5.14s-1.82-8.57-8.09-6.1"/><path class="cls-1" d="M209.08,244.72c9.19-1.64,5.51,5.39,4.64,5.72-.55.22-1.06.95-2.19.83-1.72-.18-3.74-1.37-3.38-3.05.58-2.78,2.22-7.26,1.34-6-1.32,1.92-8.19,10.66,3.36,11.23,6.15.31,4.72-5.13,4.72-5.13s-1.81-8.58-8.08-6.1"/><path class="cls-1" d="M283.27,170.43c9.19-1.64,5.51,5.39,4.65,5.73-.56.21-1.07,1-2.2.83-1.71-.19-3.74-1.38-3.38-3.06.59-2.77,2.23-7.26,1.34-6-1.32,1.92-8.19,10.66,3.36,11.24,6.15.31,4.73-5.14,4.73-5.14s-1.82-8.57-8.09-6.1"/><path class="cls-1" d="M157.28,181.58a5.5,5.5,0,0,1,6.27-1.37c3.63,1.67,1.16,4.8.33,5.13s.17,2.09-4.45-.16c0,0-1.65-3.68-3-1.76s1.81,7.69,7.59,5.55,4.45-5.61,4.45-5.61-1.82-8.57-8.08-6.1S156.29,182.63,157.28,181.58Z"/><path class="cls-1" d="M101,137.44a5.51,5.51,0,0,1,6.27-1.37c3.62,1.67,1.15,4.81.33,5.14s.16,2.08-4.46-.17c0,0-1.65-3.67-3-1.75s1.82,7.69,7.59,5.54,4.45-5.6,4.45-5.6-1.81-8.58-8.08-6.1S100,138.49,101,137.44Z"/><path class="cls-1" d="M211.4,288.06a5.5,5.5,0,0,1,6.27-1.37c3.62,1.67,1.15,4.8.33,5.13s.16,2.09-4.46-.16c0,0-1.65-3.68-3-1.76s1.82,7.69,7.59,5.55,4.45-5.61,4.45-5.61-1.81-8.57-8.08-6.1S210.41,289.1,211.4,288.06Z"/><path class="cls-1" d="M168.89,255.45a5.5,5.5,0,0,1,6.27-1.37c3.63,1.67,1.16,4.8.33,5.13s.17,2.09-4.45-.16c0,0-1.65-3.68-3-1.76s1.81,7.69,7.59,5.55,4.45-5.61,4.45-5.61-1.82-8.57-8.08-6.1S167.9,256.5,168.89,255.45Z"/><path class="cls-1" d="M245.85,227.66a5.5,5.5,0,0,1,6.27-1.36c3.62,1.66,1.15,4.8.33,5.13s.16,2.08-4.46-.17c0,0-1.65-3.67-3-1.75s1.82,7.69,7.59,5.54,4.45-5.6,4.45-5.6-1.81-8.58-8.08-6.1S244.86,228.71,245.85,227.66Z"/><path class="cls-1" d="M109,260.78a5.5,5.5,0,0,1,6.27-1.36c3.62,1.66,1.15,4.8.33,5.13s.16,2.08-4.46-.17c0,0-1.65-3.67-3-1.75s1.82,7.69,7.59,5.54,4.45-5.6,4.45-5.6-1.81-8.58-8.08-6.1S108,261.83,109,260.78Z"/><path class="cls-1" d="M289,108.8a5.49,5.49,0,0,1,6.26-1.37c3.63,1.67,1.16,4.8.33,5.13s.17,2.09-4.45-.16c0,0-1.65-3.68-3-1.76s1.82,7.69,7.59,5.55,4.45-5.61,4.45-5.61-1.81-8.57-8.08-6.1S288,109.85,289,108.8Z"/><path class="cls-1" d="M136.75,122.89a5.51,5.51,0,0,1,6.27-1.37c3.63,1.67,1.15,4.8.33,5.13s.16,2.09-4.45-.16c0,0-1.65-3.67-3-1.76s1.81,7.7,7.58,5.55,4.46-5.6,4.46-5.6-1.82-8.58-8.08-6.11S135.76,123.94,136.75,122.89Z"/><path class="cls-1" d="M212.44,190.45c9.2-1.53,5.51,5.05,4.65,5.36-.55.2-1.06.89-2.2.78-1.71-.18-3.73-1.29-3.38-2.86.59-2.6,2.23-6.79,1.35-5.59-1.32,1.79-8.19,10,3.35,10.51,6.15.28,4.73-4.81,4.73-4.81s-1.81-8-8.08-5.7"/><path class="cls-1" d="M45.83,194.72c9.19-1.64,5.51,5.39,4.64,5.72-.55.22-1.06.95-2.19.83-1.72-.18-3.74-1.37-3.38-3.05.58-2.78,2.22-7.26,1.34-6-1.32,1.92-8.19,10.66,3.36,11.23,6.15.31,4.72-5.13,4.72-5.13s-1.81-8.57-8.08-6.1"/><path class="cls-1" d="M73.52,179.36c9.2-1.63,5.51,5.39,4.65,5.73-.55.21-1.06.95-2.2.83-1.71-.19-3.73-1.37-3.38-3.06.59-2.77,2.23-7.26,1.35-6-1.32,1.92-8.19,10.65,3.35,11.23C83.44,188.43,82,183,82,183s-1.82-8.58-8.08-6.1"/><path class="cls-1" d="M208.53,72c9.2-1.64,5.51,5.38,4.65,5.72-.55.21-1.06,1-2.2.83-1.71-.18-3.73-1.37-3.38-3.06.59-2.77,2.23-7.26,1.35-6-1.32,1.92-8.19,10.65,3.35,11.23,6.15.31,4.73-5.13,4.73-5.13S215.22,67,209,69.47"/><path class="cls-1" d="M129.44,70.86c9.19-1.54,5.51,5,4.65,5.35-.55.2-1.06.89-2.2.78-1.71-.17-3.74-1.28-3.38-2.86.59-2.59,2.23-6.79,1.35-5.59-1.32,1.79-8.19,10,3.35,10.51,6.15.29,4.73-4.8,4.73-4.8s-1.82-8-8.08-5.71"/><path class="cls-1" d="M134.39,225.44c9.19-1.64,5.51,5.39,4.64,5.73-.55.21-1.06,1-2.2.83-1.71-.19-3.73-1.38-3.38-3.06.59-2.77,2.23-7.26,1.35-6-1.32,1.92-8.19,10.66,3.36,11.24,6.14.31,4.72-5.13,4.72-5.13s-1.81-8.58-8.08-6.11"/><path class="cls-1" d="M167.77,146.87c9.19-1.64,5.51,5.39,4.65,5.72-.56.22-1.07.95-2.2.83-1.72-.18-3.74-1.37-3.38-3,.58-2.78,2.22-7.26,1.34-6-1.32,1.92-8.19,10.66,3.36,11.23,6.15.31,4.72-5.13,4.72-5.13s-1.81-8.57-8.08-6.1"/><path class="cls-1" d="M2.94,168.29c9.19-1.64,5.51,5.39,4.65,5.73-.55.21-1.06.95-2.2.83-1.71-.19-3.74-1.38-3.38-3.06.59-2.77,2.23-7.26,1.35-6C2,167.73-4.83,176.47,6.71,177.05c6.15.31,4.73-5.14,4.73-5.14s-1.82-8.57-8.08-6.1"/><path class="cls-1" d="M234.8,143.32c9.2-1.64,5.51,5.39,4.65,5.73-.55.21-1.06.95-2.2.83-1.71-.19-3.73-1.37-3.38-3.06.59-2.77,2.23-7.26,1.35-6-1.32,1.92-8.19,10.66,3.35,11.24,6.15.31,4.73-5.13,4.73-5.13s-1.81-8.58-8.08-6.11"/><path class="cls-1" d="M70.35,17.36c9.19-1.53,5.51,5,4.64,5.36-.55.2-1.06.89-2.19.77-1.72-.17-3.74-1.28-3.38-2.86C70,18,71.64,13.84,70.76,15c-1.32,1.8-8.19,10,3.36,10.51,6.15.29,4.72-4.8,4.72-4.8S77,12.73,70.76,15"/><path class="cls-1" d="M249,171.21c9.2-1.64,5.51,5.39,4.65,5.73-.55.21-1.06.95-2.2.83-1.71-.19-3.73-1.38-3.38-3.06.59-2.77,2.23-7.26,1.35-6-1.32,1.92-8.19,10.66,3.35,11.24,6.15.31,4.73-5.14,4.73-5.14s-1.81-8.57-8.08-6.1"/><path class="cls-1" d="M38.68,235c9.19-1.64,5.51,5.39,4.65,5.73-.56.21-1.07.95-2.2.82-1.72-.18-3.74-1.37-3.38-3,.58-2.77,2.22-7.26,1.34-6-1.32,1.92-8.19,10.66,3.36,11.24,6.15.3,4.72-5.14,4.72-5.14s-1.81-8.57-8.08-6.1"/><path class="cls-1" d="M113.83,3.05c9.2-1.64,5.51,5.39,4.65,5.73-.55.21-1.06,1-2.2.83-1.71-.19-3.73-1.38-3.38-3.06.59-2.77,2.23-7.26,1.35-6-1.32,1.92-8.19,10.66,3.35,11.24,6.15.31,4.73-5.14,4.73-5.14s-1.81-8.57-8.08-6.1"/><path class="cls-1" d="M163,116.85c9.19-1.64,5.51,5.39,4.65,5.72-.55.22-1.06,1-2.2.83-1.71-.18-3.74-1.37-3.38-3.05.59-2.78,2.23-7.26,1.35-6-1.32,1.92-8.19,10.66,3.35,11.24,6.15.3,4.73-5.14,4.73-5.14s-1.82-8.57-8.08-6.1"/><path class="cls-1" d="M132,285.8c9.19-1.53,5.51,5,4.65,5.36-.55.2-1.06.89-2.2.77-1.71-.17-3.74-1.28-3.38-2.85.59-2.6,2.23-6.8,1.35-5.6-1.32,1.8-8.19,10,3.35,10.51,6.15.29,4.73-4.8,4.73-4.8s-1.82-8-8.08-5.71"/><path class="cls-1" d="M72.35,277.57c9.19-1.63,5.51,5.39,4.64,5.73-.55.21-1.06.95-2.2.83-1.71-.19-3.73-1.37-3.38-3.06.59-2.77,2.23-7.26,1.35-6-1.32,1.92-8.19,10.65,3.35,11.23,6.15.31,4.73-5.13,4.73-5.13s-1.81-8.58-8.08-6.1"/><path class="cls-1" d="M72.35,277.57c9.19-1.63,5.51,5.39,4.64,5.73-.55.21-1.06.95-2.2.83-1.71-.19-3.73-1.37-3.38-3.06.59-2.77,2.23-7.26,1.35-6-1.32,1.92-8.19,10.65,3.35,11.23,6.15.31,4.73-5.13,4.73-5.13s-1.81-8.58-8.08-6.1"/><path class="cls-1" d="M72.35,277.57c9.19-1.63,5.51,5.39,4.64,5.73-.55.21-1.06.95-2.2.83-1.71-.19-3.73-1.37-3.38-3.06.59-2.77,2.23-7.26,1.35-6-1.32,1.92-8.19,10.65,3.35,11.23,6.15.31,4.73-5.13,4.73-5.13s-1.81-8.58-8.08-6.1"/><path class="cls-1" d="M72.35,277.57c9.19-1.63,5.51,5.39,4.64,5.73-.55.21-1.06.95-2.2.83-1.71-.19-3.73-1.37-3.38-3.06.59-2.77,2.23-7.26,1.35-6-1.32,1.92-8.19,10.65,3.35,11.23,6.15.31,4.73-5.13,4.73-5.13s-1.81-8.58-8.08-6.1"/><path class="cls-1" d="M72.35,278.14c9.19-1.53,5.51,5,4.64,5.35-.55.21-1.06.9-2.2.78-1.71-.17-3.73-1.28-3.38-2.86.59-2.59,2.23-6.79,1.35-5.59-1.32,1.8-8.19,10,3.35,10.51,6.15.29,4.73-4.8,4.73-4.8s-1.81-8-8.08-5.71"/><path class="cls-1" d="M184.23,165.75c9.19-1.63,5.51,5.39,4.65,5.73-.55.21-1.06,1-2.2.83-1.71-.18-3.74-1.37-3.38-3.06.59-2.77,2.23-7.26,1.35-6-1.32,1.92-8.19,10.65,3.35,11.23,6.15.31,4.73-5.13,4.73-5.13s-1.82-8.58-8.08-6.1"/></g></g></g></svg>