<svg xmlns="http://www.w3.org/2000/svg" viewBox="0 0 305.19 308.29"><defs><style>.cls-1{fill:#1e1e1e;}.cls-2{fill:#cc3d27;}.cls-3{fill:#f3e4d8;}.cls-4,.cls-5,.cls-6{fill:none;stroke-miterlimit:10;}.cls-4{stroke:#1e1e1e;}.cls-5{stroke:#f3e4d8;stroke-width:4px;}.cls-6{stroke:#cc3d27;}</style></defs><title>onion</title><g id="Layer_2" data-name="Layer 2"><g id="Onions_Pizza" data-name="Onions Pizza"><path class="cls-1" d="M18.22,74.66s-9.35,6.6-6.88,18.15,23.38,27.49,45.1,27.77C56.44,120.58-4,107.93,18.22,74.66Z"/><path class="cls-1" d="M19.71,74.66s-9.36,6.6-6.88,18.15S36.2,120.3,57.92,120.58C57.92,120.58-2.56,107.93,19.71,74.66Z"/><path class="cls-2" d="M17.48,74.66s-9.35,6.6-6.88,18.15S34,120.3,55.7,120.58C55.7,120.58-4.79,107.93,17.48,74.66Z"/><path class="cls-3" d="M19,74.66s-9.35,6.6-6.87,18.15,23.37,27.49,45.09,27.77C57.18,120.58-3.3,107.93,19,74.66Z"/><path class="cls-1" d="M8,94s-9.36,6.6-6.88,18.15,23.37,27.5,45.09,27.77C46.25,139.9-14.23,127.25,8,94Z"/><path class="cls-1" d="M9.52,94s-9.35,6.6-6.88,18.15S26,139.63,47.74,139.9C47.74,139.9-12.75,127.25,9.52,94Z"/><path class="cls-2" d="M7.29,94s-9.35,6.6-6.87,18.15,23.37,27.5,45.09,27.77C45.51,139.9-15,127.25,7.29,94Z"/><path class="cls-3" d="M8.78,94s-9.35,6.6-6.88,18.15S25.27,139.63,47,139.9C47,139.9-13.49,127.25,8.78,94Z"/><ellipse class="cls-4" cx="197.26" cy="28.03" rx="30.9" ry="18.15" transform="translate(58.61 171.11) rotate(-53.99)"/><ellipse class="cls-4" cx="197.53" cy="26.95" rx="28.49" ry="15.06" transform="translate(59.59 170.89) rotate(-53.99)"/><ellipse class="cls-5" cx="198.94" cy="28" rx="28.47" ry="16.45" transform="translate(59.33 172.46) rotate(-53.99)"/><ellipse class="cls-6" cx="198.6" cy="28.3" rx="31.62" ry="18.49" transform="translate(58.94 172.3) rotate(-53.99)"/><ellipse class="cls-4" cx="198.02" cy="52.54" rx="30.9" ry="18.15" transform="translate(39.1 181.83) rotate(-53.99)"/><ellipse class="cls-4" cx="198.29" cy="51.46" rx="28.49" ry="15.06" transform="translate(40.08 181.6) rotate(-53.99)"/><ellipse class="cls-5" cx="199.7" cy="52.5" rx="28.47" ry="16.45" transform="translate(39.82 183.17) rotate(-53.99)"/><ellipse class="cls-6" cx="199.36" cy="52.8" rx="31.62" ry="18.49" transform="translate(39.44 183.02) rotate(-53.99)"/><ellipse class="cls-4" cx="40.09" cy="211.94" rx="29.77" ry="17.48" transform="translate(-71.61 27.42) rotate(-20.48)"/><ellipse class="cls-4" cx="39.3" cy="212.66" rx="27.44" ry="14.51" transform="translate(-71.91 27.18) rotate(-20.48)"/><ellipse class="cls-5" cx="38.73" cy="211.07" rx="27.42" ry="15.85" transform="translate(-71.39 26.88) rotate(-20.48)"/><ellipse class="cls-6" cx="39.16" cy="211.02" rx="30.45" ry="17.81" transform="translate(-71.34 27.03) rotate(-20.48)"/><ellipse class="cls-4" cx="52.51" cy="191.85" rx="29.77" ry="17.48" transform="translate(-63.8 30.49) rotate(-20.48)"/><ellipse class="cls-4" cx="51.72" cy="192.58" rx="27.44" ry="14.51" transform="translate(-64.1 30.26) rotate(-20.48)"/><ellipse class="cls-5" cx="51.15" cy="190.99" rx="27.42" ry="15.85" transform="translate(-63.58 29.96) rotate(-20.48)"/><ellipse class="cls-6" cx="51.58" cy="190.93" rx="30.45" ry="17.81" transform="translate(-63.53 30.11) rotate(-20.48)"/><path class="cls-1" d="M84.39,26.3s-6.35,9.53.12,19.41,31.71,17.22,52.08,9.65C136.59,55.36,75.61,65.36,84.39,26.3Z"/><path class="cls-1" d="M85.78,25.76s-6.35,9.53.12,19.41S117.61,62.4,138,54.83C138,54.83,77,64.82,85.78,25.76Z"/><path class="cls-2" d="M83.7,26.57s-6.35,9.52.12,19.4,31.71,17.23,52.07,9.66C135.89,55.63,74.91,65.63,83.7,26.57Z"/><path class="cls-3" d="M85.08,26s-6.34,9.53.13,19.41,31.71,17.23,52.07,9.66C137.28,55.1,76.3,65.09,85.08,26Z"/><path class="cls-1" d="M77.24,19.3s-9.35,6.6-6.87,18.15,23.37,27.49,45.09,27.77C115.46,65.22,55,52.57,77.24,19.3Z"/><path class="cls-1" d="M78.73,19.3s-9.35,6.6-6.88,18.15,23.37,27.49,45.09,27.77C116.94,65.22,56.46,52.57,78.73,19.3Z"/><path class="cls-2" d="M76.5,19.3s-9.35,6.6-6.88,18.15S93,64.94,114.72,65.22C114.72,65.22,54.23,52.57,76.5,19.3Z"/><path class="cls-3" d="M78,19.3s-9.36,6.6-6.88,18.15S94.48,64.94,116.2,65.22C116.2,65.22,55.72,52.57,78,19.3Z"/><path class="cls-1" d="M87.36,254s-9.35,6.6-6.88,18.15,23.37,27.49,45.1,27.77C125.58,299.9,65.09,287.25,87.36,254Z"/><path class="cls-1" d="M88.84,254s-9.35,6.6-6.87,18.15,23.37,27.49,45.09,27.77C127.06,299.9,66.58,287.25,88.84,254Z"/><path class="cls-2" d="M86.62,254s-9.35,6.6-6.88,18.15,23.37,27.49,45.09,27.77C124.83,299.9,64.35,287.25,86.62,254Z"/><path class="cls-3" d="M88.1,254s-9.35,6.6-6.88,18.15,23.38,27.49,45.1,27.77C126.32,299.9,65.83,287.25,88.1,254Z"/><path class="cls-1" d="M171.8,277s-.42,11.44,10.27,16.47,36-1.93,49.42-19C231.49,274.38,184.77,314.83,171.8,277Z"/><path class="cls-1" d="M172.7,275.77s-.42,11.44,10.27,16.47,36-1.93,49.42-19C232.39,273.2,185.67,313.65,172.7,275.77Z"/><path class="cls-2" d="M171.35,277.54S170.93,289,181.62,294s36-1.93,49.42-19C231,275,184.32,315.42,171.35,277.54Z"/><path class="cls-3" d="M172.25,276.36s-.42,11.44,10.27,16.47,36-1.93,49.42-19C231.94,273.79,185.22,314.24,172.25,276.36Z"/><path class="cls-1" d="M239.23,211.71s4.15,10.66,16,11S287.5,206.7,293,185.69C293,185.69,266.15,241.34,239.23,211.71Z"/><path class="cls-1" d="M239.59,210.27s4.15,10.66,15.95,11,32.32-16.06,37.82-37.07C293.36,184.25,266.51,239.9,239.59,210.27Z"/><path class="cls-2" d="M239.05,212.43s4.15,10.66,16,11,32.31-16.06,37.82-37.07C292.83,186.41,266,242.06,239.05,212.43Z"/><path class="cls-3" d="M239.41,211s4.15,10.66,16,11S287.68,206,293.19,185C293.19,185,266.33,240.62,239.41,211Z"/><path class="cls-1" d="M267.21,243.14s10.61-4.29,10.84-16.09-16.47-32.11-37.55-37.34C240.5,189.71,296.49,215.84,267.21,243.14Z"/><path class="cls-1" d="M265.76,242.8s10.62-4.28,10.85-16.09-16.47-32.11-37.56-37.34C239.05,189.37,295,215.5,265.76,242.8Z"/><path class="cls-2" d="M267.93,243.31s10.61-4.29,10.84-16.09-16.47-32.11-37.55-37.34C241.22,189.88,297.21,216,267.93,243.31Z"/><path class="cls-3" d="M266.49,243s10.61-4.29,10.84-16.09-16.47-32.11-37.56-37.34C239.77,189.54,295.77,215.67,266.49,243Z"/><path class="cls-1" d="M248.29,206.73s2.92,11.07,14.6,12.78,33.93-12.29,41.78-32.55C304.67,187,271.69,239.22,248.29,206.73Z"/><path class="cls-1" d="M248.81,205.34s2.92,11.07,14.6,12.78,33.93-12.29,41.78-32.55C305.19,185.57,272.21,237.83,248.81,205.34Z"/><path class="cls-2" d="M248,207.43s2.92,11.06,14.6,12.78,33.93-12.29,41.78-32.55C304.41,187.66,271.43,239.91,248,207.43Z"/><path class="cls-3" d="M248.55,206s2.92,11.06,14.6,12.78,33.93-12.3,41.78-32.55C304.93,186.27,272,238.52,248.55,206Z"/><ellipse class="cls-4" cx="272.71" cy="87.18" rx="30.9" ry="18.15" transform="translate(41.85 256.52) rotate(-53.99)"/><ellipse class="cls-4" cx="272.98" cy="86.1" rx="28.49" ry="15.06" transform="translate(42.84 256.29) rotate(-53.99)"/><ellipse class="cls-5" cx="274.39" cy="87.15" rx="28.47" ry="16.45" transform="translate(42.57 257.86) rotate(-53.99)"/><ellipse class="cls-6" cx="274.05" cy="87.44" rx="31.62" ry="18.49" transform="translate(42.19 257.71) rotate(-53.99)"/><ellipse class="cls-4" cx="237.44" cy="179.93" rx="30.9" ry="18.15" transform="translate(-47.71 266.21) rotate(-53.99)"/><ellipse class="cls-4" cx="237.72" cy="178.85" rx="28.49" ry="15.06" transform="translate(-46.72 265.99) rotate(-53.99)"/><ellipse class="cls-5" cx="239.12" cy="179.9" rx="28.47" ry="16.45" transform="translate(-46.99 267.56) rotate(-53.99)"/><ellipse class="cls-6" cx="238.78" cy="180.2" rx="31.62" ry="18.49" transform="translate(-47.37 267.4) rotate(-53.99)"/><ellipse class="cls-4" cx="190.02" cy="255.22" rx="30.9" ry="18.15" transform="translate(-128.15 258.87) rotate(-53.99)"/><ellipse class="cls-4" cx="190.29" cy="254.14" rx="28.49" ry="15.06" transform="translate(-127.17 258.65) rotate(-53.99)"/><ellipse class="cls-5" cx="191.7" cy="255.19" rx="28.47" ry="16.45" transform="translate(-127.43 260.21) rotate(-53.99)"/><ellipse class="cls-6" cx="191.35" cy="255.49" rx="31.62" ry="18.49" transform="translate(-127.81 260.06) rotate(-53.99)"/><ellipse class="cls-4" cx="190.78" cy="279.73" rx="30.9" ry="18.15" transform="translate(-147.66 269.58) rotate(-53.99)"/><ellipse class="cls-4" cx="191.05" cy="278.65" rx="28.49" ry="15.06" transform="translate(-146.67 269.36) rotate(-53.99)"/><ellipse class="cls-5" cx="192.46" cy="279.69" rx="28.47" ry="16.45" transform="translate(-146.94 270.93) rotate(-53.99)"/><ellipse class="cls-6" cx="192.12" cy="279.99" rx="31.62" ry="18.49" transform="translate(-147.32 270.78) rotate(-53.99)"/><path class="cls-1" d="M32.22,158.78s-6.35,9.53.12,19.41,31.71,17.23,52.07,9.66C84.41,187.85,23.43,197.84,32.22,158.78Z"/><path class="cls-1" d="M33.6,158.25s-6.35,9.52.12,19.4,31.71,17.23,52.07,9.66C85.79,187.31,24.82,197.31,33.6,158.25Z"/><path class="cls-2" d="M31.52,159.05s-6.34,9.52.13,19.41,31.71,17.22,52.07,9.65C83.72,188.11,22.74,198.11,31.52,159.05Z"/><path class="cls-3" d="M32.91,158.51S26.56,168,33,177.92s31.71,17.23,52.07,9.66C85.1,187.58,24.12,197.57,32.91,158.51Z"/><path class="cls-1" d="M25.07,151.78s-9.35,6.6-6.88,18.15,23.37,27.5,45.09,27.77C63.28,197.7,2.8,185.05,25.07,151.78Z"/><path class="cls-1" d="M26.55,151.78s-9.35,6.6-6.87,18.15,23.37,27.5,45.09,27.77C64.77,197.7,4.29,185.05,26.55,151.78Z"/><path class="cls-2" d="M24.33,151.78s-9.36,6.6-6.88,18.15,23.37,27.5,45.09,27.77C62.54,197.7,2.06,185.05,24.33,151.78Z"/><path class="cls-3" d="M25.81,151.78s-9.35,6.6-6.88,18.15S42.31,197.43,64,197.7C64,197.7,3.54,185.05,25.81,151.78Z"/><path class="cls-1" d="M173.26,202.3s-6.35,9.53.12,19.41,31.71,17.23,52.07,9.66C225.45,231.37,164.48,241.36,173.26,202.3Z"/><path class="cls-1" d="M174.65,201.77s-6.35,9.53.12,19.41,31.71,17.22,52.07,9.65C226.84,230.83,165.86,240.83,174.65,201.77Z"/><path class="cls-2" d="M172.57,202.57s-6.35,9.53.12,19.41,31.71,17.23,52.07,9.66C224.76,231.64,163.78,241.63,172.57,202.57Z"/><path class="cls-3" d="M174,202s-6.34,9.52.13,19.4,31.71,17.23,52.07,9.66C226.15,231.1,165.17,241.1,174,202Z"/><path class="cls-1" d="M166.11,195.31s-9.35,6.6-6.87,18.14,23.37,27.5,45.09,27.77C204.33,241.22,143.85,228.58,166.11,195.31Z"/><path class="cls-1" d="M167.6,195.31s-9.35,6.6-6.88,18.14,23.37,27.5,45.09,27.77C205.81,241.22,145.33,228.58,167.6,195.31Z"/><path class="cls-2" d="M165.37,195.31s-9.35,6.6-6.88,18.14,23.38,27.5,45.1,27.77C203.59,241.22,143.1,228.58,165.37,195.31Z"/><path class="cls-3" d="M166.86,195.31s-9.36,6.6-6.88,18.14,23.37,27.5,45.09,27.77C205.07,241.22,144.59,228.58,166.86,195.31Z"/><path class="cls-1" d="M235.17,97.78s-6.34,9.53.13,19.41,31.7,17.23,52.07,9.66C287.37,126.85,226.39,136.84,235.17,97.78Z"/><path class="cls-1" d="M236.56,97.25s-6.35,9.52.12,19.4,31.71,17.23,52.07,9.66C288.75,126.31,227.77,136.31,236.56,97.25Z"/><path class="cls-2" d="M234.48,98.05s-6.35,9.52.12,19.41,31.71,17.22,52.07,9.65C286.67,127.11,225.7,137.11,234.48,98.05Z"/><path class="cls-3" d="M235.86,97.51s-6.34,9.53.13,19.41,31.71,17.23,52.07,9.66C288.06,126.58,227.08,136.57,235.86,97.51Z"/><path class="cls-1" d="M228,90.78s-9.36,6.6-6.88,18.15,23.37,27.5,45.09,27.77C266.24,136.7,205.76,124.05,228,90.78Z"/><path class="cls-1" d="M229.51,90.78s-9.35,6.6-6.88,18.15,23.37,27.5,45.1,27.77C267.73,136.7,207.24,124.05,229.51,90.78Z"/><path class="cls-2" d="M227.28,90.78s-9.35,6.6-6.87,18.15,23.37,27.5,45.09,27.77C265.5,136.7,205,124.05,227.28,90.78Z"/><path class="cls-3" d="M228.77,90.78s-9.35,6.6-6.88,18.15,23.37,27.5,45.09,27.77C267,136.7,206.5,124.05,228.77,90.78Z"/><path class="cls-1" d="M94.87,243.82s7.57,8.59,18.79,4.88,24.81-26.21,22.73-47.83C136.39,200.87,130.35,262.36,94.87,243.82Z"/><path class="cls-1" d="M94.71,242.35s7.57,8.58,18.79,4.87,24.81-26.2,22.73-47.83C136.23,199.39,130.19,260.89,94.71,242.35Z"/><path class="cls-2" d="M95,244.56s7.57,8.58,18.79,4.88,24.81-26.21,22.73-47.84C136.47,201.6,130.44,263.1,95,244.56Z"/><path class="cls-3" d="M94.79,243.08s7.57,8.59,18.79,4.88,24.81-26.21,22.73-47.83C136.31,200.13,130.27,261.63,94.79,243.08Z"/><path class="cls-1" d="M86.27,248.93s4,10.73,15.77,11.31,32.58-15.5,38.44-36.42C140.48,223.82,112.69,279,86.27,248.93Z"/><path class="cls-1" d="M86.65,247.49s4,10.74,15.77,11.32S135,243.3,140.86,222.38C140.86,222.38,113.07,277.57,86.65,247.49Z"/><path class="cls-2" d="M86.08,249.64s4,10.74,15.77,11.32,32.58-15.51,38.44-36.43C140.29,224.53,112.5,279.72,86.08,249.64Z"/><path class="cls-3" d="M86.46,248.21s4,10.73,15.77,11.32S134.81,244,140.67,223.1C140.67,223.1,112.88,278.29,86.46,248.21Z"/><path class="cls-1" d="M97.64,137.26s8.71-7.43,5.19-18.7S77,93.32,55.38,95C55.38,95,116.77,102.09,97.64,137.26Z"/><path class="cls-1" d="M96.16,137.39s8.71-7.42,5.19-18.7S75.56,93.45,53.9,95.17C53.9,95.17,115.29,102.22,96.16,137.39Z"/><path class="cls-2" d="M98.38,137.19s8.71-7.43,5.19-18.7S77.77,93.25,56.12,95C56.12,95,117.51,102,98.38,137.19Z"/><path class="cls-3" d="M96.9,137.33s8.71-7.43,5.19-18.7S76.29,93.39,54.64,95.1C54.64,95.1,116,102.16,96.9,137.33Z"/><path class="cls-1" d="M102.6,145.94s10.8-3.79,11.58-15.57-15-32.84-35.79-39C78.39,91.33,133.11,120,102.6,145.94Z"/><path class="cls-1" d="M101.17,145.54S112,141.75,112.75,130s-15-32.84-35.79-39C77,90.92,131.69,119.62,101.17,145.54Z"/><path class="cls-2" d="M103.31,146.15s10.81-3.79,11.58-15.58-15-32.84-35.78-39C79.11,91.53,133.83,120.23,103.31,146.15Z"/><path class="cls-3" d="M101.89,145.74s10.8-3.79,11.57-15.58-15-32.83-35.78-39C77.68,91.13,132.4,119.82,101.89,145.74Z"/><path class="cls-1" d="M133.88,143.69s-6.34,9.53.13,19.41,31.71,17.22,52.07,9.65C186.08,172.75,125.1,182.75,133.88,143.69Z"/><path class="cls-1" d="M135.27,143.16s-6.35,9.52.12,19.4,31.71,17.23,52.07,9.66C187.46,172.22,126.48,182.21,135.27,143.16Z"/><path class="cls-2" d="M133.19,144s-6.35,9.52.12,19.4S165,180.59,185.38,173C185.38,173,124.41,183,133.19,144Z"/><path class="cls-3" d="M134.58,143.42s-6.35,9.53.12,19.41,31.71,17.23,52.07,9.66C186.77,172.49,125.79,182.48,134.58,143.42Z"/><path class="cls-1" d="M126.74,136.69s-9.36,6.6-6.88,18.15,23.37,27.49,45.09,27.77C165,182.61,104.47,170,126.74,136.69Z"/><path class="cls-1" d="M128.22,136.69s-9.35,6.6-6.88,18.15,23.38,27.49,45.1,27.77C166.44,182.61,106,170,128.22,136.69Z"/><path class="cls-2" d="M126,136.69s-9.35,6.6-6.87,18.15,23.37,27.49,45.09,27.77C164.21,182.61,103.73,170,126,136.69Z"/><path class="cls-3" d="M127.48,136.69s-9.35,6.6-6.88,18.15,23.37,27.49,45.09,27.77C165.69,182.61,105.21,170,127.48,136.69Z"/><ellipse class="cls-4" cx="128.64" cy="92.77" rx="30.9" ry="18.15" transform="translate(-22.03 142.28) rotate(-53.99)"/><ellipse class="cls-4" cx="128.91" cy="91.69" rx="28.49" ry="15.06" transform="translate(-21.05 142.06) rotate(-53.99)"/><ellipse class="cls-5" cx="130.32" cy="92.74" rx="28.47" ry="16.45" transform="translate(-21.32 143.63) rotate(-53.99)"/><ellipse class="cls-6" cx="129.98" cy="93.03" rx="31.62" ry="18.49" transform="translate(-21.7 143.47) rotate(-53.99)"/><ellipse class="cls-4" cx="129.4" cy="117.27" rx="30.9" ry="18.15" transform="translate(-41.54 153) rotate(-53.99)"/><ellipse class="cls-4" cx="129.67" cy="116.19" rx="28.49" ry="15.06" transform="translate(-40.56 152.77) rotate(-53.99)"/><ellipse class="cls-5" cx="131.08" cy="117.24" rx="28.47" ry="16.45" transform="translate(-40.82 154.34) rotate(-53.99)"/><ellipse class="cls-6" cx="130.74" cy="117.54" rx="31.62" ry="18.49" transform="translate(-41.21 154.19) rotate(-53.99)"/></g></g></svg>