<svg xmlns="http://www.w3.org/2000/svg" viewBox="0 0 297.75 299.24"><defs><style>.cls-1{fill:#d89ba2;stroke:#ad5244;stroke-miterlimit:10;stroke-width:2px;}</style></defs><title>other</title><g id="Layer_2" data-name="Layer 2"><g id="Others_Pizza" data-name="Others Pizza"><g id="Other"><path class="cls-1" d="M108.63,4.6S104,41.76,130.16,31.22,119,11.13,120.07,7.11,108.93-2.94,108.63,4.6Z"/><path class="cls-1" d="M206.35,79.58s37.28,3.65,26-22.24S212.6,69.09,208.56,68.08,198.81,79.47,206.35,79.58Z"/><path class="cls-1" d="M3.05,123.83S34,145,36.58,116.9s-23,.75-26-2.09S-3.51,120.1,3.05,123.83Z"/><path class="cls-1" d="M17.86,179s-4.65,37.17,21.53,26.62S28.18,185.51,29.3,181.49,18.16,171.44,17.86,179Z"/><path class="cls-1" d="M166.26,227.15s-4.65,37.16,21.53,26.62-11.21-20.09-10.09-24.11S166.56,219.61,166.26,227.15Z"/><path class="cls-1" d="M83.3,258.77s-4.65,37.16,21.53,26.62S93.62,265.3,94.74,261.28,83.6,251.23,83.3,258.77Z"/><path class="cls-1" d="M268.61,246.11s37.27,3.65,26-22.24-19.78,11.75-23.83,10.74S261.06,246,268.61,246.11Z"/><path class="cls-1" d="M132.64,106.18S161.5,82.3,135.2,72,129.6,94.35,126,96.51,127.25,111.46,132.64,106.18Z"/><path class="cls-1" d="M262.51,139.15s37.27,3.65,26-22.24-19.78,11.75-23.83,10.74S255,139.05,262.51,139.15Z"/><path class="cls-1" d="M205.94,191.28s17.33,33.2,32.85,9.62-20.65-10.13-22-14.07S201.89,184.91,205.94,191.28Z"/><path class="cls-1" d="M206,298.07s37.28,3.65,26-22.24-19.79,11.75-23.83,10.74S198.5,298,206,298.07Z"/><path class="cls-1" d="M199.15,33.19S215.54-.48,187.36,1.05s4.13,22.64,1.78,26.08S196.44,40.23,199.15,33.19Z"/><path class="cls-1" d="M195.35,130.38s18.72,32.44,33.23,8.24-21.06-9.26-22.59-13.14S191.05,124.18,195.35,130.38Z"/><path class="cls-1" d="M72,136.17s37.28,3.66,26-22.23S78.2,125.68,74.16,124.67,64.41,136.07,72,136.17Z"/><path class="cls-1" d="M112.93,219s21.2,30.87,33.77,5.6S125,217,123.15,213.29,108.15,213.17,112.93,219Z"/><path class="cls-1" d="M78.77,196.41s37.27,3.66,26-22.23S85,185.92,81,184.91,71.22,196.31,78.77,196.41Z"/><path class="cls-1" d="M70.48,56.31s37.28,3.66,26-22.23S76.73,45.82,72.69,44.81,62.94,56.21,70.48,56.31Z"/></g></g></g></svg>