<svg xmlns="http://www.w3.org/2000/svg" viewBox="0 0 298.85 319.33"><defs><style>.cls-1{fill:#cb2027;}.cls-2{fill:#e93433;}.cls-3{fill:#989535;}.cls-4{fill:#f3ed70;}</style></defs><title>peppers</title><g id="Layer_2" data-name="Layer 2"><g id="Peppers_Pizza" data-name="Peppers Pizza"><g id="Peppers"><path class="cls-1" d="M58.43,33.73s-10.86,9.9,0,18.82c0,0-7.7,5.36,4.79,17.39h1.42S53.38,55.48,60.53,53.87l.18-3.21s-9.79-6.43-1.59-15Z"/><path class="cls-2" d="M60,33.73s-10.86,9.9,0,18.82c0,0-7.7,5.36,4.79,17.39h1.41S54.9,55.48,62.05,53.87l.17-3.21s-9.78-6.43-1.58-15Z"/><path class="cls-1" d="M166.1,267.73s-10.86,9.9,0,18.82c0,0-7.7,5.36,4.79,17.39h1.41s-11.25-14.46-4.1-16.06l.17-3.22s-9.78-6.43-1.58-15Z"/><path class="cls-2" d="M167.61,267.73s-10.85,9.9,0,18.82c0,0-7.69,5.36,4.8,17.39h1.41s-11.25-14.46-4.11-16.06l.18-3.22s-9.78-6.43-1.58-15Z"/><path class="cls-1" d="M63.74,274.72s-10.85,9.91,0,18.82c0,0-7.7,5.36,4.79,17.39H70s-11.26-14.45-4.11-16.06l.18-3.22s-9.78-6.43-1.59-15Z"/><path class="cls-2" d="M65.26,274.72s-10.86,9.91,0,18.82c0,0-7.7,5.36,4.79,17.39h1.42s-11.26-14.45-4.11-16.06l.18-3.22s-9.79-6.43-1.59-15Z"/><path class="cls-1" d="M106.6,45.21s-10.86,9.9,0,18.81c0,0-7.7,5.36,4.79,17.39h1.41S101.55,67,108.69,65.35l.18-3.22s-9.78-6.43-1.58-15Z"/><path class="cls-2" d="M108.11,45.21s-10.85,9.9,0,18.81c0,0-7.69,5.36,4.8,17.39h1.41S103.07,67,110.21,65.35l.18-3.22s-9.78-6.43-1.58-15Z"/><path class="cls-1" d="M51.79,165.93s-10.85,9.9,0,18.82c0,0-7.69,5.35,4.8,17.39H58s-11.25-14.46-4.11-16.07l.18-3.21s-9.78-6.44-1.58-15Z"/><path class="cls-2" d="M53.31,165.93s-10.85,9.9,0,18.82c0,0-7.7,5.35,4.8,17.39h1.41s-11.26-14.46-4.11-16.07l.18-3.21s-9.78-6.44-1.59-15Z"/><path class="cls-1" d="M51.76,119.27s-11.08-9.66-18.7,2.14c0,0-6.2-7-16.73,6.74l.16,1.41S29.57,116.73,32,123.65l3.22-.19s5.27-10.45,14.73-3.28Z"/><path class="cls-2" d="M51.93,120.78s-11.07-9.66-18.7,2.14c0,0-6.2-7-16.73,6.74l.16,1.41s13.08-12.83,15.49-5.91l3.22-.19s5.28-10.45,14.73-3.28Z"/><path class="cls-1" d="M197.48,36.37s-13.83-4.94-16.62,8.83c0,0-8.34-4.29-13.11,12.38l.66,1.25s7.49-16.72,12.26-11.16l2.93-1.35s1.09-11.65,12.51-8.43Z"/><path class="cls-2" d="M198.19,37.71s-13.83-4.94-16.62,8.83c0,0-8.34-4.29-13.11,12.39l.66,1.24S176.61,43.45,181.38,49l2.93-1.35S185.4,36,196.82,39.23Z"/><path class="cls-1" d="M294.5,112.85S289.22,99.14,277,106c0,0-2.19-9.12-17.94-1.85l-.51,1.31s17.56-5.23,16.46,2l2.93,1.33s9.54-6.77,14.55,4Z"/><path class="cls-2" d="M293.94,114.27s-5.27-13.71-17.53-6.84c0,0-2.19-9.12-17.94-1.86l-.51,1.32s17.55-5.23,16.45,2l2.94,1.33s9.54-6.77,14.55,4Z"/><path class="cls-1" d="M4.82,212.84s-10.85,9.9,0,18.82c0,0-7.69,5.36,4.8,17.39H11S-.22,234.59,6.92,233l.18-3.22s-9.78-6.43-1.58-15Z"/><path class="cls-2" d="M6.34,212.84s-10.85,9.9,0,18.82c0,0-7.7,5.36,4.8,17.39h1.41S1.29,234.59,8.44,233l.18-3.22s-9.78-6.43-1.59-15Z"/><path class="cls-1" d="M116.17,218.9s-10.85,9.9,0,18.82c0,0-7.7,5.35,4.79,17.39h1.42s-11.26-14.46-4.11-16.07l.18-3.21s-9.78-6.44-1.59-15Z"/><path class="cls-2" d="M117.69,218.9s-10.86,9.9,0,18.82c0,0-7.7,5.35,4.79,17.39h1.42s-11.26-14.46-4.11-16.07l.18-3.21s-9.79-6.44-1.59-15Z"/><path class="cls-1" d="M263.56,133.05s-11.77-8.79-18.48,3.55c0,0-6.71-6.55-16.18,8l.27,1.39s12.08-13.78,15-7.06l3.19-.43s4.48-10.82,14.44-4.39Z"/><path class="cls-2" d="M263.85,134.54s-11.77-8.79-18.49,3.55c0,0-6.71-6.55-16.17,8l.26,1.39s12.08-13.78,15-7.06l3.19-.43s4.47-10.82,14.44-4.38Z"/><path class="cls-1" d="M71.85,118.66s-10.86,9.9,0,18.82c0,0-7.7,5.36,4.79,17.39h1.42S66.8,140.41,74,138.81l.17-3.22s-9.78-6.43-1.58-15Z"/><path class="cls-2" d="M73.36,118.66s-10.85,9.9,0,18.82c0,0-7.69,5.36,4.8,17.39h1.41s-11.25-14.46-4.11-16.06l.18-3.22s-9.78-6.43-1.58-15Z"/><path class="cls-1" d="M107,283.12s-10.86,9.9,0,18.82c0,0-7.7,5.36,4.79,17.39h1.42s-11.26-14.46-4.11-16.06l.18-3.22s-9.79-6.43-1.59-15Z"/><path class="cls-2" d="M108.55,283.12s-10.86,9.9,0,18.82c0,0-7.7,5.36,4.79,17.39h1.42s-11.26-14.46-4.11-16.06l.17-3.22s-9.78-6.43-1.58-15Z"/><path class="cls-1" d="M208.6,270.25s-10.85,9.9,0,18.81c0,0-7.7,5.36,4.8,17.39h1.41S203.55,292,210.7,290.39l.18-3.22s-9.78-6.43-1.59-15Z"/><path class="cls-2" d="M210.12,270.25s-10.85,9.9,0,18.81c0,0-7.7,5.36,4.79,17.39h1.42s-11.26-14.45-4.11-16.06l.18-3.22s-9.78-6.43-1.59-15Z"/><path class="cls-1" d="M262.57,217s9.79,11,18.81.19c0,0,5.29,7.75,17.44-4.62v-1.41s-14.56,11.11-16.1,3.95l-3.21-.22s-6.53,9.72-15,1.44Z"/><path class="cls-2" d="M262.58,215.51s9.79,11,18.82.18c0,0,5.28,7.75,17.44-4.62v-1.41s-14.57,11.11-16.1,4l-3.22-.21s-6.53,9.71-15,1.43Z"/><path class="cls-3" d="M90.7,11.92s11.11,9.62,18.69-2.21c0,0,6.22,7,16.71-6.8l-.17-1.4s-13,12.87-15.47,6l-3.21.2S102,18.14,92.53,11Z"/><path class="cls-4" d="M90.52,10.42S101.63,20,109.21,8.21c0,0,6.23,7,16.71-6.81L125.75,0s-13,12.87-15.47,6l-3.21.2S101.83,16.64,92.35,9.5Z"/><path class="cls-3" d="M173.75,66.45s-10.85,9.91,0,18.82c0,0-7.69,5.36,4.8,17.39H180s-11.25-14.45-4.11-16.06l.18-3.22s-9.78-6.43-1.58-15Z"/><path class="cls-4" d="M175.27,66.45s-10.85,9.91,0,18.82c0,0-7.7,5.36,4.8,17.39h1.41s-11.26-14.45-4.11-16.06l.18-3.22s-9.78-6.43-1.59-15Z"/><path class="cls-3" d="M12,111.91s-10.85,9.9,0,18.82c0,0-7.69,5.36,4.8,17.39h1.41s-11.25-14.46-4.11-16.06l.18-3.22s-9.78-6.43-1.59-15Z"/><path class="cls-4" d="M13.47,111.91s-10.85,9.9,0,18.82c0,0-7.7,5.36,4.8,17.39h1.41s-11.26-14.46-4.11-16.06l.18-3.22s-9.78-6.43-1.59-15Z"/><path class="cls-3" d="M107.52,97.13s-10.85,9.9,0,18.82c0,0-7.69,5.36,4.8,17.39h1.41s-11.25-14.46-4.11-16.06l.18-3.22s-9.78-6.43-1.59-15Z"/><path class="cls-4" d="M109,97.13S98.19,107,109,116c0,0-7.7,5.36,4.8,17.39h1.41s-11.26-14.46-4.11-16.06l.18-3.22s-9.78-6.43-1.59-15Z"/><path class="cls-3" d="M33.74,201.58s-10.85,9.9,0,18.82c0,0-7.69,5.36,4.8,17.39H40s-11.25-14.45-4.11-16.06l.18-3.22s-9.78-6.43-1.58-15Z"/><path class="cls-4" d="M35.26,201.58s-10.85,9.9,0,18.82c0,0-7.69,5.36,4.8,17.39h1.41s-11.25-14.45-4.11-16.06l.18-3.22s-9.78-6.43-1.59-15Z"/><path class="cls-3" d="M168.73,202.13s-10.86,9.9,0,18.82c0,0-7.7,5.36,4.79,17.39h1.41s-11.25-14.46-4.1-16.07l.17-3.21s-9.78-6.44-1.58-15Z"/><path class="cls-4" d="M170.24,202.13s-10.85,9.9,0,18.82c0,0-7.69,5.36,4.8,17.39h1.41s-11.25-14.46-4.11-16.07l.18-3.21s-9.78-6.44-1.58-15Z"/><path class="cls-3" d="M206.46,114.3s-10.85,9.9,0,18.82c0,0-7.7,5.36,4.79,17.39h1.42s-11.26-14.46-4.11-16.06l.18-3.22s-9.78-6.43-1.59-15Z"/><path class="cls-4" d="M208,114.3s-10.86,9.9,0,18.82c0,0-7.7,5.36,4.79,17.39h1.42s-11.26-14.46-4.11-16.06l.18-3.22s-9.79-6.43-1.59-15Z"/><path class="cls-3" d="M246.42,85.26s-10.85,9.91,0,18.82c0,0-7.69,5.36,4.8,17.39h1.41s-11.25-14.45-4.11-16.06l.18-3.22s-9.78-6.43-1.59-15Z"/><path class="cls-4" d="M247.94,85.26s-10.85,9.91,0,18.82c0,0-7.7,5.36,4.79,17.39h1.42S242.89,107,250,105.41l.18-3.22s-9.78-6.43-1.59-15Z"/><path class="cls-3" d="M20.76,57.65s-10.85,9.9,0,18.82c0,0-7.69,5.35,4.8,17.39H27S15.72,79.4,22.86,77.79L23,74.58s-9.78-6.44-1.58-15Z"/><path class="cls-4" d="M22.28,57.65s-10.85,9.9,0,18.82c0,0-7.7,5.35,4.8,17.39h1.41S17.23,79.4,24.38,77.79l.18-3.21s-9.78-6.44-1.59-15Z"/><path class="cls-3" d="M98.1,237.08s-10.85,9.9,0,18.82c0,0-7.7,5.35,4.79,17.38h1.42s-11.26-14.45-4.11-16.06l.18-3.22s-9.78-6.43-1.59-15Z"/><path class="cls-4" d="M99.62,237.08s-10.86,9.9,0,18.82c0,0-7.7,5.35,4.79,17.38h1.42s-11.26-14.45-4.11-16.06l.18-3.22s-9.79-6.43-1.59-15Z"/><path class="cls-3" d="M232.39,191.91s-8.88-11.71-18.74-1.7c0,0-4.64-8.15-17.75,3.21l-.13,1.4s15.42-9.9,16.37-2.64l3.19.47s7.29-9.16,15.09-.23Z"/><path class="cls-4" d="M232.26,193.42s-8.88-11.7-18.75-1.7c0,0-4.64-8.15-17.75,3.21l-.12,1.41s15.41-9.91,16.37-2.65l3.18.47s7.29-9.16,15.09-.23Z"/><path class="cls-3" d="M105.18,179.42s-14.2-3.8-15.85,10.15c0,0-8.66-3.59-12,13.42l.76,1.19s6.1-17.27,11.31-12.12l2.8-1.59s.14-11.71,11.78-9.43Z"/><path class="cls-4" d="M106,180.7s-14.2-3.8-15.85,10.15c0,0-8.66-3.59-12.06,13.42l.77,1.19s6.1-17.28,11.31-12.13l2.8-1.58s.14-11.71,11.78-9.43Z"/><path class="cls-3" d="M244.78,213.39s-10.85,9.9,0,18.82c0,0-7.7,5.35,4.79,17.38H251s-11.26-14.45-4.11-16.06l.18-3.22s-9.78-6.43-1.59-15Z"/><path class="cls-4" d="M246.3,213.39s-10.86,9.9,0,18.82c0,0-7.7,5.35,4.79,17.38h1.42s-11.26-14.45-4.11-16.06l.18-3.22s-9.79-6.43-1.59-15Z"/><path class="cls-3" d="M203.87,24.77s-6.49-13.18-18.07-5.23c0,0-3-8.89-18-.24l-.39,1.36s17-6.79,16.57.53l3,1.06s8.9-7.6,14.86,2.66Z"/><path class="cls-4" d="M203.45,26.23S197,13.05,185.37,21c0,0-3-8.89-18-.24l-.4,1.36s17-6.79,16.58.52l3,1.07s8.9-7.61,14.85,2.65Z"/><path class="cls-1" d="M219.36,26.14S208.5,36,219.36,45c0,0-7.7,5.36,4.79,17.39h1.41s-11.25-14.46-4.1-16.07l.17-3.21s-9.78-6.43-1.58-15Z"/><path class="cls-2" d="M220.87,26.14S210,36,220.87,45c0,0-7.69,5.36,4.8,17.39h1.41S215.83,47.89,223,46.28l.18-3.21s-9.78-6.43-1.58-15Z"/><path class="cls-1" d="M184.26,121.93s-10.85,9.9,0,18.82c0,0-7.7,5.35,4.79,17.39h1.42s-11.26-14.46-4.11-16.07l.18-3.21s-9.78-6.44-1.59-15Z"/><path class="cls-2" d="M185.78,121.93s-10.86,9.9,0,18.82c0,0-7.7,5.35,4.79,17.39H192s-11.26-14.46-4.11-16.07l.18-3.21s-9.79-6.44-1.59-15Z"/></g></g></g></svg>