<svg xmlns="http://www.w3.org/2000/svg" viewBox="0 0 273.93 307.34"><defs><style>.cls-1{fill:#5e0b0b;}.cls-2{fill:#280e0f;}</style></defs><title>pepperoni</title><g id="Layer_2" data-name="Layer 2"><g id="Pepperoni_Pizza" data-name="Pepperoni Pizza"><g id="Pepperoni"><circle class="cls-1" cx="70.23" cy="139.03" r="11.16"/><path class="cls-2" d="M73.51,149.27s-11.12,5.3-15.8-8.75c0,0,.87-12.3,7.9-3.28s8.87,5.47,8.87,5.47S83.45,141.84,73.51,149.27Z"/><circle class="cls-1" cx="99.33" cy="49.2" r="11.16"/><path class="cls-2" d="M102.61,59.43S91.49,64.74,86.8,50.69c0,0,.87-12.3,7.91-3.28s8.87,5.47,8.87,5.47S112.55,52,102.61,59.43Z"/><circle class="cls-1" cx="113.99" cy="271.52" r="11.16"/><path class="cls-2" d="M117.27,281.76s-11.12,5.3-15.8-8.74c0,0,.87-12.31,7.9-3.28s8.87,5.46,8.87,5.46S127.22,274.33,117.27,281.76Z"/><circle class="cls-1" cx="174.84" cy="296.12" r="11.16"/><path class="cls-2" d="M178.13,306.35s-11.13,5.31-15.81-8.74c0,0,.87-12.3,7.9-3.28s8.87,5.47,8.87,5.47S188.07,298.92,178.13,306.35Z"/><circle class="cls-1" cx="36.3" cy="231.74" r="11.16"/><path class="cls-2" d="M39.58,242s-11.12,5.3-15.8-8.74c0,0,.87-12.31,7.9-3.28s8.87,5.46,8.87,5.46S49.53,234.55,39.58,242Z"/><circle class="cls-1" cx="76.39" cy="188.28" r="11.16"/><path class="cls-2" d="M79.67,198.51s-11.12,5.31-15.81-8.74c0,0,.88-12.31,7.91-3.28S80.64,192,80.64,192,89.61,191.08,79.67,198.51Z"/><circle class="cls-1" cx="166.29" cy="218.68" r="11.16"/><path class="cls-2" d="M169.57,228.91s-11.12,5.31-15.8-8.74c0,0,.87-12.3,7.9-3.28s8.87,5.47,8.87,5.47S179.52,221.48,169.57,228.91Z"/><circle class="cls-1" cx="232.28" cy="134.43" r="11.16"/><path class="cls-2" d="M235.57,144.66s-11.12,5.31-15.81-8.74c0,0,.87-12.3,7.9-3.28s8.87,5.47,8.87,5.47S245.51,137.23,235.57,144.66Z"/><circle class="cls-1" cx="219.09" cy="47.54" r="11.16"/><path class="cls-2" d="M222.37,57.77s-11.12,5.3-15.8-8.74c0,0,.87-12.31,7.9-3.28s8.87,5.46,8.87,5.46S232.32,50.34,222.37,57.77Z"/><circle class="cls-1" cx="165.92" cy="56.08" r="11.16"/><path class="cls-2" d="M169.2,66.31s-11.12,5.31-15.81-8.74c0,0,.88-12.3,7.91-3.28s8.87,5.47,8.87,5.47S179.14,58.88,169.2,66.31Z"/><circle class="cls-1" cx="34.7" cy="80" r="11.16"/><path class="cls-2" d="M38,90.23s-11.13,5.31-15.81-8.74c0,0,.87-12.3,7.9-3.28S39,83.68,39,83.68,47.93,82.8,38,90.23Z"/><circle class="cls-1" cx="261.52" cy="181.75" r="11.16"/><path class="cls-2" d="M264.81,192s-11.13,5.31-15.81-8.74c0,0,.87-12.31,7.9-3.28s8.87,5.46,8.87,5.46S274.75,184.55,264.81,192Z"/><circle class="cls-1" cx="215.04" cy="186.31" r="11.16"/><path class="cls-2" d="M218.32,196.55s-11.12,5.3-15.81-8.74c0,0,.88-12.31,7.91-3.28s8.87,5.46,8.87,5.46S228.26,189.12,218.32,196.55Z"/><circle class="cls-1" cx="254.6" cy="245.49" r="11.16"/><path class="cls-2" d="M257.88,255.72S246.76,261,242.08,247c0,0,.87-12.31,7.9-3.28s8.87,5.46,8.87,5.46S267.83,248.29,257.88,255.72Z"/><circle class="cls-1" cx="114.09" cy="94.32" r="11.16"/><path class="cls-2" d="M117.37,104.56s-11.12,5.3-15.8-8.74c0,0,.87-12.31,7.9-3.28S118.34,98,118.34,98,127.31,97.13,117.37,104.56Z"/><circle class="cls-1" cx="12.52" cy="134.69" r="11.16"/><path class="cls-2" d="M15.8,144.92S4.68,150.23,0,136.18c0,0,.87-12.3,7.9-3.28s8.87,5.47,8.87,5.47S25.75,137.49,15.8,144.92Z"/><circle class="cls-1" cx="18.44" cy="187.57" r="11.16"/><path class="cls-2" d="M21.72,197.81s-11.12,5.3-15.81-8.75c0,0,.88-12.3,7.91-3.28s8.87,5.47,8.87,5.47S31.66,190.38,21.72,197.81Z"/><circle class="cls-1" cx="262.77" cy="85.77" r="11.16"/><path class="cls-2" d="M266.05,96s-11.12,5.31-15.8-8.74c0,0,.87-12.3,7.9-3.28S267,89.45,267,89.45,276,88.57,266.05,96Z"/><circle class="cls-1" cx="120.52" cy="211.92" r="11.16"/><path class="cls-2" d="M123.81,222.16s-11.13,5.3-15.81-8.75c0,0,.87-12.3,7.9-3.28s8.87,5.47,8.87,5.47S133.75,214.73,123.81,222.16Z"/><circle class="cls-1" cx="186.69" cy="136.01" r="11.16"/><path class="cls-2" d="M190,146.24s-11.12,5.31-15.81-8.74c0,0,.87-12.3,7.91-3.28s8.87,5.47,8.87,5.47S199.91,138.81,190,146.24Z"/><circle class="cls-1" cx="209.33" cy="265.85" r="11.16"/><path class="cls-2" d="M212.61,276.08s-11.12,5.31-15.81-8.74c0,0,.88-12.3,7.91-3.28s8.87,5.47,8.87,5.47S222.55,268.65,212.61,276.08Z"/><circle class="cls-1" cx="51.75" cy="25.84" r="11.16"/><path class="cls-2" d="M55,36.07s-11.12,5.31-15.81-8.74c0,0,.87-12.3,7.91-3.28S56,29.52,56,29.52,65,28.64,55,36.07Z"/><circle class="cls-1" cx="46.94" cy="279.27" r="11.16"/><path class="cls-2" d="M50.22,289.51s-11.12,5.3-15.8-8.74c0,0,.87-12.31,7.9-3.28S51.19,283,51.19,283,60.16,282.08,50.22,289.51Z"/><circle class="cls-1" cx="161.3" cy="12.07" r="11.16"/><path class="cls-2" d="M164.58,22.3s-11.12,5.31-15.81-8.74c0,0,.88-12.3,7.91-3.28s8.87,5.47,8.87,5.47S174.52,14.87,164.58,22.3Z"/><circle class="cls-1" cx="155.39" cy="106.03" r="11.16"/><path class="cls-2" d="M158.68,116.26s-11.12,5.31-15.81-8.74c0,0,.87-12.3,7.91-3.28s8.87,5.47,8.87,5.47S168.62,108.83,158.68,116.26Z"/><circle class="cls-1" cx="121.25" cy="11.16" r="11.16"/><path class="cls-2" d="M124.54,21.39s-11.13,5.31-15.81-8.74c0,0,.87-12.3,7.9-3.28s8.87,5.47,8.87,5.47S134.48,14,124.54,21.39Z"/></g></g></g></svg>