<svg xmlns="http://www.w3.org/2000/svg" viewBox="0 0 429.52 428.26"><defs><style>.cls-1{fill:#11100e;}.cls-2{fill:#b3b3b3;}.cls-3{fill:#a36627;}.cls-4{fill:#aa773d;}.cls-5{fill:#e8ae61;}.cls-6{fill:#cb2027;}.cls-7{fill:#ffd89f;}.cls-8{fill:#513318;stroke:#bc6f29;stroke-miterlimit:10;}</style></defs><title>Asset 1</title><g id="Layer_2" data-name="Layer 2"><g id="Cheese_Only" data-name="Cheese Only"><circle class="cls-1" cx="215.39" cy="214.13" r="214.13"/><ellipse class="cls-2" cx="206.86" cy="207.48" rx="206.86" ry="204.89"/><ellipse class="cls-3" cx="208.26" cy="206.3" rx="197.99" ry="203.71"/><ellipse class="cls-4" cx="206.86" cy="206.3" rx="192.65" ry="198.21"/><ellipse class="cls-5" cx="206.86" cy="207.48" rx="185.69" ry="191.04"/><path class="cls-6" d="M102.89,59.45A11.59,11.59,0,0,1,97.65,71C90.91,75.6,63.2,99.43,63.2,107.89s-18,26.91-19.47,34.6-12,30-9,32.29-2.57,26.14-.54,31.53.54,37.67,8,44.59S55,296.26,61,298.57s17.22,20.76,20.22,27.68,1.49,1.54,11.23,12.3,7.49,2.31,17.22,13.84,16.48,12.3,25.46,16.92,18-3.08,26.21,7.69,31.46,3.84,35.2,6.92,6.74-3.08,20.22,0,24.71,3.84,30.7,4.61,22.47-17.68,22.47-17.68,11.23-6.16,15-6.16,3,1.54,10.49-3.84,19.47-16.15,23.21-18.45,1.5-3.85,9.74-10.77,7.49-6.15,13.48-10.76.75-.77,9-14.61S357.5,294,365,283.19s2.25-9.22,8.24-22.29,9.73-10,9.73-19.23.75-1.53,0-13.07,1.42-20,.34-27.68,3.19-16.91.31-24.6,3.1-1.54-5.89-13.84-12,11.53-12-16.91-3-32.3-3-32.3-.75,4.62-11.24-7.69-3-3.07-10.48-12.3-2.25-5.38-11.23-10-4.5-2.31-14.23-8.46-2.25,0-13.48-9.23-9.74-8.45-20.22-13.84a144.33,144.33,0,0,1-21-13.84s-14.23-4.61-18.72-6.15-12,2.31-16.47,0S216,34.1,209.6,31.4s-4.11-.4-11.6-3.47-18.72-5.38-22.47,0-14.23,9.23-14.23,9.23l-9.73-2.31h-15l-9.73,4.61-12,6.92-3,4.61Z"/><path class="cls-7" d="M106.65,65.59a11.06,11.06,0,0,1-5,11C95.2,81,68.71,103.82,68.71,111.9S51.52,137.63,50.09,145s-11.46,28.67-8.59,30.87S39,200.86,41,206s.51,36,7.67,42.64S60.83,292,66.56,294.22,83,314.07,85.89,320.68s1.43,1.47,10.74,11.77,7.16,2.2,16.47,13.23,15.75,11.76,24.34,16.17,17.19-2.94,25.06,7.35,30.07,3.68,33.65,6.62,6.45-2.94,19.34,0,23.62,3.68,29.35,4.41,21.48-16.91,21.48-16.91,10.74-5.88,14.32-5.88,2.87,1.47,10-3.67,18.61-15.44,22.19-17.65,1.43-3.67,9.31-10.29,7.16-5.88,12.89-10.29.71-.74,8.59-14,6.44-11.76,13.6-22.05,2.15-8.83,7.88-21.32,9.31-9.56,9.31-18.38.71-1.47,0-12.5,1.35-19.11.32-26.46,3.05-16.18.29-23.53,3-1.47-5.63-13.23S358,175.13,358,147.93s-2.87-30.88-2.87-30.88-.71,4.41-10.74-7.35-2.86-2.94-10-11.76-2.15-5.15-10.74-9.56-4.3-2.21-13.6-8.09-2.15,0-12.89-8.82-9.31-8.08-19.33-13.23a138,138,0,0,1-20-13.23s-13.6-4.41-17.9-5.88-11.46,2.2-15.75,0-9.31,2.22-15.4-.36-3.93-.38-11.09-3.32-17.9-5.15-21.48,0-13.61,8.82-13.61,8.82l-9.31-2.2H138.87l-9.3,4.41-11.46,6.61-2.86,4.41Z"/><rect class="cls-8" x="206.86" y="3.13" width="1.39" height="406.88"/><rect class="cls-8" x="206.86" y="6.36" width="1.39" height="399.87" transform="translate(-85.08 207.19) rotate(-45)"/><rect class="cls-8" x="207.51" y="7.33" width="1.39" height="395.23" transform="translate(413.15 -3.26) rotate(90)"/><rect class="cls-8" x="206.39" y="5.12" width="1.39" height="400.79" transform="translate(205.98 -86.24) rotate(45)"/></g></g></svg>