<svg xmlns="http://www.w3.org/2000/svg" viewBox="0 0 304.33 323.49"><defs><style>.cls-1{fill:#1e1e1e;}.cls-2{fill:#e33626;}.cls-3{fill:#a31d21;}.cls-4{fill:#f38520;}.cls-5{fill:#f0982f;}</style></defs><title>tomato</title><g id="Layer_2" data-name="Layer 2"><g id="Tomatoes_Pizza" data-name="Tomatoes Pizza"><path class="cls-1" d="M125.7.49s-10.28,0-9.84,7c.22,3.41,1.13,2.91.79,7.18s-2.81,1.39-2.34,10.2c0,0,3.22,12.45,20,9.2,0,0,15.55-4,11.33-20.32C145.64,13.73,140.55.49,125.7.49Z"/><path class="cls-2" d="M125.14,0s-10.28,0-9.84,7c.21,3.41,1.13,2.91.79,7.18s-2.81,1.39-2.35,10.2c0,0,3.23,12.45,20,9.2,0,0,15.55-4,11.33-20.32C145.08,13.24,140,0,125.14,0Z"/><path class="cls-3" d="M121.32,20.88s-5.4,3.54-1.81,5.68,8.32,2.49,13.6,1.55,7.69-4.88,7.25-5.46c0,0-4.52-3.56-3.6-1.64,0,0,1.33,1.92-.28,1.92s-.79.26-.79.26.25,1.6-1.85.72c0,0-.2,0-.45.69a.86.86,0,0,1-1.14,0c-.64-.48-.79.25-.79.25s-.62,1.37-1.07-.13-1,.15-1,.15-.77.16-.68-.51-.53,0-.53,0-1.56,1.37-1.08-.21-.86.28-.86.28-1.28,1.15-.56-.9c0,0,.1-.66-1.08,0,0,0-2.11.74-.69-.66s-2.38.77-2.38.77-1.68,0,1-1.78C122.53,21.9,124.38,19.43,121.32,20.88Z"/><path class="cls-4" d="M119.25,24.77s1.26-.38,1.24-1S118.31,24.69,119.25,24.77Z"/><path class="cls-4" d="M120.8,26.11s1.26-.38,1.24-1S119.86,26,120.8,26.11Z"/><path class="cls-4" d="M123,26.87s1.26-.38,1.24-1S122.1,26.79,123,26.87Z"/><path class="cls-4" d="M125.68,27.45s1-.75.69-1.31S124.77,27.68,125.68,27.45Z"/><path class="cls-4" d="M134.28,27s.06-1.12-.63-1.32S133.83,27.7,134.28,27Z"/><path class="cls-4" d="M137.12,25.78s-.3-1.09-1-1.13S136.91,26.55,137.12,25.78Z"/><path class="cls-4" d="M138.45,24.59s-.3-1.08-1-1.13S138.24,25.36,138.45,24.59Z"/><path class="cls-4" d="M131.35,27.53s.4-1.06-.2-1.41S130.7,28.11,131.35,27.53Z"/><path class="cls-4" d="M128.6,27.65s.74-.93.28-1.41S127.78,28.07,128.6,27.65Z"/><path class="cls-3" d="M123,10.56s-3.54-5.4.6-5.94,8.62,1,13.09,4,5.1,7.54,4.48,7.9c0,0-5.58,1.46-4,.06,0,0,2-1.22.5-1.86s-.62-.56-.62-.56.88-1.37-1.4-1.4c0,0-.19-.09-.14-.81a.86.86,0,0,0-1-.44c-.78.19-.63-.55-.63-.55s0-1.5-1-.3-.87-.54-.87-.54-.64-.45-.82.19-.49-.23-.49-.23-.88-1.87-1.07-.23-.68-.6-.68-.6-.7-1.57-.86.6c0,0-.18.65-1-.47,0,0-1.65-1.51-.9.33s-1.88-1.65-1.88-1.65-1.53-.66.22,2C124.47,10.1,125.19,13.11,123,10.56Z"/><path class="cls-4" d="M122.61,6.16s1,.85.74,1.41S121.72,5.86,122.61,6.16Z"/><path class="cls-4" d="M124.56,5.55s1,.85.74,1.41S123.67,5.25,124.56,5.55Z"/><path class="cls-4" d="M126.93,5.75s1,.85.73,1.41S126,5.45,126.93,5.75Z"/><path class="cls-4" d="M129.58,6.27s.61,1.08.11,1.48S128.83,5.7,129.58,6.27Z"/><path class="cls-4" d="M137.28,10.11s-.39,1.05-1.1,1S137.15,9.29,137.28,10.11Z"/><path class="cls-4" d="M139.4,12.37s-.7.87-1.39.62S139.52,11.58,139.4,12.37Z"/><path class="cls-4" d="M140.14,14s-.7.87-1.39.62S140.26,13.19,140.14,14Z"/><path class="cls-4" d="M134.81,8.46s-.06,1.13-.75,1.22S134.44,7.66,134.81,8.46Z"/><path class="cls-4" d="M132.33,7.25s.31,1.15-.3,1.4S131.75,6.55,132.33,7.25Z"/><path class="cls-5" d="M115.54,16.68s4.27-2.06,5.82,0,2.36,2.37,2.09,2.88,1,3.14,3,3.14,7.65,1.8,8.34-2.07,3.68-5.27,0-7-9.09-3.43-9.4-2.09-2.58,3.95-4.42,3.45-4.83-1.81-4.83-2.41S116.24,16.71,115.54,16.68Z"/><path class="cls-1" d="M12,171.43s-10.28,0-9.84,7c.21,3.4,1.13,2.9.79,7.17S.16,187,.62,195.8c0,0,3.23,12.44,20,9.19,0,0,15.55-4,11.34-20.32C32,184.67,26.86,171.43,12,171.43Z"/><path class="cls-2" d="M11.45,170.94s-10.27,0-9.84,7c.22,3.4,1.13,2.9.8,7.17S-.41,186.49.06,195.31c0,0,3.22,12.44,20,9.19,0,0,15.55-4,11.33-20.32C31.39,184.18,26.3,170.94,11.45,170.94Z"/><path class="cls-3" d="M7.63,191.82s-5.39,3.54-1.81,5.69,8.32,2.48,13.61,1.54,7.68-4.88,7.25-5.46c0,0-4.53-3.56-3.61-1.63,0,0,1.33,1.91-.28,1.91s-.79.26-.79.26.26,1.6-1.85.73c0,0-.2,0-.44.68a.87.87,0,0,1-1.14,0c-.65-.49-.8.25-.8.25s-.62,1.36-1.07-.13-1,.14-1,.14-.78.16-.69-.5-.53,0-.53,0-1.56,1.37-1.08-.21-.86.28-.86.28-1.27,1.16-.55-.89c0,0,.1-.67-1.08,0,0,0-2.12.74-.7-.65s-2.38.76-2.38.76-1.67,0,1-1.78C8.84,192.84,10.7,190.37,7.63,191.82Z"/><path class="cls-4" d="M5.56,195.71s1.26-.38,1.24-1S4.62,195.63,5.56,195.71Z"/><path class="cls-4" d="M7.11,197.05s1.26-.38,1.24-1S6.17,197,7.11,197.05Z"/><path class="cls-4" d="M9.36,197.81s1.25-.38,1.23-1S8.42,197.73,9.36,197.81Z"/><path class="cls-4" d="M12,198.4s1-.76.7-1.31S11.08,198.62,12,198.4Z"/><path class="cls-4" d="M20.59,197.94s.06-1.11-.63-1.32S20.14,198.64,20.59,197.94Z"/><path class="cls-4" d="M23.44,196.72s-.3-1.08-1-1.13S23.23,197.49,23.44,196.72Z"/><path class="cls-4" d="M24.76,195.53s-.3-1.08-1-1.12S24.55,196.31,24.76,195.53Z"/><path class="cls-4" d="M17.66,198.48s.41-1.07-.19-1.42S17,199.06,17.66,198.48Z"/><path class="cls-4" d="M14.91,198.6s.74-.94.28-1.41S14.1,199,14.91,198.6Z"/><path class="cls-3" d="M9.27,181.5s-3.54-5.4.61-5.94,8.61,1,13.09,4,5.09,7.55,4.47,7.9c0,0-5.57,1.46-4,.07,0,0,2-1.23.51-1.87s-.63-.56-.63-.56.88-1.37-1.4-1.4c0,0-.18-.09-.13-.81a.88.88,0,0,0-1-.44c-.79.19-.63-.54-.63-.54s0-1.5-1-.31-.86-.54-.86-.54-.65-.45-.83.2-.48-.23-.48-.23-.89-1.88-1.08-.24-.67-.6-.67-.6-.71-1.56-.87.6c0,0-.17.65-1-.46,0,0-1.64-1.52-.89.32S10.57,179,10.57,179s-1.54-.66.21,2C10.78,181.05,11.5,184.05,9.27,181.5Z"/><path class="cls-4" d="M8.92,177.11s1,.85.74,1.4S8,176.8,8.92,177.11Z"/><path class="cls-4" d="M10.88,176.5s1,.85.74,1.4S10,176.19,10.88,176.5Z"/><path class="cls-4" d="M13.24,176.69s1,.85.74,1.41S12.35,176.39,13.24,176.69Z"/><path class="cls-4" d="M15.89,177.21s.61,1.09.11,1.48S15.15,176.64,15.89,177.21Z"/><path class="cls-4" d="M23.59,181.06s-.38,1-1.1,1S23.46,180.23,23.59,181.06Z"/><path class="cls-4" d="M25.71,183.31s-.7.88-1.39.62S25.83,182.52,25.71,183.31Z"/><path class="cls-4" d="M26.45,184.93s-.7.87-1.39.62S26.57,184.14,26.45,184.93Z"/><path class="cls-4" d="M21.12,179.4s-.05,1.14-.74,1.22S20.76,178.61,21.12,179.4Z"/><path class="cls-4" d="M18.65,178.19s.3,1.15-.31,1.4S18.06,177.49,18.65,178.19Z"/><path class="cls-5" d="M1.86,187.62s4.27-2.06,5.82,0S10,190,9.76,190.48s1,3.14,3,3.14,7.64,1.8,8.34-2.07,3.67-5.27,0-7-9.1-3.43-9.41-2.08-2.58,3.94-4.42,3.45-4.83-1.82-4.83-2.42S2.56,187.65,1.86,187.62Z"/><path class="cls-1" d="M231,127.32s-5.95-8.39-11.39-4c-2.65,2.14-1.72,2.6-5.39,4.8s-2.76-1.49-9.68,4c0,0-8.29,9.83,4.07,21.63,0,0,12.26,10.37,23.13-2.51C231.74,151.24,239.59,139.42,231,127.32Z"/><path class="cls-2" d="M231.07,126.57s-5.94-8.38-11.38-4c-2.66,2.14-1.72,2.6-5.4,4.79s-2.76-1.48-9.68,4c0,0-8.28,9.84,4.07,21.64,0,0,12.26,10.37,23.13-2.51C231.81,150.5,239.66,138.68,231.07,126.57Z"/><path class="cls-3" d="M211.84,135.54s-6-2.36-5.69,1.81,2.79,8.22,6.61,12,8.43,3.44,8.65,2.76c0,0,.29-5.76-.75-3.89,0,0-.8,2.19-1.72.88s-.68-.5-.68-.5-1.16,1.14-1.66-1.09c0,0-.12-.16-.82,0a.87.87,0,0,1-.64-.94c0-.81-.66-.5-.66-.5s-1.48.28-.52-1-.7-.73-.7-.73-.58-.54,0-.85-.32-.42-.32-.42-2-.48-.45-1-.73-.54-.73-.54-1.68-.37.41-1c0,0,.6-.3-.66-.86,0,0-1.82-1.3.14-.94s-2-1.5-2-1.5-1-1.37,2-.21C211.7,137.11,214.79,137.19,211.84,135.54Z"/><path class="cls-4" d="M207.46,136.1s1,.81,1.53.43S207,135.29,207.46,136.1Z"/><path class="cls-4" d="M207.27,138.14s1,.8,1.53.43S206.79,137.33,207.27,138.14Z"/><path class="cls-4" d="M208,140.41s1,.8,1.52.43S207.47,139.6,208,140.41Z"/><path class="cls-4" d="M209,142.9s1.19.37,1.47-.2S208.28,142.29,209,142.9Z"/><path class="cls-4" d="M214.34,149.65s.95-.6.71-1.28S213.51,149.69,214.34,149.65Z"/><path class="cls-4" d="M217,151.26s.71-.87.32-1.49S216.23,151.54,217,151.26Z"/><path class="cls-4" d="M218.72,151.65s.71-.87.32-1.49S218,151.93,218.72,151.65Z"/><path class="cls-4" d="M212.21,147.57s1.1-.29,1-1S211.36,147.37,212.21,147.57Z"/><path class="cls-4" d="M210.52,145.39s1.19.06,1.31-.59S209.71,145,210.52,145.39Z"/><path class="cls-3" d="M221.2,130.9s2.36-6,5.19-2.94,4.14,7.63,4.31,13-3.21,8.52-3.86,8.21c0,0-4.42-3.69-2.34-3.19,0,0,2.14.91,1.82-.66s.09-.83.09-.83,1.62-.08.33-2c0,0,0-.2.58-.58a.86.86,0,0,0-.25-1.11c-.61-.53.08-.83.08-.83s1.21-.89-.35-1-.06-1-.06-1,0-.79-.63-.57-.1-.52-.1-.52,1-1.81-.43-1,.1-.89.1-.89.87-1.49-1-.36c0,0-.63.23-.18-1.07,0,0,.28-2.22-.79-.54s.26-2.49.26-2.49-.35-1.64-1.53,1.35C222.45,131.87,220.41,134.2,221.2,130.9Z"/><path class="cls-4" d="M224.58,128.08s-.11,1.31-.71,1.41S224.31,127.17,224.58,128.08Z"/><path class="cls-4" d="M226.21,129.32s-.11,1.31-.72,1.41S225.94,128.41,226.21,129.32Z"/><path class="cls-4" d="M227.42,131.36s-.12,1.31-.72,1.41S227.15,130.45,227.42,131.36Z"/><path class="cls-4" d="M228.53,133.82s-.53,1.13-1.14,1S228.57,132.88,228.53,133.82Z"/><path class="cls-4" d="M229.85,142.33s-1.08.29-1.42-.35S230.44,141.74,229.85,142.33Z"/><path class="cls-4" d="M229.24,145.36s-1.12-.07-1.32-.78S230,145,229.24,145.36Z"/><path class="cls-4" d="M228.35,146.9s-1.13-.07-1.32-.78S229.06,146.54,228.35,146.9Z"/><path class="cls-4" d="M229.77,139.35s-1,.62-1.42.1S230.21,138.59,229.77,139.35Z"/><path class="cls-4" d="M229.32,136.63s-.76.92-1.32.57S229.56,135.75,229.32,136.63Z"/><path class="cls-5" d="M211.92,128.4s4.15,2.29,3.39,4.73-.58,3.3-1.15,3.37-2,2.62-.81,4.28,3,7.28,6.51,5.61,6.43,0,5.74-4.07-2.47-9.41-3.74-8.88-4.71.18-5.37-1.61-1.32-5-.83-5.33S212.3,129,211.92,128.4Z"/><path class="cls-1" d="M214.47,257.84s8.15-6.25,3.55-11.53c-2.24-2.57-2.67-1.61-5-5.2s1.38-2.82-4.35-9.53c0,0-10.14-7.91-21.47,4.89,0,0-9.89,12.64,3.39,23C190.59,259.49,202.69,266.89,214.47,257.84Z"/><path class="cls-2" d="M215.21,257.89s8.15-6.26,3.55-11.53c-2.24-2.57-2.66-1.62-5-5.21s1.38-2.81-4.36-9.52c0,0-10.13-7.91-21.46,4.89,0,0-9.9,12.64,3.38,23C191.33,259.53,203.44,266.93,215.21,257.89Z"/><path class="cls-3" d="M205.53,239s2.12-6.1-2-5.62-8.11,3.1-11.73,7.06-3.12,8.55-2.43,8.74c0,0,5.76.08,3.86-.89,0,0-2.22-.71-.94-1.69s.47-.69.47-.69-1.18-1.12,1-1.7c0,0,.15-.13-.07-.82a.87.87,0,0,1,.92-.68c.8,0,.47-.68.47-.68s-.33-1.46.94-.55.7-.73.7-.73.52-.59.85,0,.42-.34.42-.34.4-2,1-.49.51-.74.51-.74.31-1.69,1,.37c0,0,.32.59.83-.69,0,0,1.23-1.87,1,.1s1.43-2.05,1.43-2.05,1.33-1,.28,2C204,238.93,204,242,205.53,239Z"/><path class="cls-4" d="M204.8,234.66s-.77,1.06-.38,1.54S205.59,234.15,204.8,234.66Z"/><path class="cls-4" d="M202.76,234.54s-.77,1.07-.38,1.54S203.55,234,202.76,234.54Z"/><path class="cls-4" d="M200.51,235.3s-.76,1.07-.37,1.54S201.31,234.79,200.51,235.3Z"/><path class="cls-4" d="M198.07,236.44s-.34,1.21.24,1.47S198.65,235.71,198.07,236.44Z"/><path class="cls-4" d="M191.52,242s.63.92,1.3.67S191.45,241.21,191.52,242Z"/><path class="cls-4" d="M190,244.74s.9.68,1.5.27S189.7,244,190,244.74Z"/><path class="cls-4" d="M189.68,246.49s.9.68,1.51.27S189.38,245.75,189.68,246.49Z"/><path class="cls-4" d="M193.52,239.83s.33,1.1,1,1S193.68,239,193.52,239.83Z"/><path class="cls-4" d="M195.63,238.06s0,1.19.64,1.29S196,237.24,195.63,238.06Z"/><path class="cls-3" d="M210.51,248.19s6.1,2.13,3.14,5.08-7.47,4.42-12.83,4.79-8.63-2.88-8.35-3.54c0,0,3.53-4.56,3.1-2.46,0,0-.83,2.17.73,1.78s.83.06.83.06.14,1.62,2,.26c0,0,.2,0,.6.56a.86.86,0,0,0,1.1-.29c.51-.63.83,0,.83,0s.94,1.17,1-.39,1-.1,1-.1.79,0,.54-.65.52-.12.52-.12,1.85,1,1-.47.9.07.9.07,1.52.81.32-1c0,0-.25-.62,1.06-.23,0,0,2.23.2.51-.8s2.5.16,2.5.16,1.62-.41-1.41-1.48C209.59,249.47,207.19,247.52,210.51,248.19Z"/><path class="cls-4" d="M213.46,251.46s-1.31-.06-1.44-.66S214.36,251.16,213.46,251.46Z"/><path class="cls-4" d="M212.28,253.14s-1.31-.07-1.44-.67S213.18,252.83,212.28,253.14Z"/><path class="cls-4" d="M210.29,254.42s-1.31-.07-1.44-.67S211.18,254.11,210.29,254.42Z"/><path class="cls-4" d="M207.88,255.62s-1.15-.49-1-1.1S208.81,255.62,207.88,255.62Z"/><path class="cls-4" d="M199.42,257.26s-.33-1.06.29-1.43S200,257.83,199.42,257.26Z"/><path class="cls-4" d="M196.37,256.76s0-1.12.72-1.34S196.76,257.46,196.37,256.76Z"/><path class="cls-4" d="M194.8,255.93s0-1.12.72-1.34S195.18,256.63,194.8,255.93Z"/><path class="cls-4" d="M202.39,257.07s-.65-.93-.15-1.42S203.17,257.48,202.39,257.07Z"/><path class="cls-4" d="M205.09,256.52s-.94-.73-.61-1.3S206,256.73,205.09,256.52Z"/><path class="cls-5" d="M212.66,238.82s-2.13,4.23-4.6,3.56-3.31-.45-3.41-1-2.69-1.89-4.31-.64-7.16,3.22-5.35,6.71.29,6.43,4.28,5.58,9.31-2.81,8.73-4.07-.35-4.7,1.4-5.43,4.94-1.5,5.31-1S212.09,239.22,212.66,238.82Z"/><path class="cls-1" d="M21.37,73.31s-10.28,0-9.84,7c.21,3.41,1.13,2.91.79,7.18S9.51,88.86,10,97.67c0,0,3.23,12.45,20,9.2,0,0,15.55-4,11.33-20.32C41.31,86.55,36.21,73.31,21.37,73.31Z"/><path class="cls-2" d="M20.81,72.82s-10.28,0-9.84,7c.21,3.41,1.13,2.91.79,7.18S9,88.37,9.41,97.18c0,0,3.23,12.45,20,9.2,0,0,15.55-4,11.34-20.32C40.75,86.06,35.65,72.82,20.81,72.82Z"/><path class="cls-3" d="M17,93.69s-5.4,3.55-1.81,5.69,8.31,2.49,13.6,1.55S36.46,96,36,95.47c0,0-4.53-3.56-3.6-1.64,0,0,1.32,1.92-.28,1.92s-.8.26-.8.26.26,1.6-1.85.72c0,0-.2,0-.44.69a.87.87,0,0,1-1.14,0c-.64-.48-.79.25-.79.25s-.63,1.37-1.08-.13-1,.15-1,.15-.78.16-.68-.51-.54,0-.54,0-1.56,1.37-1.08-.21-.86.28-.86.28-1.27,1.15-.55-.9c0,0,.1-.66-1.08,0,0,0-2.12.73-.69-.66s-2.39.77-2.39.77-1.67,0,1-1.78C18.19,94.72,20.05,92.25,17,93.69Z"/><path class="cls-4" d="M14.92,97.59s1.25-.38,1.23-1S14,97.51,14.92,97.59Z"/><path class="cls-4" d="M16.46,98.93s1.26-.38,1.24-1S15.52,98.85,16.46,98.93Z"/><path class="cls-4" d="M18.71,99.69s1.26-.38,1.23-1S17.77,99.61,18.71,99.69Z"/><path class="cls-4" d="M21.34,100.27s1-.75.7-1.31S20.43,100.5,21.34,100.27Z"/><path class="cls-4" d="M29.94,99.82s.07-1.12-.62-1.32S29.5,100.52,29.94,99.82Z"/><path class="cls-4" d="M32.79,98.6s-.3-1.09-1-1.13S32.58,99.37,32.79,98.6Z"/><path class="cls-4" d="M34.11,97.41s-.3-1.09-1-1.13S33.9,98.18,34.11,97.41Z"/><path class="cls-4" d="M27,100.35s.41-1.06-.19-1.41S26.36,100.93,27,100.35Z"/><path class="cls-4" d="M24.26,100.47s.74-.93.28-1.41S23.45,100.88,24.26,100.47Z"/><path class="cls-3" d="M18.62,83.38s-3.53-5.4.61-5.94,8.62,1,13.09,4,5.1,7.54,4.47,7.9c0,0-5.57,1.46-4,.06,0,0,2-1.22.51-1.86s-.62-.56-.62-.56.87-1.37-1.41-1.4c0,0-.18-.09-.13-.81a.87.87,0,0,0-1.05-.44c-.79.19-.63-.55-.63-.55s0-1.5-1-.31S27.6,83,27.6,83s-.65-.45-.83.19-.48-.23-.48-.23-.88-1.87-1.08-.23-.67-.6-.67-.6-.71-1.57-.87.6c0,0-.17.65-1-.47,0,0-1.65-1.52-.9.33s-1.88-1.65-1.88-1.65-1.54-.66.22,2C20.14,82.92,20.85,85.93,18.62,83.38Z"/><path class="cls-4" d="M18.28,79s1,.85.73,1.41S17.38,78.68,18.28,79Z"/><path class="cls-4" d="M20.23,78.37s1,.85.74,1.41S19.34,78.07,20.23,78.37Z"/><path class="cls-4" d="M22.59,78.57s1,.85.74,1.41S21.7,78.27,22.59,78.57Z"/><path class="cls-4" d="M25.24,79.09s.61,1.08.12,1.47S24.5,78.52,25.24,79.09Z"/><path class="cls-4" d="M33,82.93s-.39,1-1.11,1S32.81,82.11,33,82.93Z"/><path class="cls-4" d="M35.07,85.19s-.71.87-1.4.62S35.18,84.4,35.07,85.19Z"/><path class="cls-4" d="M35.81,86.81s-.71.87-1.4.62S35.92,86,35.81,86.81Z"/><path class="cls-4" d="M30.47,81.27s0,1.14-.74,1.22S30.11,80.48,30.47,81.27Z"/><path class="cls-4" d="M28,80.07s.3,1.15-.31,1.4S27.42,79.36,28,80.07Z"/><path class="cls-5" d="M11.21,89.5s4.27-2.06,5.82,0,2.36,2.38,2.08,2.89,1,3.14,3,3.14,7.64,1.8,8.34-2.07,3.68-5.27,0-7-9.1-3.44-9.41-2.09-2.58,3.94-4.41,3.45-4.84-1.82-4.84-2.41S11.91,89.53,11.21,89.5Z"/><path class="cls-1" d="M48.42,107.15s-10.28,0-9.84,7c.21,3.41,1.13,2.91.79,7.17s-2.81,1.4-2.35,10.21c0,0,3.23,12.45,20,9.2,0,0,15.54-4,11.33-20.32C68.36,120.39,63.26,107.15,48.42,107.15Z"/><path class="cls-2" d="M47.85,106.66s-10.27,0-9.83,7c.21,3.4,1.12,2.91.79,7.17S36,122.21,36.46,131c0,0,3.22,12.45,20,9.2,0,0,15.55-4,11.34-20.32C67.8,119.9,62.7,106.66,47.85,106.66Z"/><path class="cls-3" d="M44,127.53s-5.4,3.55-1.82,5.69,8.32,2.48,13.61,1.55,7.68-4.89,7.25-5.46c0,0-4.53-3.57-3.61-1.64,0,0,1.33,1.91-.28,1.91s-.79.27-.79.27.26,1.6-1.85.72c0,0-.2,0-.44.69a.87.87,0,0,1-1.14,0c-.64-.48-.8.25-.8.25s-.62,1.37-1.07-.13-1,.15-1,.15-.78.16-.69-.51-.53,0-.53,0-1.56,1.37-1.08-.22-.86.29-.86.29-1.27,1.15-.55-.9c0,0,.1-.66-1.08,0,0,0-2.12.73-.7-.66s-2.38.76-2.38.76-1.67,0,1-1.77C45.24,128.56,47.1,126.08,44,127.53Z"/><path class="cls-4" d="M42,131.43s1.26-.38,1.24-1S41,131.35,42,131.43Z"/><path class="cls-4" d="M43.51,132.77s1.26-.38,1.24-1S42.57,132.69,43.51,132.77Z"/><path class="cls-4" d="M45.76,133.53s1.26-.38,1.23-1S44.82,133.45,45.76,133.53Z"/><path class="cls-4" d="M48.39,134.11s1-.75.7-1.31S47.48,134.34,48.39,134.11Z"/><path class="cls-4" d="M57,133.66s.07-1.12-.62-1.32S56.54,134.36,57,133.66Z"/><path class="cls-4" d="M59.84,132.43s-.3-1.08-1-1.12S59.63,133.21,59.84,132.43Z"/><path class="cls-4" d="M61.16,131.25s-.3-1.09-1-1.13S61,132,61.16,131.25Z"/><path class="cls-4" d="M54.06,134.19s.41-1.07-.19-1.41S53.41,134.77,54.06,134.19Z"/><path class="cls-4" d="M51.31,134.31s.74-.93.28-1.41S50.5,134.72,51.31,134.31Z"/><path class="cls-3" d="M45.67,117.22s-3.53-5.41.61-5.94,8.62,1,13.09,4,5.1,7.54,4.47,7.9c0,0-5.57,1.46-4,.06,0,0,2-1.22.51-1.87s-.62-.55-.62-.55.87-1.37-1.41-1.4c0,0-.18-.09-.13-.81a.87.87,0,0,0-1-.44c-.79.19-.63-.55-.63-.55s0-1.5-1-.31-.86-.53-.86-.53-.65-.45-.83.19-.48-.23-.48-.23-.89-1.87-1.08-.23-.67-.6-.67-.6-.71-1.57-.87.6c0,0-.17.65-1-.47,0,0-1.65-1.52-.9.33S47,114.73,47,114.73s-1.54-.66.21,2C47.18,116.76,47.9,119.77,45.67,117.22Z"/><path class="cls-4" d="M45.33,112.82s1,.85.73,1.41S44.43,112.52,45.33,112.82Z"/><path class="cls-4" d="M47.28,112.21s1,.85.74,1.41S46.39,111.91,47.28,112.21Z"/><path class="cls-4" d="M49.64,112.41s1,.85.74,1.4S48.75,112.11,49.64,112.41Z"/><path class="cls-4" d="M52.29,112.93s.61,1.08.11,1.47S51.55,112.35,52.29,112.93Z"/><path class="cls-4" d="M60,116.77s-.39,1-1.11,1S59.86,116,60,116.77Z"/><path class="cls-4" d="M62.12,119s-.71.87-1.4.62S62.23,118.23,62.12,119Z"/><path class="cls-4" d="M62.86,120.64s-.71.88-1.4.63S63,119.85,62.86,120.64Z"/><path class="cls-4" d="M57.52,115.11s-.05,1.14-.74,1.22S57.16,114.32,57.52,115.11Z"/><path class="cls-4" d="M55.05,113.91s.3,1.15-.31,1.4S54.47,113.2,55.05,113.91Z"/><path class="cls-5" d="M38.26,123.34s4.27-2.06,5.82,0,2.36,2.38,2.08,2.89,1,3.13,3,3.13,7.64,1.81,8.34-2.06,3.68-5.27,0-7-9.1-3.44-9.41-2.09-2.58,3.94-4.42,3.45-4.83-1.82-4.83-2.41S39,123.37,38.26,123.34Z"/><path class="cls-1" d="M75.4,174.78s-10.28,0-9.84,7c.21,3.4,1.13,2.9.79,7.17s-2.81,1.39-2.35,10.21c0,0,3.23,12.44,20,9.19,0,0,15.55-4,11.33-20.31C95.34,188,90.24,174.78,75.4,174.78Z"/><path class="cls-2" d="M74.84,174.29s-10.28,0-9.84,7c.21,3.4,1.13,2.9.79,7.17s-2.81,1.39-2.35,10.21c0,0,3.23,12.44,20,9.19,0,0,15.55-4,11.34-20.31C94.78,187.54,89.68,174.29,74.84,174.29Z"/><path class="cls-3" d="M71,195.17s-5.4,3.54-1.81,5.69,8.31,2.48,13.6,1.54,7.68-4.88,7.25-5.45c0,0-4.53-3.57-3.6-1.64,0,0,1.32,1.91-.28,1.91s-.8.26-.8.26.26,1.61-1.85.73c0,0-.2,0-.44.68a.87.87,0,0,1-1.14,0c-.64-.49-.79.25-.79.25s-.63,1.36-1.08-.13-1,.14-1,.14-.78.16-.68-.5-.54,0-.54,0-1.56,1.36-1.08-.22-.86.28-.86.28-1.27,1.16-.55-.89c0,0,.1-.67-1.08,0,0,0-2.12.74-.69-.65s-2.39.76-2.39.76-1.67,0,1-1.78C72.22,196.19,74.08,193.72,71,195.17Z"/><path class="cls-4" d="M69,199.06s1.25-.38,1.23-1S68,199,69,199.06Z"/><path class="cls-4" d="M70.49,200.4s1.26-.38,1.24-1S69.56,200.32,70.49,200.4Z"/><path class="cls-4" d="M72.74,201.16s1.26-.38,1.24-1S71.8,201.08,72.74,201.16Z"/><path class="cls-4" d="M75.37,201.75s1-.75.7-1.31S74.47,202,75.37,201.75Z"/><path class="cls-4" d="M84,201.29s.07-1.11-.62-1.32S83.53,202,84,201.29Z"/><path class="cls-4" d="M86.82,200.07s-.3-1.08-1-1.12S86.61,200.84,86.82,200.07Z"/><path class="cls-4" d="M88.14,198.88s-.3-1.08-1-1.12S87.93,199.66,88.14,198.88Z"/><path class="cls-4" d="M81,201.83s.41-1.07-.19-1.42S80.39,202.41,81,201.83Z"/><path class="cls-4" d="M78.29,202s.74-.94.28-1.41S77.48,202.36,78.29,202Z"/><path class="cls-3" d="M72.65,184.85s-3.53-5.4.61-5.93,8.62,1,13.09,4,5.1,7.54,4.47,7.89c0,0-5.57,1.47-3.95.07,0,0,2-1.23.5-1.87s-.62-.56-.62-.56.87-1.36-1.41-1.4c0,0-.18-.08-.13-.81a.87.87,0,0,0-1-.43c-.79.18-.63-.55-.63-.55s0-1.5-1-.31-.86-.54-.86-.54-.65-.45-.83.2-.48-.23-.48-.23-.88-1.88-1.07-.23-.68-.61-.68-.61-.71-1.56-.87.6c0,0-.17.65-1-.46,0,0-1.65-1.52-.9.32S74,182.36,74,182.36s-1.54-.66.22,2C74.17,184.4,74.88,187.4,72.65,184.85Z"/><path class="cls-4" d="M72.31,180.46s1,.85.73,1.4S71.41,180.15,72.31,180.46Z"/><path class="cls-4" d="M74.26,179.85s1,.85.74,1.4S73.37,179.55,74.26,179.85Z"/><path class="cls-4" d="M76.62,180.05s1,.84.74,1.4S75.73,179.74,76.62,180.05Z"/><path class="cls-4" d="M79.27,180.56s.62,1.09.12,1.48S78.53,180,79.27,180.56Z"/><path class="cls-4" d="M87,184.41s-.39,1-1.1,1S86.85,183.59,87,184.41Z"/><path class="cls-4" d="M89.1,186.66s-.71.88-1.4.62S89.21,185.87,89.1,186.66Z"/><path class="cls-4" d="M89.84,188.28s-.71.88-1.4.62S90,187.49,89.84,188.28Z"/><path class="cls-4" d="M84.5,182.75s0,1.14-.74,1.22S84.14,182,84.5,182.75Z"/><path class="cls-4" d="M82,181.54s.3,1.15-.31,1.41S81.45,180.84,82,181.54Z"/><path class="cls-5" d="M65.24,191s4.27-2.06,5.82,0,2.36,2.37,2.09,2.88,1,3.14,3,3.14,7.64,1.8,8.34-2.07,3.68-5.27,0-7-9.1-3.43-9.4-2.08-2.59,3.94-4.42,3.45-4.83-1.82-4.83-2.42S65.94,191,65.24,191Z"/><path class="cls-1" d="M74,264.89s-10.28,0-9.84,7c.21,3.4,1.13,2.9.79,7.17s-2.81,1.39-2.35,10.21c0,0,3.23,12.44,20,9.19,0,0,15.54-4,11.33-20.31C93.93,278.14,88.83,264.89,74,264.89Z"/><path class="cls-2" d="M73.42,264.4s-10.27,0-9.83,7c.21,3.4,1.12,2.9.79,7.17S61.56,280,62,288.77c0,0,3.22,12.44,20,9.19,0,0,15.55-4,11.34-20.31C93.37,277.65,88.27,264.4,73.42,264.4Z"/><path class="cls-3" d="M69.61,285.28s-5.4,3.54-1.82,5.69,8.32,2.48,13.61,1.54,7.68-4.88,7.25-5.45c0,0-4.53-3.57-3.61-1.64,0,0,1.33,1.91-.28,1.91s-.79.26-.79.26.26,1.61-1.85.73c0,0-.2,0-.44.68a.87.87,0,0,1-1.14,0c-.64-.49-.8.25-.8.25s-.62,1.36-1.07-.13-1,.15-1,.15-.78.15-.69-.51-.53,0-.53,0-1.56,1.36-1.08-.22-.86.28-.86.28-1.27,1.16-.55-.89c0,0,.1-.67-1.08,0,0,0-2.12.73-.7-.66s-2.38.76-2.38.76-1.67,0,1-1.78C70.81,286.3,72.67,283.83,69.61,285.28Z"/><path class="cls-4" d="M67.53,289.17s1.26-.38,1.24-1S66.59,289.09,67.53,289.17Z"/><path class="cls-4" d="M69.08,290.51s1.26-.38,1.24-1S68.14,290.43,69.08,290.51Z"/><path class="cls-4" d="M71.33,291.27s1.26-.38,1.23-1S70.39,291.19,71.33,291.27Z"/><path class="cls-4" d="M74,291.86s1-.75.7-1.31S73.05,292.08,74,291.86Z"/><path class="cls-4" d="M82.56,291.4s.07-1.11-.62-1.32S82.11,292.1,82.56,291.4Z"/><path class="cls-4" d="M85.41,290.18s-.3-1.08-1-1.12S85.2,291,85.41,290.18Z"/><path class="cls-4" d="M86.73,289s-.3-1.08-1-1.12S86.52,289.77,86.73,289Z"/><path class="cls-4" d="M79.63,291.94s.41-1.07-.19-1.42S79,292.52,79.63,291.94Z"/><path class="cls-4" d="M76.88,292.06s.74-.94.28-1.41S76.07,292.47,76.88,292.06Z"/><path class="cls-3" d="M71.24,275s-3.53-5.4.61-5.93,8.62,1,13.09,4,5.1,7.54,4.47,7.89c0,0-5.57,1.47-4,.07,0,0,2-1.23.51-1.87s-.62-.55-.62-.55.87-1.37-1.41-1.41c0,0-.18-.08-.13-.8a.87.87,0,0,0-1-.44c-.79.18-.63-.55-.63-.55s0-1.5-1-.31-.86-.53-.86-.53-.65-.46-.83.19-.48-.23-.48-.23-.89-1.88-1.08-.23-.67-.61-.67-.61-.71-1.56-.87.6c0,0-.17.65-1-.46,0,0-1.65-1.52-.9.33s-1.88-1.66-1.88-1.66-1.54-.66.21,2C72.75,274.51,73.47,277.51,71.24,275Z"/><path class="cls-4" d="M70.9,270.57s1,.85.73,1.4S70,270.27,70.9,270.57Z"/><path class="cls-4" d="M72.85,270s1,.85.74,1.4S72,269.66,72.85,270Z"/><path class="cls-4" d="M75.21,270.16s1,.85.74,1.4S74.32,269.85,75.21,270.16Z"/><path class="cls-4" d="M77.86,270.67s.61,1.09.11,1.48S77.12,270.1,77.86,270.67Z"/><path class="cls-4" d="M85.57,274.52s-.39,1.05-1.11,1S85.43,273.7,85.57,274.52Z"/><path class="cls-4" d="M87.69,276.77s-.71.88-1.4.62S87.8,276,87.69,276.77Z"/><path class="cls-4" d="M88.43,278.39s-.71.88-1.4.62S88.54,277.6,88.43,278.39Z"/><path class="cls-4" d="M83.09,272.86s0,1.14-.74,1.22S82.73,272.07,83.09,272.86Z"/><path class="cls-4" d="M80.62,271.65s.3,1.15-.31,1.41S80,271,80.62,271.65Z"/><path class="cls-5" d="M63.83,281.08s4.27-2.05,5.82,0,2.36,2.37,2.08,2.88,1,3.14,3,3.14,7.64,1.8,8.34-2.07,3.68-5.27,0-7-9.1-3.43-9.41-2.08-2.58,3.94-4.42,3.45-4.83-1.82-4.83-2.42S64.53,281.12,63.83,281.08Z"/><path class="cls-1" d="M111.5,234.66s-10.28,0-9.84,7c.21,3.41,1.13,2.91.79,7.17s-2.81,1.4-2.35,10.21c0,0,3.23,12.45,20,9.2,0,0,15.55-4,11.33-20.32C131.44,247.9,126.34,234.66,111.5,234.66Z"/><path class="cls-2" d="M110.94,234.17s-10.28,0-9.84,7c.21,3.41,1.13,2.91.79,7.17s-2.81,1.4-2.35,10.21c0,0,3.23,12.45,20,9.2,0,0,15.55-4,11.34-20.32C130.88,247.41,125.78,234.17,110.94,234.17Z"/><path class="cls-3" d="M107.12,255s-5.4,3.55-1.81,5.69,8.31,2.48,13.6,1.55,7.68-4.89,7.25-5.46c0,0-4.53-3.57-3.6-1.64,0,0,1.32,1.92-.28,1.91s-.8.27-.8.27.26,1.6-1.85.72c0,0-.2,0-.44.69a.87.87,0,0,1-1.14,0c-.64-.48-.79.25-.79.25s-.63,1.37-1.08-.13-1,.15-1,.15-.78.16-.68-.51-.54,0-.54,0-1.56,1.37-1.08-.22-.86.29-.86.29-1.27,1.15-.55-.9c0,0,.1-.66-1.08,0,0,0-2.12.73-.69-.66s-2.39.77-2.39.77-1.67,0,1-1.78C108.32,256.07,110.18,253.59,107.12,255Z"/><path class="cls-4" d="M105.05,258.94s1.25-.38,1.23-1S104.11,258.86,105.05,258.94Z"/><path class="cls-4" d="M106.59,260.28s1.26-.38,1.24-1S105.66,260.2,106.59,260.28Z"/><path class="cls-4" d="M108.84,261s1.26-.38,1.24-1S107.9,261,108.84,261Z"/><path class="cls-4" d="M111.47,261.62s1-.75.7-1.31S110.57,261.85,111.47,261.62Z"/><path class="cls-4" d="M120.07,261.17s.07-1.12-.62-1.32S119.63,261.87,120.07,261.17Z"/><path class="cls-4" d="M122.92,259.94s-.3-1.08-1-1.12S122.71,260.72,122.92,259.94Z"/><path class="cls-4" d="M124.24,258.76s-.3-1.09-1-1.13S124,259.53,124.24,258.76Z"/><path class="cls-4" d="M117.14,261.7s.41-1.06-.19-1.41S116.49,262.28,117.14,261.7Z"/><path class="cls-4" d="M114.39,261.82s.74-.93.28-1.41S113.58,262.23,114.39,261.82Z"/><path class="cls-3" d="M108.75,244.73s-3.53-5.41.61-5.94,8.62,1,13.09,4,5.1,7.54,4.47,7.9c0,0-5.57,1.46-4,.06,0,0,2-1.22.5-1.86s-.62-.56-.62-.56.87-1.37-1.41-1.4c0,0-.18-.09-.13-.81a.87.87,0,0,0-1-.44c-.79.19-.63-.55-.63-.55s0-1.5-1-.31-.86-.53-.86-.53-.65-.45-.83.19-.48-.23-.48-.23-.88-1.87-1.07-.23-.68-.6-.68-.6-.71-1.57-.87.6c0,0-.17.65-1-.47,0,0-1.65-1.52-.9.33s-1.88-1.65-1.88-1.65-1.54-.66.22,2C110.27,244.27,111,247.28,108.75,244.73Z"/><path class="cls-4" d="M108.41,240.33s1,.85.73,1.41S107.51,240,108.41,240.33Z"/><path class="cls-4" d="M110.36,239.72s1,.85.74,1.41S109.47,239.42,110.36,239.72Z"/><path class="cls-4" d="M112.72,239.92s1,.85.74,1.4S111.83,239.62,112.72,239.92Z"/><path class="cls-4" d="M115.37,240.44s.62,1.08.12,1.47S114.63,239.86,115.37,240.44Z"/><path class="cls-4" d="M123.08,244.28s-.39,1.05-1.1,1S123,243.46,123.08,244.28Z"/><path class="cls-4" d="M125.2,246.54s-.71.87-1.4.62S125.31,245.74,125.2,246.54Z"/><path class="cls-4" d="M125.94,248.15s-.71.88-1.4.63S126.05,247.36,125.94,248.15Z"/><path class="cls-4" d="M120.6,242.62s0,1.14-.74,1.22S120.24,241.83,120.6,242.62Z"/><path class="cls-4" d="M118.13,241.42s.3,1.15-.31,1.4S117.55,240.71,118.13,241.42Z"/><path class="cls-5" d="M101.34,250.85s4.27-2.06,5.82,0,2.36,2.38,2.09,2.89,1,3.13,3,3.13,7.64,1.81,8.34-2.06,3.68-5.27,0-7-9.1-3.44-9.4-2.09-2.59,3.94-4.42,3.45S102,247.29,102,246.7,102,250.88,101.34,250.85Z"/><path class="cls-1" d="M109.18,54.68s-10.28,0-9.84,7c.21,3.4,1.13,2.9.79,7.17s-2.81,1.39-2.35,10.21c0,0,3.23,12.44,20,9.19,0,0,15.55-4,11.33-20.32C129.12,67.92,124,54.68,109.18,54.68Z"/><path class="cls-2" d="M108.62,54.19s-10.28,0-9.84,7c.21,3.4,1.13,2.9.79,7.17s-2.81,1.39-2.35,10.21c0,0,3.23,12.44,20,9.19,0,0,15.54-4,11.33-20.32C128.56,67.43,123.46,54.19,108.62,54.19Z"/><path class="cls-3" d="M104.8,75.07s-5.4,3.54-1.81,5.69,8.31,2.48,13.6,1.54,7.68-4.88,7.25-5.46c0,0-4.53-3.56-3.6-1.63,0,0,1.32,1.91-.28,1.91s-.8.26-.8.26.26,1.6-1.85.73c0,0-.2,0-.44.68a.87.87,0,0,1-1.14,0c-.64-.49-.79.25-.79.25s-.62,1.36-1.08-.13-1,.14-1,.14-.78.16-.68-.51-.54,0-.54,0-1.56,1.37-1.08-.21-.86.28-.86.28-1.27,1.16-.55-.89c0,0,.1-.67-1.08,0,0,0-2.12.74-.69-.65s-2.39.76-2.39.76-1.67,0,1-1.78C106,76.09,107.86,73.62,104.8,75.07Z"/><path class="cls-4" d="M102.73,79s1.25-.38,1.23-1S101.79,78.88,102.73,79Z"/><path class="cls-4" d="M104.28,80.3s1.25-.38,1.23-1S103.34,80.22,104.28,80.3Z"/><path class="cls-4" d="M106.52,81.06s1.26-.38,1.24-1S105.58,81,106.52,81.06Z"/><path class="cls-4" d="M109.16,81.64s1-.75.69-1.3S108.25,81.87,109.16,81.64Z"/><path class="cls-4" d="M117.76,81.19s.06-1.11-.63-1.32S117.31,81.89,117.76,81.19Z"/><path class="cls-4" d="M120.6,80s-.3-1.08-1-1.13S120.39,80.74,120.6,80Z"/><path class="cls-4" d="M121.92,78.78s-.29-1.08-1-1.12S121.71,79.56,121.92,78.78Z"/><path class="cls-4" d="M114.82,81.73s.41-1.07-.19-1.42S114.17,82.31,114.82,81.73Z"/><path class="cls-4" d="M112.07,81.85s.74-.94.28-1.41S111.26,82.26,112.07,81.85Z"/><path class="cls-3" d="M106.43,64.75s-3.53-5.4.61-5.94,8.62,1,13.09,4,5.1,7.55,4.47,7.9c0,0-5.57,1.46-3.95.06,0,0,2-1.22.5-1.86s-.62-.56-.62-.56.87-1.37-1.41-1.4c0,0-.18-.09-.13-.81a.88.88,0,0,0-1-.44c-.79.19-.63-.54-.63-.54s0-1.5-1-.31-.86-.54-.86-.54-.65-.45-.83.2-.48-.23-.48-.23-.88-1.88-1.07-.24-.68-.6-.68-.6-.71-1.57-.86.6c0,0-.18.65-1-.46,0,0-1.65-1.52-.9.32s-1.88-1.65-1.88-1.65-1.54-.66.22,2C108,64.3,108.66,67.3,106.43,64.75Z"/><path class="cls-4" d="M106.09,60.35s1,.85.74,1.41S105.19,60.05,106.09,60.35Z"/><path class="cls-4" d="M108,59.75s1,.85.74,1.4S107.15,59.44,108,59.75Z"/><path class="cls-4" d="M110.4,59.94s1,.85.74,1.41S109.51,59.64,110.4,59.94Z"/><path class="cls-4" d="M113.05,60.46s.62,1.09.12,1.48S112.31,59.89,113.05,60.46Z"/><path class="cls-4" d="M120.76,64.31s-.39,1-1.1,1S120.63,63.48,120.76,64.31Z"/><path class="cls-4" d="M122.88,66.56s-.71.88-1.4.62S123,65.77,122.88,66.56Z"/><path class="cls-4" d="M123.62,68.18s-.71.87-1.4.62S123.74,67.39,123.62,68.18Z"/><path class="cls-4" d="M118.28,62.65s0,1.14-.74,1.22S117.92,61.85,118.28,62.65Z"/><path class="cls-4" d="M115.81,61.44s.3,1.15-.31,1.4S115.23,60.74,115.81,61.44Z"/><path class="cls-5" d="M99,70.87s4.27-2.06,5.82,0,2.36,2.37,2.09,2.88,1,3.14,3,3.14,7.64,1.8,8.34-2.07,3.68-5.27,0-7-9.1-3.43-9.4-2.09-2.59,3.95-4.42,3.46-4.83-1.82-4.83-2.42S99.72,70.9,99,70.87Z"/><path class="cls-1" d="M184.53,13.07s-10.28,0-9.84,7c.21,3.4,1.13,2.9.79,7.17s-2.81,1.39-2.35,10.21c0,0,3.23,12.44,20,9.19,0,0,15.54-4,11.33-20.31C204.47,26.32,199.37,13.07,184.53,13.07Z"/><path class="cls-2" d="M184,12.58s-10.27,0-9.83,7c.21,3.4,1.12,2.9.79,7.17s-2.81,1.39-2.35,10.21c0,0,3.22,12.44,20,9.19,0,0,15.55-4,11.34-20.31C203.91,25.83,198.81,12.58,184,12.58Z"/><path class="cls-3" d="M180.15,33.46s-5.4,3.54-1.82,5.69,8.32,2.48,13.61,1.54,7.68-4.88,7.25-5.45c0,0-4.53-3.57-3.6-1.64,0,0,1.32,1.91-.29,1.91s-.79.26-.79.26.26,1.61-1.85.73c0,0-.2,0-.44.68a.87.87,0,0,1-1.14,0c-.64-.49-.79.25-.79.25s-.63,1.36-1.08-.13-1,.15-1,.15-.78.15-.69-.51-.53,0-.53,0-1.56,1.36-1.08-.22-.86.28-.86.28-1.27,1.16-.55-.89c0,0,.1-.67-1.08,0,0,0-2.12.73-.69-.66s-2.39.76-2.39.76-1.67,0,1-1.78C181.35,34.48,183.21,32,180.15,33.46Z"/><path class="cls-4" d="M178.07,37.35s1.26-.38,1.24-1S177.14,37.27,178.07,37.35Z"/><path class="cls-4" d="M179.62,38.69s1.26-.38,1.24-1S178.68,38.61,179.62,38.69Z"/><path class="cls-4" d="M181.87,39.45s1.26-.38,1.23-1S180.93,39.37,181.87,39.45Z"/><path class="cls-4" d="M184.5,40s1-.75.7-1.31S183.59,40.26,184.5,40Z"/><path class="cls-4" d="M193.1,39.58s.07-1.11-.62-1.32S192.65,40.28,193.1,39.58Z"/><path class="cls-4" d="M196,38.36s-.3-1.08-1-1.12S195.74,39.13,196,38.36Z"/><path class="cls-4" d="M197.27,37.17s-.3-1.08-1-1.12S197.06,38,197.27,37.17Z"/><path class="cls-4" d="M190.17,40.12s.41-1.07-.19-1.42S189.52,40.7,190.17,40.12Z"/><path class="cls-4" d="M187.42,40.24s.74-.94.28-1.41S186.61,40.65,187.42,40.24Z"/><path class="cls-3" d="M181.78,23.14s-3.53-5.4.61-5.93,8.62,1,13.09,4,5.1,7.54,4.47,7.89c0,0-5.57,1.47-4,.07,0,0,2-1.23.51-1.87s-.62-.56-.62-.56.87-1.36-1.41-1.4c0,0-.18-.08-.13-.81a.87.87,0,0,0-1.05-.43c-.79.18-.63-.55-.63-.55s0-1.5-1-.31-.86-.54-.86-.54-.65-.45-.83.2-.48-.23-.48-.23-.88-1.88-1.08-.23-.67-.61-.67-.61-.71-1.56-.87.6c0,0-.17.65-1-.46,0,0-1.65-1.52-.9.32s-1.88-1.65-1.88-1.65-1.54-.66.21,2C183.29,22.69,184,25.69,181.78,23.14Z"/><path class="cls-4" d="M181.44,18.75s1,.85.73,1.4S180.54,18.45,181.44,18.75Z"/><path class="cls-4" d="M183.39,18.14s1,.85.74,1.4S182.5,17.84,183.39,18.14Z"/><path class="cls-4" d="M185.75,18.34s1,.85.74,1.4S184.86,18,185.75,18.34Z"/><path class="cls-4" d="M188.4,18.85s.61,1.09.12,1.48S187.66,18.28,188.4,18.85Z"/><path class="cls-4" d="M196.11,22.7s-.39,1-1.11,1S196,21.88,196.11,22.7Z"/><path class="cls-4" d="M198.23,25s-.71.88-1.4.62S198.34,24.16,198.23,25Z"/><path class="cls-4" d="M199,26.57s-.71.88-1.4.62S199.08,25.78,199,26.57Z"/><path class="cls-4" d="M193.63,21s0,1.14-.74,1.22S193.27,20.25,193.63,21Z"/><path class="cls-4" d="M191.16,19.83s.3,1.15-.31,1.41S190.58,19.13,191.16,19.83Z"/><path class="cls-5" d="M174.37,29.26s4.27-2.06,5.82,0,2.36,2.37,2.08,2.88,1,3.14,3,3.14,7.64,1.8,8.34-2.07,3.68-5.27,0-7-9.1-3.43-9.41-2.08-2.58,3.94-4.42,3.45S175,25.71,175,25.11,175.07,29.3,174.37,29.26Z"/><path class="cls-1" d="M190.18,72.06s-10.28,0-9.84,7c.21,3.4,1.13,2.9.79,7.17s-2.81,1.39-2.35,10.21c0,0,3.23,12.44,20,9.19,0,0,15.55-4,11.33-20.32C210.12,85.3,205,72.06,190.18,72.06Z"/><path class="cls-2" d="M189.62,71.57s-10.28,0-9.84,7c.21,3.4,1.13,2.9.79,7.17s-2.81,1.39-2.35,10.21c0,0,3.23,12.44,20,9.19,0,0,15.54-4,11.33-20.32C209.56,84.81,204.46,71.57,189.62,71.57Z"/><path class="cls-3" d="M185.8,92.45S180.4,96,184,98.14s8.31,2.48,13.6,1.54,7.68-4.88,7.25-5.46c0,0-4.53-3.56-3.6-1.63,0,0,1.32,1.91-.28,1.91s-.8.26-.8.26.26,1.6-1.85.73c0,0-.2,0-.44.68a.87.87,0,0,1-1.14,0c-.64-.49-.79.25-.79.25s-.62,1.36-1.08-.13-1,.14-1,.14-.78.16-.68-.5-.54,0-.54,0-1.56,1.37-1.08-.21-.86.28-.86.28-1.27,1.16-.55-.89c0,0,.1-.67-1.08,0,0,0-2.12.74-.69-.65s-2.39.76-2.39.76-1.67,0,1-1.78C187,93.47,188.86,91,185.8,92.45Z"/><path class="cls-4" d="M183.73,96.34s1.25-.38,1.23-1S182.79,96.26,183.73,96.34Z"/><path class="cls-4" d="M185.28,97.68s1.25-.38,1.23-1S184.34,97.6,185.28,97.68Z"/><path class="cls-4" d="M187.52,98.44s1.26-.38,1.24-1S186.58,98.36,187.52,98.44Z"/><path class="cls-4" d="M190.16,99s1-.76.69-1.31S189.25,99.25,190.16,99Z"/><path class="cls-4" d="M198.76,98.57s.06-1.11-.63-1.32S198.31,99.27,198.76,98.57Z"/><path class="cls-4" d="M201.6,97.35s-.3-1.08-1-1.13S201.39,98.12,201.6,97.35Z"/><path class="cls-4" d="M202.92,96.16s-.29-1.08-1-1.12S202.71,96.94,202.92,96.16Z"/><path class="cls-4" d="M195.82,99.11s.41-1.07-.19-1.42S195.17,99.69,195.82,99.11Z"/><path class="cls-4" d="M193.07,99.23s.74-.94.28-1.41S192.26,99.64,193.07,99.23Z"/><path class="cls-3" d="M187.43,82.13s-3.53-5.4.61-5.94,8.62,1,13.09,4,5.1,7.55,4.47,7.9c0,0-5.57,1.46-3.95.07,0,0,2-1.23.5-1.87s-.62-.56-.62-.56.87-1.37-1.41-1.4c0,0-.18-.09-.13-.81a.88.88,0,0,0-1.05-.44c-.79.19-.63-.54-.63-.54s0-1.5-1-.31-.86-.54-.86-.54-.65-.45-.83.2-.48-.23-.48-.23-.88-1.88-1.07-.24-.68-.6-.68-.6-.71-1.56-.86.6c0,0-.18.65-1-.46,0,0-1.65-1.52-.9.32s-1.88-1.65-1.88-1.65-1.54-.66.22,2C189,81.68,189.66,84.68,187.43,82.13Z"/><path class="cls-4" d="M187.09,77.74s1,.85.74,1.4S186.19,77.43,187.09,77.74Z"/><path class="cls-4" d="M189,77.13s1,.85.74,1.4S188.15,76.82,189,77.13Z"/><path class="cls-4" d="M191.4,77.32s1,.85.74,1.41S190.51,77,191.4,77.32Z"/><path class="cls-4" d="M194.05,77.84s.62,1.09.12,1.48S193.31,77.27,194.05,77.84Z"/><path class="cls-4" d="M201.76,81.69s-.39,1-1.1,1S201.63,80.86,201.76,81.69Z"/><path class="cls-4" d="M203.88,83.94s-.71.88-1.4.62S204,83.15,203.88,83.94Z"/><path class="cls-4" d="M204.62,85.56s-.71.87-1.4.62S204.74,84.77,204.62,85.56Z"/><path class="cls-4" d="M199.28,80s-.05,1.14-.74,1.22S198.92,79.24,199.28,80Z"/><path class="cls-4" d="M196.81,78.82s.3,1.15-.31,1.4S196.23,78.12,196.81,78.82Z"/><path class="cls-5" d="M180,88.25s4.27-2.06,5.82,0,2.36,2.37,2.09,2.88,1,3.14,3,3.14,7.64,1.8,8.34-2.07,3.68-5.27,0-7-9.1-3.43-9.4-2.08-2.59,3.94-4.42,3.45-4.83-1.82-4.83-2.42S180.72,88.28,180,88.25Z"/><path class="cls-1" d="M246.57,170.53s-10.28,0-9.84,7c.21,3.4,1.13,2.91.79,7.17s-2.81,1.39-2.35,10.21c0,0,3.23,12.44,20,9.19,0,0,15.55-4,11.33-20.31C266.51,183.77,261.41,170.53,246.57,170.53Z"/><path class="cls-2" d="M246,170s-10.28,0-9.84,7c.21,3.4,1.13,2.91.79,7.17s-2.81,1.39-2.35,10.21c0,0,3.23,12.44,20,9.19,0,0,15.55-4,11.34-20.31C266,183.28,260.85,170,246,170Z"/><path class="cls-3" d="M242.19,190.91s-5.4,3.55-1.81,5.69,8.31,2.48,13.6,1.54,7.68-4.88,7.25-5.45c0,0-4.53-3.57-3.6-1.64,0,0,1.32,1.91-.28,1.91s-.8.26-.8.26.26,1.61-1.85.73c0,0-.2,0-.44.69a.88.88,0,0,1-1.14,0c-.64-.49-.79.25-.79.25s-.63,1.37-1.08-.13-1,.15-1,.15-.78.15-.68-.51-.54,0-.54,0-1.56,1.37-1.08-.22-.86.28-.86.28-1.27,1.16-.55-.89c0,0,.1-.67-1.08,0,0,0-2.12.73-.69-.66s-2.39.76-2.39.76-1.67,0,1-1.78C243.39,191.93,245.25,189.46,242.19,190.91Z"/><path class="cls-4" d="M240.12,194.81s1.25-.38,1.23-1S239.18,194.73,240.12,194.81Z"/><path class="cls-4" d="M241.66,196.14s1.26-.38,1.24-1S240.73,196.06,241.66,196.14Z"/><path class="cls-4" d="M243.91,196.9s1.26-.38,1.24-1S243,196.82,243.91,196.9Z"/><path class="cls-4" d="M246.54,197.49s1-.75.7-1.31S245.64,197.72,246.54,197.49Z"/><path class="cls-4" d="M255.14,197s.07-1.11-.62-1.31S254.7,197.74,255.14,197Z"/><path class="cls-4" d="M258,195.81s-.3-1.08-1-1.12S257.78,196.59,258,195.81Z"/><path class="cls-4" d="M259.31,194.63s-.3-1.09-1-1.13S259.1,195.4,259.31,194.63Z"/><path class="cls-4" d="M252.21,197.57s.41-1.07-.19-1.42S251.56,198.15,252.21,197.57Z"/><path class="cls-4" d="M249.46,197.69s.74-.94.28-1.41S248.65,198.1,249.46,197.69Z"/><path class="cls-3" d="M243.82,180.6s-3.53-5.41.61-5.94,8.62,1,13.09,4,5.1,7.54,4.47,7.89c0,0-5.57,1.47-4,.07,0,0,2-1.23.51-1.87s-.62-.55-.62-.55.87-1.37-1.41-1.41c0,0-.18-.08-.13-.8a.87.87,0,0,0-1-.44c-.79.19-.63-.55-.63-.55s0-1.5-1-.31-.86-.53-.86-.53-.65-.46-.83.19-.48-.23-.48-.23-.88-1.88-1.07-.23-.68-.6-.68-.6-.71-1.57-.87.6c0,0-.17.64-1-.47,0,0-1.65-1.52-.9.33s-1.88-1.65-1.88-1.65-1.54-.66.22,2C245.34,180.14,246.05,183.15,243.82,180.6Z"/><path class="cls-4" d="M243.48,176.2s1,.85.73,1.4S242.58,175.9,243.48,176.2Z"/><path class="cls-4" d="M245.43,175.59s1,.85.74,1.41S244.54,175.29,245.43,175.59Z"/><path class="cls-4" d="M247.79,175.79s1,.85.74,1.4S246.9,175.49,247.79,175.79Z"/><path class="cls-4" d="M250.44,176.3s.61,1.09.12,1.48S249.7,175.73,250.44,176.3Z"/><path class="cls-4" d="M258.15,180.15s-.39,1-1.11,1S258,179.33,258.15,180.15Z"/><path class="cls-4" d="M260.27,182.41s-.71.87-1.4.62S260.38,181.61,260.27,182.41Z"/><path class="cls-4" d="M261,184s-.71.88-1.4.62S261.12,183.23,261,184Z"/><path class="cls-4" d="M255.67,178.49s0,1.14-.74,1.22S255.31,177.7,255.67,178.49Z"/><path class="cls-4" d="M253.2,177.28s.3,1.16-.31,1.41S252.62,176.58,253.2,177.28Z"/><path class="cls-5" d="M236.41,186.72s4.27-2.06,5.82,0,2.36,2.38,2.09,2.88,1,3.14,3,3.14,7.64,1.81,8.34-2.06,3.68-5.28,0-7-9.1-3.44-9.4-2.09-2.59,3.94-4.42,3.45-4.83-1.82-4.83-2.42S237.11,186.75,236.41,186.72Z"/><path class="cls-1" d="M188.53,282.18s-10.28,0-9.84,7c.21,3.41,1.13,2.91.79,7.18s-2.81,1.39-2.35,10.2c0,0,3.23,12.45,20,9.2,0,0,15.54-4,11.33-20.32C208.47,295.42,203.37,282.18,188.53,282.18Z"/><path class="cls-2" d="M188,281.69s-10.27,0-9.83,7c.21,3.41,1.12,2.91.79,7.18s-2.81,1.39-2.35,10.2c0,0,3.22,12.45,20,9.2,0,0,15.55-4,11.34-20.32C207.91,294.93,202.81,281.69,188,281.69Z"/><path class="cls-3" d="M184.15,302.56s-5.4,3.55-1.82,5.69,8.32,2.49,13.61,1.55,7.68-4.89,7.25-5.46c0,0-4.53-3.56-3.61-1.64,0,0,1.33,1.92-.28,1.92s-.79.26-.79.26.26,1.6-1.85.72c0,0-.2,0-.44.69a.87.87,0,0,1-1.14,0c-.64-.48-.8.25-.8.25s-.62,1.37-1.07-.13-1,.15-1,.15-.78.16-.69-.51-.53,0-.53,0-1.56,1.37-1.08-.21-.86.28-.86.28-1.27,1.15-.55-.9c0,0,.1-.66-1.08,0,0,0-2.12.74-.7-.66s-2.38.77-2.38.77-1.67,0,1-1.78C185.35,303.59,187.21,301.12,184.15,302.56Z"/><path class="cls-4" d="M182.07,306.46s1.26-.38,1.24-1S181.13,306.38,182.07,306.46Z"/><path class="cls-4" d="M183.62,307.8s1.26-.38,1.24-1S182.68,307.72,183.62,307.8Z"/><path class="cls-4" d="M185.87,308.56s1.26-.38,1.23-1S184.93,308.48,185.87,308.56Z"/><path class="cls-4" d="M188.5,309.14s1-.75.7-1.31S187.59,309.37,188.5,309.14Z"/><path class="cls-4" d="M197.1,308.69s.07-1.12-.62-1.32S196.65,309.39,197.1,308.69Z"/><path class="cls-4" d="M200,307.47s-.3-1.09-1-1.13S199.74,308.24,200,307.47Z"/><path class="cls-4" d="M201.27,306.28s-.3-1.08-1-1.13S201.06,307.05,201.27,306.28Z"/><path class="cls-4" d="M194.17,309.22s.41-1.06-.19-1.41S193.52,309.8,194.17,309.22Z"/><path class="cls-4" d="M191.42,309.34s.74-.93.28-1.41S190.61,309.75,191.42,309.34Z"/><path class="cls-3" d="M185.78,292.25s-3.53-5.4.61-5.94,8.62,1,13.09,4,5.1,7.54,4.47,7.9c0,0-5.57,1.46-4,.06,0,0,2-1.22.51-1.86s-.62-.56-.62-.56.87-1.37-1.41-1.4c0,0-.18-.09-.13-.81a.87.87,0,0,0-1.05-.44c-.79.19-.63-.55-.63-.55s0-1.5-1-.3-.86-.54-.86-.54-.65-.45-.83.19-.48-.23-.48-.23-.89-1.87-1.08-.23-.67-.6-.67-.6-.71-1.57-.87.6c0,0-.17.65-1-.47,0,0-1.65-1.51-.9.33s-1.88-1.65-1.88-1.65-1.54-.66.21,2C187.29,291.79,188,294.8,185.78,292.25Z"/><path class="cls-4" d="M185.44,287.85s1,.85.73,1.41S184.54,287.55,185.44,287.85Z"/><path class="cls-4" d="M187.39,287.24s1,.85.74,1.41S186.5,286.94,187.39,287.24Z"/><path class="cls-4" d="M189.75,287.44s1,.85.74,1.41S188.86,287.14,189.75,287.44Z"/><path class="cls-4" d="M192.4,288s.61,1.08.11,1.47S191.66,287.39,192.4,288Z"/><path class="cls-4" d="M200.11,291.8s-.39,1.05-1.11,1S200,291,200.11,291.8Z"/><path class="cls-4" d="M202.23,294.06s-.71.87-1.4.62S202.34,293.27,202.23,294.06Z"/><path class="cls-4" d="M203,295.68s-.71.87-1.4.62S203.08,294.88,203,295.68Z"/><path class="cls-4" d="M197.63,290.14s0,1.14-.74,1.22S197.27,289.35,197.63,290.14Z"/><path class="cls-4" d="M195.16,288.94s.3,1.15-.31,1.4S194.58,288.23,195.16,288.94Z"/><path class="cls-5" d="M178.37,298.37s4.27-2.06,5.82,0,2.36,2.37,2.08,2.88,1,3.14,3,3.14,7.64,1.8,8.34-2.07,3.68-5.27,0-7-9.1-3.43-9.41-2.09-2.58,3.95-4.42,3.45-4.83-1.82-4.83-2.41S179.07,298.4,178.37,298.37Z"/><path class="cls-1" d="M283.66,212.78s-10.27,0-9.83,7c.21,3.4,1.12,2.91.79,7.17s-2.81,1.4-2.35,10.21c0,0,3.22,12.45,20,9.19,0,0,15.55-4,11.34-20.31C303.61,226,298.51,212.78,283.66,212.78Z"/><path class="cls-2" d="M283.1,212.29s-10.28,0-9.84,7c.22,3.4,1.13,2.91.79,7.17s-2.81,1.4-2.34,10.21c0,0,3.22,12.45,20,9.19,0,0,15.55-4,11.33-20.31C303,225.53,298,212.29,283.1,212.29Z"/><path class="cls-3" d="M279.28,233.16s-5.39,3.55-1.81,5.69,8.32,2.48,13.6,1.55,7.69-4.89,7.25-5.46c0,0-4.52-3.57-3.6-1.64,0,0,1.33,1.91-.28,1.91s-.79.26-.79.26.25,1.61-1.85.73c0,0-.2,0-.45.69a.85.85,0,0,1-1.13,0c-.65-.48-.8.25-.8.25s-.62,1.37-1.07-.13-1,.15-1,.15-.77.15-.68-.51-.53,0-.53,0-1.56,1.37-1.08-.22-.86.29-.86.29-1.27,1.15-.55-.9c0,0,.09-.66-1.09,0,0,0-2.11.73-.69-.66s-2.38.76-2.38.76-1.67,0,1-1.78C280.49,234.18,282.34,231.71,279.28,233.16Z"/><path class="cls-4" d="M277.21,237.06s1.26-.38,1.24-1S276.27,237,277.21,237.06Z"/><path class="cls-4" d="M278.76,238.39s1.26-.38,1.24-1S277.82,238.31,278.76,238.39Z"/><path class="cls-4" d="M281,239.16s1.26-.38,1.24-1S280.07,239.08,281,239.16Z"/><path class="cls-4" d="M283.64,239.74s1-.75.7-1.31S282.73,240,283.64,239.74Z"/><path class="cls-4" d="M292.24,239.29s.06-1.12-.63-1.32S291.79,240,292.24,239.29Z"/><path class="cls-4" d="M295.08,238.06s-.29-1.08-1-1.12S294.88,238.84,295.08,238.06Z"/><path class="cls-4" d="M296.41,236.88s-.3-1.09-1-1.13S296.2,237.65,296.41,236.88Z"/><path class="cls-4" d="M289.31,239.82s.41-1.07-.2-1.42S288.66,240.4,289.31,239.82Z"/><path class="cls-4" d="M286.56,239.94s.74-.93.28-1.41S285.75,240.35,286.56,239.94Z"/><path class="cls-3" d="M280.92,222.85s-3.54-5.41.61-5.94,8.61,1,13.09,4,5.09,7.54,4.47,7.89c0,0-5.57,1.47-4,.07,0,0,2-1.23.51-1.87s-.63-.55-.63-.55.88-1.37-1.4-1.41c0,0-.18-.08-.14-.8a.86.86,0,0,0-1.05-.44c-.78.19-.62-.55-.62-.55s0-1.5-1-.31-.86-.53-.86-.53-.65-.46-.83.19-.48-.23-.48-.23-.89-1.88-1.08-.23-.67-.6-.67-.6-.71-1.57-.87.6c0,0-.17.65-1-.47,0,0-1.64-1.52-.89.33s-1.88-1.65-1.88-1.65-1.54-.66.21,2C282.43,222.39,283.15,225.4,280.92,222.85Z"/><path class="cls-4" d="M280.57,218.45s1,.85.74,1.41S279.68,218.15,280.57,218.45Z"/><path class="cls-4" d="M282.53,217.84s1,.85.73,1.41S281.63,217.54,282.53,217.84Z"/><path class="cls-4" d="M284.89,218s1,.85.74,1.4S284,217.74,284.89,218Z"/><path class="cls-4" d="M287.54,218.55s.61,1.09.11,1.48S286.8,218,287.54,218.55Z"/><path class="cls-4" d="M295.24,222.4s-.38,1-1.1,1S295.11,221.58,295.24,222.4Z"/><path class="cls-4" d="M297.36,224.66s-.7.87-1.39.62S297.48,223.86,297.36,224.66Z"/><path class="cls-4" d="M298.1,226.27s-.7.88-1.39.62S298.22,225.48,298.1,226.27Z"/><path class="cls-4" d="M292.77,220.74s0,1.14-.74,1.22S292.41,220,292.77,220.74Z"/><path class="cls-4" d="M290.29,219.53s.31,1.16-.3,1.41S289.71,218.83,290.29,219.53Z"/><path class="cls-5" d="M273.51,229s4.27-2.06,5.82,0,2.35,2.38,2.08,2.89,1,3.13,3,3.13,7.64,1.81,8.34-2.06,3.67-5.28,0-7-9.1-3.44-9.41-2.09-2.58,3.94-4.42,3.45-4.83-1.82-4.83-2.42S274.21,229,273.51,229Z"/><path class="cls-1" d="M272.91,77.86s-10.28,0-9.84,7c.22,3.4,1.13,2.9.79,7.17s-2.81,1.39-2.34,10.21c0,0,3.22,12.44,20,9.19,0,0,15.55-4,11.33-20.31C292.85,91.11,287.76,77.86,272.91,77.86Z"/><path class="cls-2" d="M272.35,77.37s-10.28,0-9.84,7c.22,3.4,1.13,2.9.79,7.17s-2.81,1.39-2.35,10.21c0,0,3.23,12.44,20,9.19,0,0,15.55-4,11.33-20.31C292.29,90.62,287.2,77.37,272.35,77.37Z"/><path class="cls-3" d="M268.53,98.25s-5.4,3.54-1.81,5.69,8.32,2.48,13.6,1.54,7.69-4.88,7.25-5.45c0,0-4.52-3.57-3.6-1.64,0,0,1.33,1.91-.28,1.91s-.79.26-.79.26.25,1.61-1.85.73c0,0-.2,0-.45.68a.86.86,0,0,1-1.13,0c-.65-.49-.8.25-.8.25s-.62,1.36-1.07-.13-1,.14-1,.14-.77.16-.68-.5-.53,0-.53,0-1.56,1.37-1.08-.21-.86.28-.86.28-1.27,1.16-.56-.89c0,0,.1-.67-1.08,0,0,0-2.11.74-.69-.65s-2.38.76-2.38.76-1.67,0,1-1.78C269.74,99.27,271.59,96.8,268.53,98.25Z"/><path class="cls-4" d="M266.46,102.14s1.26-.38,1.24-1S265.52,102.06,266.46,102.14Z"/><path class="cls-4" d="M268,103.48s1.26-.38,1.24-1S267.07,103.4,268,103.48Z"/><path class="cls-4" d="M270.25,104.24s1.26-.38,1.24-1S269.31,104.16,270.25,104.24Z"/><path class="cls-4" d="M272.89,104.83s1-.75.69-1.31S272,105.05,272.89,104.83Z"/><path class="cls-4" d="M281.49,104.37s.06-1.11-.63-1.32S281,105.07,281.49,104.37Z"/><path class="cls-4" d="M284.33,103.15s-.3-1.08-1-1.13S284.12,103.92,284.33,103.15Z"/><path class="cls-4" d="M285.66,102s-.3-1.08-1-1.12S285.45,102.74,285.66,102Z"/><path class="cls-4" d="M278.56,104.91s.4-1.07-.2-1.42S277.91,105.49,278.56,104.91Z"/><path class="cls-4" d="M275.81,105s.74-.94.28-1.41S275,105.44,275.81,105Z"/><path class="cls-3" d="M270.17,87.93s-3.54-5.4.61-5.93,8.61,1,13.08,4,5.1,7.54,4.48,7.89c0,0-5.58,1.46-4,.07,0,0,2-1.23.51-1.87s-.63-.56-.63-.56.88-1.36-1.4-1.4c0,0-.19-.08-.14-.81a.86.86,0,0,0-1.05-.43c-.78.18-.63-.55-.63-.55s0-1.5-1-.31-.87-.54-.87-.54-.64-.45-.82.2-.49-.23-.49-.23-.88-1.88-1.07-.24-.68-.6-.68-.6-.7-1.56-.86.6c0,0-.18.65-1-.46,0,0-1.65-1.52-.89.32s-1.88-1.65-1.88-1.65-1.54-.66.21,2C271.68,87.48,272.4,90.48,270.17,87.93Z"/><path class="cls-4" d="M269.82,83.54s1,.85.74,1.4S268.93,83.23,269.82,83.54Z"/><path class="cls-4" d="M271.78,82.93s1,.85.73,1.4S270.88,82.63,271.78,82.93Z"/><path class="cls-4" d="M274.14,83.13s1,.84.73,1.4S273.24,82.82,274.14,83.13Z"/><path class="cls-4" d="M276.79,83.64s.61,1.09.11,1.48S276,83.07,276.79,83.64Z"/><path class="cls-4" d="M284.49,87.49s-.39,1-1.1,1S284.36,86.67,284.49,87.49Z"/><path class="cls-4" d="M286.61,89.74s-.7.88-1.39.62S286.73,89,286.61,89.74Z"/><path class="cls-4" d="M287.35,91.36s-.7.88-1.39.62S287.47,90.57,287.35,91.36Z"/><path class="cls-4" d="M282,85.83s-.06,1.14-.75,1.22S281.65,85,282,85.83Z"/><path class="cls-4" d="M279.54,84.62s.31,1.15-.3,1.41S279,83.92,279.54,84.62Z"/><path class="cls-5" d="M262.75,94.05S267,92,268.57,94s2.36,2.37,2.09,2.88,1,3.14,3,3.14,7.65,1.8,8.34-2.07,3.68-5.27,0-7-9.09-3.43-9.4-2.08-2.58,3.94-4.42,3.45-4.83-1.82-4.83-2.42S263.45,94.09,262.75,94.05Z"/><path class="cls-1" d="M137.41,289.4s-10.27,0-9.83,7c.21,3.4,1.12,2.91.79,7.17s-2.81,1.39-2.35,10.21c0,0,3.22,12.44,20,9.19,0,0,15.55-4,11.34-20.31C157.36,302.64,152.26,289.4,137.41,289.4Z"/><path class="cls-2" d="M136.85,288.91s-10.28,0-9.84,7c.22,3.4,1.13,2.91.79,7.17s-2.81,1.39-2.34,10.21c0,0,3.22,12.44,20,9.19,0,0,15.55-4,11.33-20.31C156.79,302.15,151.7,288.91,136.85,288.91Z"/><path class="cls-3" d="M133,309.78s-5.39,3.55-1.81,5.69,8.32,2.48,13.6,1.54,7.69-4.88,7.25-5.45c0,0-4.52-3.57-3.6-1.64,0,0,1.33,1.91-.28,1.91s-.79.26-.79.26.25,1.61-1.85.73c0,0-.2,0-.44.69a.88.88,0,0,1-1.14,0c-.65-.49-.8.25-.8.25s-.62,1.37-1.07-.13-1,.15-1,.15-.77.15-.68-.51-.53,0-.53,0-1.56,1.37-1.08-.22-.86.28-.86.28-1.27,1.16-.55-.89c0,0,.09-.67-1.09,0,0,0-2.11.73-.69-.66s-2.38.76-2.38.76-1.67,0,1-1.78C134.24,310.8,136.09,308.33,133,309.78Z"/><path class="cls-4" d="M131,313.67s1.26-.37,1.24-1S130,313.6,131,313.67Z"/><path class="cls-4" d="M132.51,315s1.26-.38,1.24-1S131.57,314.93,132.51,315Z"/><path class="cls-4" d="M134.75,315.77s1.26-.38,1.24-1S133.82,315.69,134.75,315.77Z"/><path class="cls-4" d="M137.39,316.36s1-.75.7-1.31S136.48,316.59,137.39,316.36Z"/><path class="cls-4" d="M146,315.9s.06-1.11-.63-1.32S145.54,316.61,146,315.9Z"/><path class="cls-4" d="M148.83,314.68s-.29-1.08-1-1.12S148.63,315.46,148.83,314.68Z"/><path class="cls-4" d="M150.16,313.49s-.3-1.08-1-1.12S150,314.27,150.16,313.49Z"/><path class="cls-4" d="M143.06,316.44s.41-1.07-.19-1.42S142.41,317,143.06,316.44Z"/><path class="cls-4" d="M140.31,316.56s.74-.94.28-1.41S139.5,317,140.31,316.56Z"/><path class="cls-3" d="M134.67,299.47s-3.54-5.41.61-5.94,8.61,1,13.09,4,5.09,7.54,4.47,7.89c0,0-5.57,1.47-4,.07,0,0,2-1.23.51-1.87s-.63-.55-.63-.55.88-1.37-1.4-1.41c0,0-.18-.08-.14-.8a.86.86,0,0,0-1.05-.44c-.78.18-.62-.55-.62-.55s0-1.5-1-.31-.86-.53-.86-.53-.65-.46-.83.19-.48-.23-.48-.23-.89-1.88-1.08-.23-.67-.6-.67-.6-.71-1.57-.87.59c0,0-.17.65-1-.46,0,0-1.64-1.52-.89.33S136,297,136,297s-1.54-.66.21,2C136.18,299,136.9,302,134.67,299.47Z"/><path class="cls-4" d="M134.32,295.07s1,.85.74,1.4S133.43,294.77,134.32,295.07Z"/><path class="cls-4" d="M136.28,294.46s1,.85.73,1.4S135.38,294.16,136.28,294.46Z"/><path class="cls-4" d="M138.64,294.66s1,.85.74,1.4S137.75,294.35,138.64,294.66Z"/><path class="cls-4" d="M141.29,295.17s.61,1.09.11,1.48S140.55,294.6,141.29,295.17Z"/><path class="cls-4" d="M149,299s-.38,1.05-1.1,1S148.86,298.2,149,299Z"/><path class="cls-4" d="M151.11,301.27s-.7.88-1.39.63S151.23,300.48,151.11,301.27Z"/><path class="cls-4" d="M151.85,302.89s-.7.88-1.39.62S152,302.1,151.85,302.89Z"/><path class="cls-4" d="M146.52,297.36s-.05,1.14-.74,1.22S146.16,296.57,146.52,297.36Z"/><path class="cls-4" d="M144,296.15s.31,1.15-.3,1.41S143.46,295.45,144,296.15Z"/><path class="cls-5" d="M127.26,305.59s4.27-2.06,5.82,0,2.35,2.38,2.08,2.88,1,3.14,3,3.14,7.64,1.81,8.34-2.06,3.67-5.28,0-7-9.1-3.44-9.41-2.09-2.58,3.94-4.42,3.45-4.83-1.82-4.83-2.42S128,305.62,127.26,305.59Z"/></g></g></svg>