<svg xmlns="http://www.w3.org/2000/svg" viewBox="0 0 90.1 142.77"><defs><style>.cls-1{fill:#f8d295;}.cls-2{fill:#e5a568;}.cls-3{fill:#e4a974;}.cls-4{fill:#ffcd92;}.cls-5{fill:#8d6140;}.cls-6{fill:#7b4b30;}.cls-7{fill:none;stroke:#5e4634;stroke-miterlimit:10;}.cls-8{fill:#fbc5b4;}.cls-9{fill:#b7845b;}.cls-10{fill:#885e43;}.cls-11{fill:#1d151a;}.cls-12{fill:#856045;}.cls-13{fill:#b29376;}.cls-14{fill:#523b2f;}.cls-15{fill:#f4bf8f;}</style></defs><title>dog</title><g id="Layer_2" data-name="Layer 2"><g id="Layer_6" data-name="Layer 6"><path class="cls-1" d="M11.86.05s-10.45,1.53-9,30.54c0,0,2.62,5.46-.14,8.36s4.57,13.5,4.57,13.5a29.16,29.16,0,0,1-1.86,9.64A108.89,108.89,0,0,0,2.1,73s1.72-2.9,2,0S-2,98.73.61,106.77a68,68,0,0,0,8-2.9s1.61-.64,1.61,4.18S37.57,141.48,44,142.77c0,0,28.29-18.32,35.36-33.43,0,0,3.86-8.36,9-1.93,0,0,5.14-17.36-2.25-28,0,0-2.89-9.65,2.57-5.79,0,0-9.32-20.89-6.43-22.82s4.18-5.79,4.18-10.29-2.89-2.89-1.61-8.35S88,1.66,77.75.05s-21.86,34.4-21.86,34.4-19.28-1.61-22.5,0C33.39,34.45,21.82.37,11.86.05Z"/><path class="cls-2" d="M10,105.43H82.74s-1.48-.31-6.29,8.79S44,142.77,44,142.77s-9.54-2-32.57-31.92C11.43,110.85,9.78,109.87,10,105.43Z"/><path class="cls-3" d="M13.63,68v6.59s13.56-.8,13.61,29.58l33.15,2.73s2.9,3.16,4.18,2.32-1.12-27.88,4.82-29.16c0,0,9.65-4.82,8-12.06v-.14c2.89-6.12-1.5-17.77,4.65-17.6,2.42.07,4-1.7,4-12.63,0-1.79,2.64-8,.22-19.61-1.26-6,.57-5.36-2.85-13s-10.16-5.32-13.68,0S58.47,24.48,55.89,34.45c0,0-19.12-1.61-22.5,0,0,0-12.37-35-21.53-34.4S2.73,26.88,2.73,26.88A35.81,35.81,0,0,0,4,35.25S4,38.14,2.72,39,2,45.72,5.57,49.72s8.11,12.21,8.89,13.49S13.63,68,13.63,68Z"/><path class="cls-4" d="M11.54,57.59,26.32,38.3S32.75,22.55,11.54,3.59c0,0-5.6-2.37-7.4,18.32,0,0,1.93,10.61,2.25,12.86S3.5,43.45,6.07,45.7,12.82,51.16,11.54,57.59Z"/><path class="cls-4" d="M77.88,57.59,63.09,38.3S56.66,22.55,77.88,3.59c0,0,5.6-2.37,7.39,18.32,0,0-1.93,10.61-2.25,12.86s2.89,8.68.32,10.93S76.59,51.16,77.88,57.59Z"/><path class="cls-5" d="M45.05,37.66s-2,5.14-10.37,2.89c0,0,10.78,4.5,10.37,7.07,0,0,4.42-4.82,10.52-5C55.57,42.64,48.66,41.58,45.05,37.66Z"/><path class="cls-6" d="M17,54.53S5.38,70.93,15.69,73.18C15.69,73.18,18.61,76.07,17,54.53Z"/><path class="cls-7" d="M69.39,102.09S60,121.45,55,116.28c0,0-20.6,14.11-33.3-17.23"/><path class="cls-8" d="M36.77,112.23S31.63,132,47.7,131c0,0,10.77,1,7.87-20.08C55.57,111,38.6,107.57,36.77,112.23Z"/><path class="cls-9" d="M58.85,73.31,56.77,93.59s-1.3,2.57-4-15.59S47.6,57.11,53.86,58.87,58.85,73.31,58.85,73.31Z"/><path class="cls-9" d="M34.68,73.31l2.08,20.28s1.3,2.57,4-15.59,5.14-20.89-1.13-19.13S34.68,73.31,34.68,73.31Z"/><path class="cls-10" d="M27.24,107.57s2.46-24.75,25.6-19.12c0,0,20.25,11.89,5.63,28,0,0-4.66,1.45-10.45-4.5,0,0-1.28-1.61-3,.16C45.05,112.07,31.85,124.28,27.24,107.57Z"/><path class="cls-11" d="M45.13,91.82s-12.06.93-7.24,10.27,12.7,4,12.7,4,11.09-6.75,1.93-14.3A33.9,33.9,0,0,0,45.13,91.82Z"/><path class="cls-12" d="M32.27,57.59s-16.39,10.07-8.2,13.79a5.22,5.22,0,0,1,4.66,2.76c1.93,3.06,7.24,4.6,9.16-.83a10.33,10.33,0,0,0-1.13-9.39S36.77,55.82,32.27,57.59Z"/><path class="cls-13" d="M29.22,62.57s-7.24,5.09-.65,8.81c0,0,5.15,1.15,6.11-2.22S34,63.53,29.22,62.57Z"/><path class="cls-14" d="M31.58,65.78s-3.67-.32-.78,3.22C30.8,69,34.12,69,31.58,65.78Z"/><path class="cls-15" d="M33.23,51.48S13.23,67.23,25.8,65s12.42,1.42,15-1.06S42.56,48.59,33.23,51.48Z"/><path class="cls-12" d="M61.26,57.59s16.39,10.07,8.19,13.79a5.23,5.23,0,0,0-4.66,2.76c-1.93,3.06-7.23,4.6-9.16-.83a10.32,10.32,0,0,1,1.14-9.39S56.76,55.82,61.26,57.59Z"/><path class="cls-13" d="M64.31,62.57s7.23,5.09.64,8.81c0,0-5.14,1.15-6.1-2.22S59.49,63.53,64.31,62.57Z"/><path class="cls-14" d="M62,65.78s3.67-.32.77,3.22C62.72,69,59.4,69,62,65.78Z"/><path class="cls-15" d="M60.29,51.48s20,15.75,7.43,13.5-12.41,1.42-15-1.06S51,48.59,60.29,51.48Z"/></g></g></svg>