<svg xmlns="http://www.w3.org/2000/svg" xmlns:xlink="http://www.w3.org/1999/xlink" viewBox="0 0 57.35 113.7"><defs><style>.cls-1{fill:none;}.cls-1,.cls-7,.cls-8{stroke:#d3c7c7;}.cls-1,.cls-2,.cls-3,.cls-4,.cls-7,.cls-8,.cls-9{stroke-miterlimit:10;}.cls-1,.cls-2,.cls-3,.cls-7,.cls-8,.cls-9{stroke-width:0.25px;}.cls-2{fill:#d9d1cb;stroke:#c6c3c1;}.cls-3{fill:#1e1312;stroke:#4f413b;}.cls-4{fill:#302824;stroke:#493730;stroke-width:0.5px;}.cls-5{fill:#1c1714;}.cls-6{clip-path:url(#clip-path);}.cls-7{fill:#ea3d3e;}.cls-8,.cls-9{fill:#fff;}.cls-9{stroke:#e0dcda;}</style><clipPath id="clip-path"><path class="cls-1" d="M48.64,6.09,34.92,41.44l2.68,3.43L52.07,7.16S50.57,5,48.64,6.09Z"/></clipPath></defs><title>milkshake</title><g id="Layer_2" data-name="Layer 2"><g id="milkshake"><path class="cls-2" d="M5.57,58.84l1.28,45.43a10.38,10.38,0,0,0,10.07,9c9.22.64,19.5.85,21.43-6.82s0-47.57,0-47.57Z"/><path class="cls-3" d="M9.21,62s-.64,5.79,0,8.36-1.5,14.79-1.5,7.72L6.42,72.73,7.88,98.87a58.36,58.36,0,0,0,1.45-9.21,43.76,43.76,0,0,0,0-7.29s.52-3.64,1.59-5.14-1.71-13.72,0-11.79,3,1.93,2.15,7.5.11,5.57.27,7.5-1.13,4.5,1.44,6.43,3.57-6.21,4.57-6.43,1.14-2.78,0-3.21-4.14-.86-2.64-6.22,2.64-9,2.64-9Z"/><path class="cls-3" d="M21.33,62.91s2.57,19.5,0,21.85-2.07,12.43-2.07,12.43,2.1,4.93.8,7.29-3.81,5.78-.84,7.71,10.46,3,10.46-4.93a5.39,5.39,0,0,1,0-3.42c.65-1.72.86-9.65.86-9.65s-1.93-10.07-1.07-10.71S29,80.05,31.4,75.76s1.93-6.85,3.21-.64,1.72,7.72,1.72,9.43.85,7.93.85,7.93l1.08,6.21V91.62S37.4,78.76,37,77.05s-1.93-14.79-.64-15-3.43,0-3.43,0,0,8.14-2.14,10.07-3.29,7.93-2.72,0S28,62,28,62H25.83s-1.07,11.24-.22,14.46S26,86.05,26,87.76s1.22,9.86-2.78,9.65.39-1.68-.22-9.65,2.14-.42,1.29-14.57-.86-10.28-.86-10.28Z"/><circle class="cls-4" cx="15.24" cy="38.05" r="11.18"/><circle class="cls-4" cx="26.42" cy="38.05" r="11.18"/><path class="cls-5" d="M24,27.42s-7.85.27-9.71,10.57c0,0,.78,8.31,8.71,10.69,0,0,2.1.46,1.09-7.62S32.66,28.71,24,27.42Z"/><path class="cls-5" d="M15.24,26.87s-7.8-.9-11.17,9c0,0-.48,8.33,7,11.87,0,0,2,.77,2.22-7.37S23.64,29.44,15.24,26.87Z"/><path class="cls-4" d="M19.35,44.87s-9.74,1.79-9.51,4.75,8.71,1.66,8.71,1.66S21.14,47.66,19.35,44.87Z"/><path class="cls-4" d="M26.42,46.37s-3.36,7.72,1.72,10.29a4.52,4.52,0,0,0,2.28-1.81c1.29-1.62-1.71-7.41-1.07-8.48S26.42,46.37,26.42,46.37Z"/><path class="cls-5" d="M27.41,56.42s-2.8-.26-3.31-3.77a4.28,4.28,0,0,1,3.26-3.42s.76-.11.28,2.59S30.52,56.17,27.41,56.42Z"/><g class="cls-6"><rect class="cls-7" x="39.85" y="1.71" width="16.71" height="8.14" transform="translate(-0.19 9.62) rotate(-11.37)"/><rect class="cls-8" x="38.67" y="9.86" width="16.71" height="5.92" transform="translate(-1.6 9.52) rotate(-11.37)"/><rect class="cls-7" x="36.73" y="15.63" width="16.71" height="6.91" transform="translate(-2.88 9.26) rotate(-11.37)"/><rect class="cls-8" x="36.71" y="22.28" width="16.71" height="6.78" transform="translate(-4.18 9.39) rotate(-11.37)"/><rect class="cls-7" x="32.67" y="29.3" width="16.71" height="6.1" transform="translate(-5.57 8.72) rotate(-11.37)"/><rect class="cls-8" x="29.24" y="36.51" width="16.71" height="6.78" transform="translate(-7.13 8.2) rotate(-11.37)"/></g><path class="cls-1" d="M48.64,6.09,34.92,41.44l2.68,3.43L52.07,7.16S50.57,5,48.64,6.09Z"/><path class="cls-9" d="M20.26,34.46,22,36.23s1.26,2.07,0,2-4.28,0-4.28,0H10.43s-2.49-1.29-2,0a3.08,3.08,0,0,1-.07,2.4l1.56,2L10.68,44c2.35,2.88,1.72,2.39,1.72,2.39H9.94L5.53,48.7a10.15,10.15,0,0,0-2.21,1.54l-.52.63h0s-.21-3-.95,1.84-3,3.95-.73,4.81S4.55,58.7,4.55,58.7L7,60.09H8.45l1.25,1.1s2-.1,1.63.89,1.07,4.75,1.07,4.75l-1.07,1.3,1.07,1.14,2.24.89h3l2.64-3.33H22l.56-1.54h6.74l3.6,1.54h1.73S33,65,34.78,65.29s5.44-1.53,5.44-1.53l.85-2.57V58.7l1.43-.93.78-1.14V54.19L40.22,48.7V46.38a1,1,0,0,1-1.5-1.06c0-1.62,0-3.55,0-3.55l-.1-1.33L34.7,38.26s-1.68-.92-1.82-.92-1.91.92-1.91.92H29.39l-2.14-1.83-.55-2L25.37,32H22.93A5.52,5.52,0,0,0,22,33.35C21.71,34,20.26,34.46,20.26,34.46Z"/><path class="cls-4" d="M8.35,43s-9.64,7.28-4.71,10.28,6.85-1.85,6.85-1.85Z"/><path class="cls-4" d="M36.47,41.44S29.19,53.66,35,56.66s6.86-.86,6.86-.86S46.11,43.37,36.47,41.44Z"/><path class="cls-4" d="M4.07,61.06l2.35-6.21L1.22,52S-1.08,60.11,4.07,61.06Z"/><path class="cls-4" d="M16.71,52s-5.57,1.68-6.64,2.84,1.92.66,2.35,2.95,5.43,5,5.5,0S15.65,55.09,16.71,52Z"/><path class="cls-4" d="M21.85,44.87s-7,9.67-2.5,14.14c0,0,2,1.5,6-5.57C25.33,53.44,26.55,45.44,21.85,44.87Z"/><path class="cls-4" d="M31.19,59.15s-2.86-4.21-9.53-2.49,3.41,5.09,3.67,6.85S30.67,63.37,31.19,59.15Z"/><path class="cls-5" d="M5.38,54.37s-2.82-.18-3.14-4.58c0,0,.54-3.54,3.47-4.49,0,0,.77-.18.14,3.26S8.54,53.89,5.38,54.37Z"/><path class="cls-5" d="M3.43,61.19S.64,60.93.13,57.42A4.26,4.26,0,0,1,3.38,54s.76-.11.28,2.6S6.55,61,3.43,61.19Z"/><path class="cls-5" d="M17.64,56.27a4.34,4.34,0,0,1-1.75,4.18s-2,.35-3-2.24c0,0-.25-.7,1.67-1S16.75,53.33,17.64,56.27Z"/><path class="cls-5" d="M30.88,59s.23-2.94-4.94-3.79c0,0-4.27.16-5.86,3.08,0,0-.34.78,3.83.53S29.81,62.25,30.88,59Z"/><path class="cls-5" d="M35.89,56.81a3.79,3.79,0,0,1-3.15-3,3.23,3.23,0,0,1,2.9-2.58s.69-.06.33,2S38.75,56.71,35.89,56.81Z"/><path class="cls-5" d="M20.26,58.84s-2.81-.17-3.14-4.58c0,0,.55-3.53,3.48-4.48,0,0,.77-.18.14,3.25S23.43,58.37,20.26,58.84Z"/><path class="cls-5" d="M38.28,57.51s4.93-.39,5.49-7.86c0,0-1-6-6.12-7.48,0,0-1.36-.29-.24,5.51S32.73,56.8,38.28,57.51Z"/></g></g></svg>