<svg xmlns="http://www.w3.org/2000/svg" viewBox="0 0 125.87 272.23"><defs><style>.cls-1{fill:#6f7962;}.cls-2{fill:#474f41;}.cls-3{fill:#586444;}.cls-4{fill:#791119;}.cls-5{fill:#250e0c;}.cls-6{fill:#521112;}.cls-7{fill:#b12829;}.cls-8{fill:#9b151e;}</style></defs><title>rose</title><g id="Layer_2" data-name="Layer 2"><g id="Layer_4" data-name="Layer 4"><path class="cls-1" d="M54.54,129.58a106.67,106.67,0,0,1-19.31,37.71c-14.78,18.53,6.84,72.2,0,79.55,0,0-1.87,18.53-5.29,23s-9.57,1.28-9.57,1.28,15.51-33.86,7.1-49.84-10.65-45.55,4.67-59.43,18.11-37.08,14.67-39.79,12.92,0,12.92,0Z"/><path class="cls-2" d="M125.87,121.27s-20.39,3.44-29.72,5.77-25.06-8.74-25.64-16.32-37.29-1.11-15.73,16.63S117.71,122.5,125.87,121.27Z"/><path class="cls-3" d="M16.32,148s-5.13-27.43,5.24-33.22S30.15,98.91,48,117.64,19.81,124.71,16.32,148Z"/><path class="cls-1" d="M0,48.21s11.22,58.68,27.54,62S27.39,80.68,0,48.21Z"/><path class="cls-4" d="M26.22,92.07S1.17,49,54.78,3.5L74.59,0S88,11.65,93.82,13.4s28,4.92,28,16.45S39,114.8,26.22,92.07Z"/><path class="cls-5" d="M103.15,22.73s-6.41-14-26.23-9.33C76.92,13.4,73.43,26.81,103.15,22.73Z"/><path class="cls-6" d="M121.79,29.85s-12.82,2.2-15.15,5.7-36.13,0-36.13,0L96.15,67.34Z"/><path class="cls-7" d="M103.15,22.73S82.75,27.39,74,13.4c0,0-17.48,15.74-16.32,28.56S107.81,59,103.15,22.73Z"/><path class="cls-8" d="M74,13.4a17.55,17.55,0,0,0,0,16.45C78.67,38.46,93.82,67,98.48,62.35s8.16-5.82,8.16-5.82S92.07,67,94.4,88s-32.63,36.72-37.87,32.64-32-2.33-35-36.72C21.56,83.91,26.81,40.36,74,13.4Z"/></g></g></svg>